<svg width="155" height="30" viewBox="0 0 155 30" fill="none" xmlns="http://www.w3.org/2000/svg">
<g clip-path="url(#clip0)">
<path d="M15.0214 5.0823e-05C6.74257 -0.0212862 0.0213879 6.67855 5.08231e-05 14.9787C-0.0212863 23.2574 6.67856 29.9786 14.9787 30C23.2575 30.0213 29.9787 23.3215 30 15.0213C30 6.74256 23.3002 0.0213879 15.0214 5.0823e-05ZM20.1849 4.84356C20.4837 4.84356 20.7184 5.07827 20.7184 5.37699C20.7184 5.67571 20.4837 5.91041 20.1849 5.91041C19.8862 5.91041 19.6515 5.67571 19.6515 5.37699C19.6302 5.07827 19.8862 4.84356 20.1849 4.84356ZM18.6913 2.53916C18.8834 2.53916 19.0541 2.70986 19.0541 2.90189C19.0541 3.09392 18.8834 3.26462 18.6913 3.26462C18.4993 3.26462 18.3286 3.09392 18.3286 2.90189C18.3286 2.68852 18.4993 2.53916 18.6913 2.53916ZM13.3784 2.77387C13.7625 2.77387 14.0825 3.09392 14.0825 3.47799C14.0825 3.86206 13.7625 4.18211 13.3784 4.18211C12.9943 4.18211 12.6743 3.86206 12.6743 3.47799C12.6743 3.09392 12.9943 2.77387 13.3784 2.77387ZM4.52351 14.6159L3.77672 14.872C3.75538 14.872 3.75538 14.8933 3.75538 14.8933L3.54201 15.6614C3.54201 15.7041 3.478 15.7041 3.478 15.6614L3.20061 14.9147C3.20061 14.8933 3.17928 14.8933 3.17928 14.8933L2.41114 14.6799C2.36847 14.6799 2.36847 14.6159 2.41114 14.6159L3.15794 14.3599C3.17928 14.3599 3.17928 14.3385 3.17928 14.3385L3.39265 13.5704C3.39265 13.5277 3.45666 13.5277 3.45666 13.5704L3.7127 14.3172C3.7127 14.3385 3.73404 14.3385 3.73404 14.3385L4.50218 14.5519C4.54485 14.5519 4.54485 14.5946 4.52351 14.6159ZM4.97159 7.01994C4.97159 6.72122 5.2063 6.48652 5.50502 6.48652C5.80374 6.48652 6.03845 6.72122 6.03845 7.01994C6.03845 7.31866 5.80374 7.55337 5.50502 7.55337C5.2063 7.55337 4.97159 7.31866 4.97159 7.01994ZM5.91042 10.0925C5.69705 10.0925 5.52636 9.92178 5.52636 9.70841C5.52636 9.49504 5.69705 9.32434 5.91042 9.32434C6.1238 9.32434 6.29449 9.49504 6.29449 9.70841C6.29449 9.92178 6.1238 10.0925 5.91042 10.0925ZM14.9573 28.7837C11.8635 28.7624 9.04698 27.7596 6.76391 26.0739C7.48937 25.1138 8.34285 24.3456 9.36703 23.6842C9.40971 23.7269 9.47372 23.7482 9.51639 23.7909C11.1167 24.6657 12.9517 25.2631 14.9147 25.2631C16.899 25.2631 18.7767 24.687 20.3983 23.7909C20.441 23.7695 20.505 23.7269 20.5477 23.6842C21.5718 24.3456 22.4253 25.1138 23.1508 26.0739C20.8677 27.7596 18.0512 28.7837 14.9573 28.7837ZM15 23.5135C10.3059 23.5135 6.48653 19.6942 6.48653 15C6.48653 10.3058 10.3059 6.48652 15 6.48652C19.6942 6.48652 23.5135 10.3058 23.5135 15C23.5135 19.6942 19.6942 23.5135 15 23.5135ZM25.3272 19.3741C25.0498 19.3741 24.8364 19.1607 24.8364 18.8833C24.8364 18.606 25.0498 18.3926 25.3272 18.3926C25.6046 18.3926 25.8179 18.606 25.8179 18.8833C25.8179 19.1607 25.6046 19.3741 25.3272 19.3741ZM26.5861 9.85777L25.6686 10.1778C25.6472 10.1778 25.6472 10.1992 25.6472 10.2205L25.3912 11.1593C25.3699 11.202 25.3058 11.202 25.3058 11.1593L24.9858 10.2418C24.9858 10.2205 24.9644 10.2205 24.9431 10.2205L24.0043 9.96445C23.9616 9.94312 23.9616 9.87911 24.0043 9.87911L24.9218 9.55905C24.9431 9.55905 24.9431 9.53771 24.9431 9.51638L25.1992 8.57755C25.2205 8.53487 25.2845 8.53487 25.2845 8.57755L25.6046 9.49504C25.6046 9.51638 25.6259 9.51638 25.6472 9.51638L26.5861 9.77242C26.6287 9.77242 26.6287 9.83643 26.5861 9.85777ZM28.293 12.9516L27.7169 13.165L27.6956 13.1863L27.5249 13.7838C27.5249 13.8051 27.4822 13.8051 27.4609 13.7838L27.2475 13.2077L27.2262 13.1863L26.6287 13.0157C26.6074 13.0157 26.6074 12.973 26.6287 12.9516L27.2048 12.7383L27.2262 12.7169L27.3969 12.1195C27.3969 12.0982 27.4395 12.0982 27.4609 12.1195L27.6743 12.6956L27.6956 12.7169L28.293 12.8876C28.3144 12.909 28.3144 12.9516 28.293 12.9516Z" fill="#6638B6"/>
<path d="M14.9998 9.72969C14.8718 9.72969 14.7438 9.72969 14.6157 9.75103C13.997 9.7937 13.5276 9.70835 13.3355 9.623C12.8234 9.3883 12.5674 9.28161 12.354 9.17492C12.2047 9.11091 11.9273 9.08958 11.7779 9.19626C11.6286 9.30295 11.6499 9.55899 11.8206 9.81504C11.8846 9.92172 12.0126 10.1138 11.9699 10.1778C11.8846 10.2845 11.3725 9.94306 10.6684 9.81504C10.4337 9.77236 10.199 9.7937 10.0709 9.98573C9.96426 10.1351 10.0923 10.3911 10.2416 10.6045C10.391 10.8392 10.7324 11.4153 10.4337 11.7567C9.38816 12.8662 8.74805 14.3812 8.74805 16.0241C8.74805 19.4807 11.5432 22.2972 15.0212 22.2972C18.4778 22.2972 21.2943 19.5021 21.2943 16.0241C21.2729 12.5248 18.4564 9.72969 14.9998 9.72969ZM12.1193 16.5149C12.0766 16.963 11.6712 17.3043 11.2018 17.2617C10.7537 17.219 10.4123 16.8136 10.455 16.3442C10.4977 15.8961 10.9031 15.5547 11.3725 15.5974C11.8419 15.6401 12.162 16.0455 12.1193 16.5149ZM18.5204 15.4053C17.9443 15.6614 17.2829 15.384 17.0268 14.8079C16.7708 14.2318 17.0482 13.5704 17.6243 13.3143C18.2004 13.0583 18.8618 13.3356 19.1179 13.9118C19.3526 14.4879 19.0965 15.1493 18.5204 15.4053Z" fill="#6638B6"/>
<path d="M62.1513 8.9974C61.5627 8.80821 60.869 8.72412 60.0913 8.72412H56.2865H56.0973L56.0552 8.91331L52.7129 21.2316H54.9621L56.0763 17.1115H58.5147C59.3976 17.1115 60.2384 17.0064 60.9742 16.8172C61.7309 16.607 62.3826 16.3127 62.9291 15.9133C63.4967 15.5139 63.9381 15.0094 64.2324 14.4208C64.5267 13.8533 64.6949 13.1596 64.6949 12.4028C64.6949 11.3938 64.3796 10.574 63.7279 9.92232C63.3075 9.5019 62.7609 9.18659 62.1513 8.9974ZM61.5627 14.3788C60.8901 14.8412 59.9021 15.0935 58.5988 15.0935H56.6228L57.779 10.8052H60.0492C60.9952 10.8052 61.6678 11.0154 62.0672 11.4148C62.3405 11.6881 62.4877 12.0454 62.4877 12.5079C62.4877 13.3277 62.1934 13.9373 61.5627 14.3788Z" fill="#222532"/>
<path d="M47.3944 8.72412C46.7427 8.72412 46.1331 8.80821 45.5656 8.9974C45.019 9.18659 44.5145 9.43883 44.1151 9.75415C43.6947 10.0905 43.3584 10.4899 43.1271 10.9524C42.8959 11.4148 42.7698 11.9193 42.7698 12.4448C42.7698 12.8653 42.8539 13.2647 43.001 13.601C43.1481 13.9373 43.3794 14.2527 43.6947 14.5259C43.989 14.7782 44.3253 15.0304 44.7457 15.2406C45.1451 15.4508 45.6286 15.6611 46.1542 15.8713C46.4905 15.9974 46.7217 16.1235 46.9529 16.2496C47.016 16.2917 47.0791 16.3127 47.1421 16.3337C47.4154 16.4809 47.6256 16.607 47.7728 16.7542C47.8989 16.8803 48.004 17.0064 48.0671 17.1325C48.1301 17.2587 48.1511 17.4058 48.1511 17.5529C48.1511 17.8052 48.1091 18.0154 48.004 18.2046C47.8779 18.4148 47.7307 18.583 47.5205 18.7301C47.3103 18.8773 46.974 19.0454 46.7427 19.1085C46.2803 19.2346 45.6076 19.2346 45.1241 19.2346C45.04 19.2346 40.6466 19.2136 40.6466 19.2136L40.1001 21.1896H45.7127C46.3854 21.1896 46.995 21.1055 47.5415 20.9373C48.0881 20.7692 48.5926 20.4959 49.034 20.1596C49.4545 19.8232 49.8118 19.4028 50.0641 18.9403C50.3163 18.4569 50.4424 17.9524 50.4424 17.3848C50.4424 16.9644 50.3584 16.565 50.2112 16.2286C50.0641 15.8923 49.8539 15.577 49.5596 15.3037C49.2863 15.0304 48.9499 14.7992 48.5505 14.568C48.1722 14.3578 47.7097 14.1475 47.2262 13.9584C46.9109 13.8322 46.6587 13.7061 46.4064 13.601C46.3223 13.559 46.2593 13.5169 46.1752 13.4959C45.8809 13.3487 45.6496 13.2226 45.4605 13.0755C45.3133 12.9493 45.1872 12.8232 45.1241 12.6971C45.0611 12.571 45.04 12.4238 45.04 12.2767C45.04 12.0875 45.0821 11.8983 45.1872 11.7301C45.2923 11.5409 45.4184 11.3728 45.6076 11.2256C45.7968 11.0785 46.049 10.9524 46.3223 10.8472C46.6166 10.7421 46.974 10.7001 47.3313 10.7001H51.998L52.5445 8.72412H47.3944Z" fill="#222532"/>
<path d="M88.4698 17.5529C87.6711 18.625 86.4098 19.2767 85.1065 19.2767C84.0134 19.2767 83.1305 18.9614 82.5629 18.3518C82.0164 17.7632 81.7431 16.9223 81.8062 15.9133C81.9533 12.9073 83.9714 10.7421 86.599 10.7421C87.9864 10.7421 89.2056 11.4779 89.7521 12.6551L89.8783 12.9283L91.5599 11.9193L91.7491 11.7932L91.665 11.583C90.8662 9.81722 89.0795 8.74514 86.8512 8.72412H86.7882C82.8362 8.72412 79.8092 11.7511 79.599 15.8923C79.5149 17.4268 79.9563 18.7301 80.8813 19.6971C81.8482 20.7271 83.2777 21.2737 84.9593 21.2737C86.7041 21.2737 88.3647 20.559 89.4999 19.3397L88.4698 17.5529Z" fill="#222532"/>
<path d="M101.272 17.5529C100.473 18.646 99.1905 19.2767 97.8661 19.2767C97.8451 19.2767 97.8872 19.2767 97.8661 19.2767C96.8151 19.2557 95.9322 18.9403 95.3856 18.3518C94.8601 17.7842 94.5869 16.9644 94.6289 15.9343L103.479 15.8923L103.542 15.7241C103.668 15.3878 103.899 14.7572 104.025 14.0635C104.278 12.5079 103.983 11.1836 103.142 10.1956C102.344 9.24965 101.103 8.72412 99.716 8.72412C95.8271 8.72412 92.6319 11.8563 92.4007 15.8502C92.3166 17.3427 92.737 18.646 93.6199 19.592C94.5658 20.622 96.0373 21.1896 97.761 21.2316C97.8241 21.2316 97.698 21.2316 97.761 21.2316C99.1064 21.2316 101.04 20.6851 102.323 19.3187L101.272 17.5529ZM101.797 14.0845L94.9652 14.0635C95.6379 12.1295 97.1935 10.8893 99.1694 10.7211C99.2745 10.7211 99.3796 10.7001 99.4847 10.7001C100.326 10.7001 101.019 10.9944 101.44 11.5199C101.902 12.1295 102.028 13.0124 101.797 14.0845Z" fill="#222532"/>
<path d="M76.2983 9.7336C75.4784 9.06092 74.3223 8.74561 72.7667 8.74561C72.3673 8.74561 71.5895 8.74561 70.8328 8.74561C70.1391 8.74561 69.088 8.74561 68.7937 8.74561H68.4574L69.6556 10.7846H72.4935C73.4814 10.7846 74.2382 10.9738 74.7007 11.3312C75.1421 11.6885 75.3733 12.2141 75.3733 12.8867C75.3733 13.0339 75.3523 13.2021 75.3313 13.3913C75.3103 13.5804 75.2682 13.7486 75.2262 13.8958V13.9168C74.7217 13.7696 74.1541 13.6645 73.5655 13.5384C72.8508 13.4123 72.0941 13.3492 71.2953 13.3492C70.5175 13.3492 69.8028 13.4543 69.1511 13.6435C68.4995 13.8537 67.9109 14.148 67.4274 14.5054C66.9439 14.8837 66.5445 15.3672 66.2712 15.9138C65.998 16.4603 65.8718 17.0909 65.8718 17.7636C65.8718 18.3312 65.9769 18.8357 66.2082 19.2561C66.4184 19.6765 66.7127 20.0549 67.091 20.3282C67.4484 20.6225 67.8688 20.8327 68.3313 20.9798C68.7938 21.127 69.2983 21.2111 69.8028 21.2111C70.5805 21.2111 71.3163 21.0639 71.9679 20.7906C72.3463 20.6435 73.2922 20.0549 73.8598 19.6765L74.6166 20.9588H75.4995L77.3283 14.2321C77.3913 14.0219 77.4334 13.7906 77.4544 13.5804C77.4544 13.5174 77.4754 13.4543 77.4754 13.3913C77.5175 13.118 77.5385 12.8237 77.5385 12.5714C77.5805 11.3732 77.1391 10.4063 76.2983 9.7336ZM74.5956 16.2921C74.5745 16.3762 73.9439 18.6045 70.8748 19.2561C70.8748 19.2561 70.5385 19.3402 70.055 19.3402C69.6977 19.3402 69.3823 19.2982 69.088 19.2141C68.8568 19.151 68.6886 19.0459 68.5415 18.9408C68.1631 18.6255 67.9739 18.184 67.9739 17.6375C67.9739 17.3012 68.058 16.9438 68.2262 16.6285C68.3733 16.3342 68.7307 16.0189 69.004 15.8297C69.2562 15.6405 69.5715 15.4723 70.013 15.3252C70.4124 15.1991 70.8538 15.136 71.3583 15.136C72.052 15.136 72.7247 15.178 73.3553 15.2831C73.8808 15.3672 74.3433 15.4513 74.7847 15.5774L74.5956 16.2921Z" fill="#222532"/>
<path d="M145.542 11.0796L144.932 13.3499H151.533L150.755 16.1877H144.154L143.482 18.6472H150.923L150.124 21.5901H138.962L142.599 8.17871H152.92L152.121 11.1006H145.542V11.0796Z" fill="#222532"/>
<path d="M139.361 8.15576L135.725 21.5672H132.634L128.304 14.2098L126.307 21.5672H122.586L126.223 8.15576H129.334L133.643 15.4711L135.619 8.15576H139.361Z" fill="#222532"/>
<path d="M106.862 15.9554C107.199 11.2887 110.877 7.8833 115.817 7.8833C119.958 7.8833 122.334 10.3217 122.103 13.8112C121.766 18.4779 118.088 21.8833 113.148 21.8833C109.007 21.8623 106.631 19.4238 106.862 15.9554ZM118.214 14.0214C118.34 12.2347 117.289 11.0154 115.292 11.0154C112.685 11.0154 110.961 13.1596 110.772 15.7031C110.646 17.4899 111.697 18.7091 113.694 18.7091C116.301 18.7091 118.025 16.565 118.214 14.0214Z" fill="#222532"/>
</g>
<defs>
<clipPath id="clip0">
<rect width="154.667" height="30" fill="white"/>
</clipPath>
</defs>
</svg>
