<svg width="32" height="32" viewBox="0 0 32 32" fill="none" xmlns="http://www.w3.org/2000/svg">
<g clip-path="url(#clip0)">
<path d="M12.9425 23.2692L5.75342 21.6074C5.09589 21.4447 4.60274 20.8403 4.58082 20.1082C4.58082 20.0849 4.58082 11.9151 4.58082 11.8918C4.6137 11.1597 5.10685 10.5437 5.75342 10.3926L12.9425 8.73077L13.7096 5.5H5.33699C2.4 5.5 0.0109589 8.02186 0 11.1364V20.8752C0.0109589 23.9898 2.4 26.5116 5.33699 26.5116H13.7096L12.9425 23.2692Z" fill="#FF6A00"/>
<path d="M19.0572 23.2692L26.2462 21.6074C26.9037 21.4447 27.3969 20.8403 27.4188 20.1082C27.4188 20.0849 27.4188 11.9151 27.4188 11.8918C27.3859 11.1597 26.8928 10.5437 26.2462 10.3926L19.0572 8.73077L18.29 5.5H26.6626C29.5996 5.5 31.9887 8.02186 31.9996 11.1364V20.8752C31.9887 23.9898 29.5996 26.5116 26.6626 26.5116H18.29L19.0572 23.2692Z" fill="#FF6A00"/>
<path d="M19.0575 15.5991H12.9424V16.4126H19.0575V15.5991Z" fill="#FF6A00"/>
</g>
<defs>
<clipPath id="clip0">
<rect width="32" height="21" fill="white" transform="translate(0 5.5)"/>
</clipPath>
</defs>
</svg>
