<svg width="32" height="32" viewBox="0 0 32 32" fill="none" xmlns="http://www.w3.org/2000/svg">
<g clip-path="url(#clip0)">
<path d="M13.3237 27.6182H15.3642L14.2834 25.8803L12.3034 29.0189H11.4042L13.8079 25.2492C13.9116 25.0935 14.0845 25.0071 14.2834 25.0071C14.4736 25.0071 14.6465 25.0935 14.7503 25.2405L17.1626 29.0102H16.2634L15.8397 28.3099H13.7733L13.3237 27.6182ZM22.6702 28.3185V25.0503H21.9093V28.6385C21.9093 28.7336 21.9439 28.8287 22.0217 28.9065C22.0909 28.9756 22.1946 29.0189 22.2984 29.0189H25.7828L26.2324 28.3185H22.6702ZM10.0382 27.7306C10.7817 27.7306 11.3783 27.134 11.3783 26.3905C11.3783 25.6469 10.7731 25.0503 10.0382 25.0503H6.69211V29.0189H7.45296V25.7506H9.97763C10.3321 25.7506 10.6174 26.036 10.6174 26.3905C10.6174 26.745 10.3321 27.0303 9.97763 27.0303H7.82475L10.1073 29.0189H11.214L9.68366 27.7306H10.0382ZM1.98861 29.0189C0.890551 29.0189 0 28.1283 0 27.0303C0 25.9322 0.890551 25.0417 1.98861 25.0417H4.29713C5.39519 25.0417 6.28574 25.9322 6.28574 27.0303C6.28574 28.1283 5.39519 29.0189 4.29713 29.0189H1.98861ZM4.24525 28.3185C4.95423 28.3185 5.53352 27.7479 5.53352 27.0389C5.53352 26.3299 4.95423 25.7506 4.24525 25.7506H2.04049C1.33151 25.7506 0.752214 26.3299 0.752214 27.0389C0.752214 27.7479 1.33151 28.3185 2.04049 28.3185H4.24525ZM18.7535 29.0189C17.6554 29.0189 16.7648 28.1283 16.7648 27.0303C16.7648 25.9322 17.6554 25.0417 18.7535 25.0417H21.4943L21.0447 25.742H18.7967C18.0877 25.742 17.5084 26.3213 17.5084 27.0303C17.5084 27.7393 18.0877 28.3099 18.7967 28.3099H21.5548L21.1052 29.0102H18.7535V29.0189ZM28.0999 28.3185C27.512 28.3185 27.0192 27.9295 26.8635 27.3848H30.1318L30.5814 26.6844H26.8635C27.0192 26.1484 27.512 25.7506 28.0999 25.7506H30.3393L30.7889 25.0503H28.048C26.95 25.0503 26.0594 25.9409 26.0594 27.0389C26.0594 28.137 26.95 29.0275 28.048 29.0275H30.3998L30.8494 28.3272H28.0999" fill="#D73A27"/>
<path d="M31.2045 25.4655C31.2045 25.2753 31.3601 25.1196 31.5503 25.1196C31.7492 25.1196 31.9048 25.2753 31.9048 25.4655C31.9048 25.6643 31.7492 25.82 31.5503 25.82C31.3515 25.82 31.2045 25.6643 31.2045 25.4655ZM31.5503 25.9151C31.8011 25.9151 31.9999 25.7162 31.9999 25.4655C31.9999 25.2147 31.8011 25.0159 31.5503 25.0159C31.3082 25.0159 31.1094 25.2147 31.1094 25.4655C31.1094 25.7162 31.3082 25.9151 31.5503 25.9151ZM31.5071 25.2061C31.5763 25.2061 31.6022 25.2061 31.6368 25.2234C31.7232 25.2493 31.7319 25.3271 31.7319 25.3617C31.7319 25.3704 31.7319 25.3877 31.7232 25.4049C31.7232 25.4222 31.706 25.4655 31.6627 25.4914C31.6541 25.4914 31.6541 25.5 31.6368 25.5L31.7492 25.7076H31.6368L31.533 25.5173H31.4639V25.7076H31.3688V25.2061H31.5071V25.2061ZM31.5417 25.4309C31.5763 25.4309 31.6022 25.4309 31.6281 25.3963C31.6368 25.3877 31.6368 25.3704 31.6368 25.3531C31.6368 25.3271 31.6195 25.3098 31.6022 25.2925C31.5763 25.2839 31.559 25.2839 31.5071 25.2839H31.4812V25.4309H31.5417Z" fill="#D73A27"/>
<path fill-rule="evenodd" clip-rule="evenodd" d="M9.98422 22.975C4.47119 22.975 0 18.5038 0 12.9908C0 7.47778 4.47119 3.00659 9.98422 3.00659H21.5746C27.0876 3.00659 31.5588 7.47778 31.5588 12.9908C31.5588 18.5038 27.0876 22.975 21.5746 22.975H9.98422ZM21.315 19.4592C24.8746 19.4592 27.7831 16.5942 27.7831 13.0346C27.7831 9.47499 24.8746 6.56653 21.315 6.56653H10.2456C6.686 6.56653 3.77754 9.47499 3.77754 13.0346C3.77754 16.5942 6.686 19.4592 10.2456 19.4592H21.315Z" fill="#D73A27"/>
</g>
<defs>
<clipPath id="clip0">
<rect width="32" height="32" fill="white"/>
</clipPath>
</defs>
</svg>
