<svg width="32" height="32" viewBox="0 0 32 32" fill="none" xmlns="http://www.w3.org/2000/svg">
<path d="M30.0956 5.97519L16.0438 10.891L1.9044 5.97748L15.9562 1.06167L30.0956 5.97519Z" fill="#C0C0C0"/>
<path d="M16.0446 11.0525L15.9935 11.0335L1.44116 5.97824L15.9562 0.900146L30.5589 5.97443L16.0446 11.0525ZM2.36688 5.97748L16.0438 10.7287L29.6316 5.97519L15.9562 1.22319L2.36688 5.97748Z" fill="white"/>
<path d="M30.0956 5.97519L30.021 25.9683L15.9692 30.8849L16.0438 10.891L30.0956 5.97519Z" fill="#C0C0C0"/>
<path d="M15.816 31.0998L15.8922 10.7828L30.2488 5.75957L30.1726 26.0765L15.816 31.0998ZM16.197 10.9992L16.1208 30.6693L29.8686 25.8601L29.9448 6.19005L16.197 10.9992Z" fill="white"/>
<path d="M16.0438 10.891L15.9692 30.8849L1.82897 25.9714L1.9044 5.97748L16.0438 10.891Z" fill="#C0C0C0"/>
<path d="M16.1208 31.0982L1.67659 26.0796V25.9706L1.75278 5.76338L16.197 10.7828V10.8918L16.1208 31.0982ZM1.98211 25.8632L15.8175 30.6708L15.8937 10.9992L2.05526 6.19157L1.98211 25.8632Z" fill="white"/>
<path d="M28.4522 19.7695L16.1041 24.0895L3.67815 19.7718L16.0263 15.451L28.4522 19.7695Z" fill="#E1C72E"/>
<path d="M16.1041 24.2183L16.0637 24.2046L3.30786 19.7726L16.0263 15.3223L28.8263 19.7695L16.1041 24.2183ZM4.04843 19.7718L16.1041 23.9623L28.082 19.7718L16.0271 15.5813L4.04843 19.7718Z" fill="white"/>
<path d="M28.4522 19.7695L28.3867 24.2914L16.0378 28.6114L16.1041 24.0895L28.4522 19.7695Z" fill="#E1C72E"/>
<path d="M15.9174 28.7859L15.9875 24.0034L28.5764 19.5973L28.5071 24.3783L28.4271 24.4065L15.9174 28.7859ZM16.2221 24.1764L16.1597 28.4392L28.2641 24.2046L28.3258 19.9425L16.2221 24.1764Z" fill="white"/>
<path d="M16.1041 24.0895L16.0378 28.6114L3.61186 24.2937L3.67815 19.7718L16.1041 24.0895Z" fill="#E1C72E"/>
<path d="M16.1574 28.7859L3.48843 24.3806L3.55853 19.6019L16.2275 24.0026L16.1574 28.7859ZM3.73834 24.2145L15.9174 28.4415L15.9799 24.1748L3.797 19.9425L3.73834 24.2145Z" fill="white"/>
<path d="M28.4522 13.7704L16.1041 18.0896L3.67815 13.7726L16.0263 9.45189L28.4522 13.7704Z" fill="#BEDC94"/>
<path d="M16.1041 18.2191L16.0637 18.2046L3.30786 13.7765L16.0263 9.32617L28.8263 13.7734L16.1041 18.2191ZM4.04843 13.7719L16.1041 17.9624L28.082 13.7719L16.0271 9.58141L4.04843 13.7719Z" fill="white"/>
<path d="M28.4522 13.7704L28.3867 18.2923L16.0378 22.6123L16.1041 18.0896L28.4522 13.7704Z" fill="#BEDC94"/>
<path d="M15.9174 22.7845L15.9875 18.0027L28.5802 13.5974L28.5109 18.3791L28.4309 18.4073L15.9174 22.7845ZM16.2221 18.1765L16.1597 22.4393L28.2641 18.2054L28.3258 13.9426L16.2221 18.1765Z" fill="white"/>
<path d="M16.1041 18.0896L16.0378 22.6123L3.61186 18.2946L3.67815 13.7726L16.1041 18.0896Z" fill="#BEDC94"/>
<path d="M16.1574 22.7829L3.48843 18.3806L3.55853 13.602L16.2275 18.0035L16.1574 22.7829ZM3.73834 18.2115L15.9174 22.4416L15.9799 18.1749L3.797 13.9433L3.73834 18.2115Z" fill="white"/>
<path d="M28.4522 7.66574L16.1041 11.9857L3.67815 7.66803L16.0263 3.34727L28.4522 7.66574Z" fill="#86C8DE"/>
<path d="M16.1041 12.1145L3.30786 7.66879L16.0263 3.21851L28.8263 7.66574L16.1041 12.1145ZM4.04843 7.66803L16.1041 11.8585L28.082 7.66803L16.0271 3.47755L4.04843 7.66803Z" fill="white"/>
<path d="M28.4522 7.66574L28.3867 12.1876L16.0378 16.5076L16.1041 11.9857L28.4522 7.66574Z" fill="#86C8DE"/>
<path d="M15.9174 16.6806L15.9875 11.8981L28.5764 7.49279L28.5071 12.2745L15.9174 16.6806ZM16.2221 12.0726L16.1597 16.3393L28.2663 12.1L28.3281 7.83793L16.2221 12.0726Z" fill="white"/>
<path d="M16.1041 11.9857L16.0378 16.5076L3.61186 12.1899L3.67815 7.66803L16.1041 11.9857Z" fill="#86C8DE"/>
<path d="M16.1574 16.6783L3.48843 12.276L3.55853 7.49736L16.2275 11.8989L16.1574 16.6783ZM3.73834 12.1069L15.9174 16.337L15.9799 12.0703L3.797 7.8387L3.73834 12.1069Z" fill="white"/>
</svg>
