<svg width="32" height="32" viewBox="0 0 32 32" fill="none" xmlns="http://www.w3.org/2000/svg">
<path d="M30.0956 5.97544L16.0438 10.8912L1.9044 5.97772L15.9562 1.06191L30.0956 5.97544Z" fill="#C0C0C0"/>
<path d="M16.0446 11.0528L15.9935 11.0337L1.44116 5.97849L15.9562 0.900391L30.5589 5.97468L16.0446 11.0528ZM2.36688 5.97772L16.0438 10.729L29.6316 5.97544L15.9562 1.22344L2.36688 5.97772Z" fill="white"/>
<path d="M30.0956 5.97544L30.021 25.9686L15.9692 30.8852L16.0438 10.8912L30.0956 5.97544Z" fill="#C0C0C0"/>
<path d="M15.816 31.1L15.8922 10.7831L30.2488 5.75982L30.1726 26.0768L15.816 31.1ZM16.197 10.9994L16.1208 30.6695L29.8686 25.8604L29.9448 6.1903L16.197 10.9994Z" fill="white"/>
<path d="M16.0438 10.8912L15.9692 30.8852L1.82897 25.9716L1.9044 5.97772L16.0438 10.8912Z" fill="#C0C0C0"/>
<path d="M16.1208 31.0985L1.67659 26.0798V25.9709L1.75278 5.76363L16.197 10.7831V10.892L16.1208 31.0985ZM1.98211 25.8634L15.8175 30.6711L15.8937 10.9994L2.05526 6.19182L1.98211 25.8634Z" fill="white"/>
<path d="M14.326 18.5754L14.3367 18.5716L14.326 18.5678V18.5754Z" fill="#E1C72E"/>
<path d="M14.3375 18.7331L14.326 18.7293V18.7369L14.3375 18.7331Z" fill="white"/>
<path d="M14.3367 15.1049L14.326 15.1011V15.108L14.3367 15.1049Z" fill="#E1C72E"/>
<path d="M14.3375 15.2657L14.326 15.2619V15.2695L14.3375 15.2657Z" fill="white"/>
<path d="M12.3573 22.3491L12.2079 22.2973L12.0525 22.3514L12.054 22.2432L6.0289 20.1503L5.36985 20.3804L12.2468 22.7697L14.326 22.0428V21.556L12.3588 22.244L12.3573 22.3491Z" fill="#E1C72E"/>
<path d="M5.79805 20.0695L5.56643 19.9887L4.90738 20.2196L5.13824 20.3004L5.79805 20.0695Z" fill="white"/>
<path d="M4.44414 20.3819L4.75347 20.4886L4.75652 20.2722L4.44414 20.3819Z" fill="white"/>
<path d="M12.2468 22.7697L5.36985 20.3804L6.0289 20.1503L5.79805 20.0695L5.13824 20.3004L12.2468 22.7697Z" fill="white"/>
<path d="M12.3634 25.3868L14.326 24.7004V22.3659L12.3977 23.0402L12.3634 25.3868Z" fill="#E1C72E"/>
<path d="M12.0525 25.8188L12.2079 25.764L12.054 25.7107L12.0525 25.8188Z" fill="white"/>
<path d="M12.3611 25.5491L12.3588 25.7114L14.326 25.0234V24.8619L12.3611 25.5491Z" fill="white"/>
<path d="M12.2468 22.7697L12.4007 22.8238L12.3999 22.8779L14.326 22.2044V22.0428L12.2468 22.7697Z" fill="white"/>
<path d="M12.3634 25.3868L12.3977 23.0402L12.3611 25.5491L14.326 24.8619V24.7004L12.3634 25.3868Z" fill="white"/>
<path d="M12.3977 23.0402L14.326 22.3659V22.2044L12.3999 22.8779L12.3977 23.0402Z" fill="white"/>
<path d="M5.05671 20.5945L5.02243 22.9442L12.0586 25.3899L12.0929 23.0394L5.05671 20.5945Z" fill="#E1C72E"/>
<path d="M4.75805 20.1678L4.75652 20.2722L4.90738 20.2196L4.75805 20.1678Z" fill="white"/>
<path d="M4.86852 23.0524L4.90509 20.5419L4.75347 20.4886L4.71462 23.1598L12.054 25.7107L12.0563 25.5499L4.86852 23.0524Z" fill="white"/>
<path d="M12.3573 25.8158L12.3588 25.7114L12.2079 25.764L12.3573 25.8158Z" fill="white"/>
<path d="M4.90738 20.3811L5.13824 20.3004L4.90738 20.2196L4.75652 20.2722L4.75347 20.4886L4.90509 20.5419L4.90738 20.3811Z" fill="white"/>
<path d="M12.0959 22.823L12.2468 22.7697L5.13824 20.3004L4.90738 20.3811L12.0952 22.8787L12.0959 22.823Z" fill="white"/>
<path d="M12.0563 25.5499L12.054 25.7107L12.2079 25.764L12.3588 25.7114L12.3611 25.5491L12.2079 25.6032L12.0563 25.5499Z" fill="white"/>
<path d="M12.0952 22.8787L12.2468 22.9312L12.3999 22.8779L12.4007 22.8238L12.2468 22.7697L12.0959 22.823L12.0952 22.8787Z" fill="white"/>
<path d="M12.2468 23.0927L12.2445 23.092L12.2079 25.6032L12.3611 25.5491L12.3977 23.0402L12.2468 23.0927Z" fill="white"/>
<path d="M12.2468 22.9312L12.2445 23.092L12.2468 23.0927L12.3977 23.0402L12.3999 22.8779L12.2468 22.9312Z" fill="white"/>
<path d="M5.02243 22.9442L5.05671 20.5945L4.90509 20.5419L4.86852 23.0524L12.0563 25.5499L12.0586 25.3899L5.02243 22.9442Z" fill="white"/>
<path d="M5.05671 20.5945L12.0929 23.0394L12.0952 22.8787L4.90738 20.3811L4.90509 20.5419L5.05671 20.5945Z" fill="white"/>
<path d="M12.0586 25.3899L12.0563 25.5499L12.2079 25.6032L12.2445 23.092L12.0929 23.0394L12.0586 25.3899Z" fill="white"/>
<path d="M12.0952 22.8787L12.0929 23.0394L12.2445 23.092L12.2468 22.9312L12.0952 22.8787Z" fill="white"/>
<path d="M6.02966 16.6828L5.36985 16.9137L9.87957 18.4802L10.5386 18.2501L6.02966 16.6828Z" fill="#E1C72E"/>
<path d="M14.326 18.407V18.0886L13.8704 18.2486L14.326 18.407Z" fill="#E1C72E"/>
<path d="M14.1059 18.6524L13.4079 18.4101L12.3588 18.7773L12.3573 18.8817L12.2079 18.8299L12.0525 18.884L12.054 18.7766L11.0019 18.4108L10.3428 18.6409L12.2468 19.303L14.1059 18.6524Z" fill="#E1C72E"/>
<path d="M13.6388 18.3293L14.326 18.5678V18.407L13.8704 18.2486L13.6388 18.3293Z" fill="#E1C72E"/>
<path d="M10.7702 18.3301L10.5386 18.2501L9.87957 18.4802L10.1112 18.5609L10.7702 18.3301Z" fill="#E1C72E"/>
<path d="M14.1059 18.6524L14.326 18.5754V18.5678L13.6388 18.3293L13.4079 18.4101L14.1059 18.6524Z" fill="#E1C72E"/>
<path d="M11.0019 18.4108L10.7702 18.3301L10.1112 18.5609L10.3428 18.6409L11.0019 18.4108Z" fill="#E1C72E"/>
<path d="M5.79805 16.6021L5.56643 16.5221L4.90738 16.7522L5.13824 16.8329L5.79805 16.6021Z" fill="white"/>
<path d="M4.44414 16.9145L4.75347 17.0219L4.75652 16.8055L4.44414 16.9145Z" fill="white"/>
<path d="M9.87957 18.4802L5.36985 16.9137L6.02966 16.6828L5.79805 16.6021L5.13824 16.8329L9.87957 18.4802Z" fill="white"/>
<path d="M12.3977 19.5727L12.3634 21.9202L14.326 21.2329V18.8985L12.3977 19.5727Z" fill="#E1C72E"/>
<path d="M12.0525 22.3514L12.2079 22.2973L12.054 22.2432L12.0525 22.3514Z" fill="white"/>
<path d="M12.3588 22.244L14.326 21.556V21.3945L12.3611 22.0825L12.3588 22.244Z" fill="white"/>
<path d="M12.2468 19.303L12.4007 19.3564L12.3999 19.4105L14.326 18.7369V18.7293L14.1059 18.6524L12.2468 19.303Z" fill="white"/>
<path d="M14.326 18.7293V18.5754L14.1059 18.6524L14.326 18.7293Z" fill="white"/>
<path d="M12.3977 19.5727L12.3611 22.0825L14.326 21.3945V21.2329L12.3634 21.9202L12.3977 19.5727Z" fill="white"/>
<path d="M12.3999 19.4105L12.3977 19.5727L14.326 18.8985V18.7369L12.3999 19.4105Z" fill="white"/>
<path d="M5.05671 17.127L5.02243 19.4775L6.0289 19.8272L9.41633 18.6425L5.05671 17.127Z" fill="#E1C72E"/>
<path d="M12.0929 19.572L9.87957 18.8032L6.49214 19.988L12.0586 21.9225L12.0929 19.572Z" fill="#E1C72E"/>
<path d="M9.41633 18.6425L6.0289 19.8272L6.26052 19.908L7.95424 19.3152L9.64795 18.7225L9.41633 18.6425Z" fill="#E1C72E"/>
<path d="M9.64795 18.7225L7.95424 19.3152L6.26052 19.908L6.49214 19.988L9.87957 18.8032L9.64795 18.7225Z" fill="#E1C72E"/>
<path d="M4.75805 16.7004L4.75652 16.8055L4.90738 16.7522L4.75805 16.7004Z" fill="white"/>
<path d="M4.86852 19.5857L4.90509 17.0745L4.75347 17.0219L4.71462 19.6931L5.56643 19.9887L5.79728 19.908L4.86852 19.5857Z" fill="white"/>
<path d="M12.0563 22.0832L6.26052 20.0687L6.0289 20.1503L12.054 22.2432L12.0563 22.0832Z" fill="white"/>
<path d="M12.3573 22.3491L12.3588 22.244L12.2079 22.2973L12.3573 22.3491Z" fill="white"/>
<path d="M6.0289 19.9887L5.79728 19.908L5.56643 19.9887L5.79805 20.0695L6.0289 19.9887Z" fill="white"/>
<path d="M6.26052 20.0687L6.0289 19.9887L5.79805 20.0695L6.0289 20.1503L6.26052 20.0687Z" fill="white"/>
<path d="M4.90738 16.9137L5.13824 16.8329L4.90738 16.7522L4.75652 16.8055L4.75347 17.0219L4.90509 17.0745L4.90738 16.9137Z" fill="white"/>
<path d="M9.87957 18.4802L5.13824 16.8329L4.90738 16.9137L9.64795 18.5609L9.87957 18.4802Z" fill="white"/>
<path d="M12.0959 19.3556L12.2468 19.303L10.3428 18.6409L10.1112 18.7217L12.0952 19.4112L12.0959 19.3556Z" fill="white"/>
<path d="M10.1112 18.5609L9.87957 18.4802L9.64795 18.5609L9.87957 18.6417L10.1112 18.5609Z" fill="white"/>
<path d="M10.3428 18.6409L10.1112 18.5609L9.87957 18.6417L10.1112 18.7217L10.3428 18.6409Z" fill="white"/>
<path d="M12.0563 22.0832L12.054 22.2432L12.2079 22.2973L12.3588 22.244L12.3611 22.0825L12.2079 22.1358L12.0563 22.0832Z" fill="white"/>
<path d="M12.2468 19.303L12.0959 19.3556L12.0952 19.4112L12.2468 19.4646L12.3999 19.4105L12.4007 19.3564L12.2468 19.303Z" fill="white"/>
<path d="M12.2445 19.6246L12.2079 22.1358L12.3611 22.0825L12.3977 19.5727L12.2468 19.6253L12.2445 19.6246Z" fill="white"/>
<path d="M12.2468 19.4646L12.2445 19.6246L12.2468 19.6253L12.3977 19.5727L12.3999 19.4105L12.2468 19.4646Z" fill="white"/>
<path d="M5.02243 19.4775L5.05671 17.127L4.90509 17.0745L4.86852 19.5857L5.79728 19.908L6.0289 19.8272L5.02243 19.4775Z" fill="white"/>
<path d="M12.0586 21.9225L6.49214 19.988L6.26052 20.0687L12.0563 22.0832L12.0586 21.9225Z" fill="white"/>
<path d="M6.0289 19.8272L5.79728 19.908L6.0289 19.9887L6.26052 19.908L6.0289 19.8272Z" fill="white"/>
<path d="M6.49214 19.988L6.26052 19.908L6.0289 19.9887L6.26052 20.0687L6.49214 19.988Z" fill="white"/>
<path d="M5.05671 17.127L9.41633 18.6425L9.64795 18.5609L4.90738 16.9137L4.90509 17.0745L5.05671 17.127Z" fill="white"/>
<path d="M10.1112 18.7217L9.87957 18.8032L12.0929 19.572L12.0952 19.4112L10.1112 18.7217Z" fill="white"/>
<path d="M9.87957 18.6417L9.64795 18.5609L9.41633 18.6425L9.64795 18.7225L9.87957 18.6417Z" fill="white"/>
<path d="M10.1112 18.7217L9.87957 18.6417L9.64795 18.7225L9.87957 18.8032L10.1112 18.7217Z" fill="white"/>
<path d="M12.2445 19.6246L12.0929 19.572L12.0586 21.9225L12.0563 22.0832L12.2079 22.1358L12.2445 19.6246Z" fill="white"/>
<path d="M12.0929 19.572L12.2445 19.6246L12.2468 19.4646L12.0952 19.4112L12.0929 19.572Z" fill="white"/>
<path d="M14.326 14.9396V12.9937L10.5264 11.6428L5.36985 13.4463L9.87957 15.0127L12.2011 14.2006L14.326 14.9396Z" fill="#E1C72E"/>
<path d="M14.1059 15.1857L12.2011 14.5236L10.3428 15.1743L12.2468 15.8356L14.1059 15.1857Z" fill="#E1C72E"/>
<path d="M12.2011 14.3621L14.326 15.1011V14.9396L12.2011 14.2006L9.87957 15.0127L10.1112 15.0935L12.2011 14.3621Z" fill="#E1C72E"/>
<path d="M12.2011 14.5236L14.1059 15.1857L14.326 15.108V15.1011L12.2011 14.3621L10.1112 15.0935L10.3428 15.1743L12.2011 14.5236Z" fill="#E1C72E"/>
<path d="M4.44414 13.447L4.75347 13.5545L4.75652 13.3381L4.44414 13.447Z" fill="white"/>
<path d="M5.139 13.3655L10.2971 11.5613L10.0685 11.4798L4.90738 13.2855L5.139 13.3655Z" fill="white"/>
<path d="M9.87957 15.0127L5.36985 13.4463L10.5264 11.6428L10.2971 11.5613L5.139 13.3655L9.87957 15.0127Z" fill="white"/>
<path d="M12.374 17.7282L13.4079 18.087L14.326 17.7663V15.431L12.3977 16.1053L12.374 17.7282Z" fill="#E1C72E"/>
<path d="M12.9447 18.2493L12.3695 18.0489L12.3634 18.4527L12.9447 18.2493Z" fill="#E1C72E"/>
<path d="M13.1763 18.1686L13.4079 18.087L12.374 17.7282L12.3718 17.8889L13.1763 18.1686Z" fill="#E1C72E"/>
<path d="M12.9447 18.2493L13.1763 18.1686L12.3718 17.8889L12.3695 18.0489L12.9447 18.2493Z" fill="#E1C72E"/>
<path d="M13.8704 18.2486L14.326 18.0886V17.9278L13.6388 18.1678L13.8704 18.2486Z" fill="white"/>
<path d="M12.0525 18.884L12.2079 18.8299L12.054 18.7766L12.0525 18.884Z" fill="white"/>
<path d="M12.3588 18.7773L13.4079 18.4101L13.1763 18.3293L12.3611 18.615L12.3588 18.7773Z" fill="white"/>
<path d="M13.6388 18.3293L13.8704 18.2486L13.6388 18.1678L13.4079 18.2486L13.6388 18.3293Z" fill="white"/>
<path d="M13.1763 18.3293L13.4079 18.4101L13.6388 18.3293L13.4079 18.2486L13.1763 18.3293Z" fill="white"/>
<path d="M12.2468 15.8356L12.4007 15.8889L12.3999 15.9438L14.326 15.2695V15.2619L14.1059 15.1857L12.2468 15.8356Z" fill="white"/>
<path d="M14.326 15.2619V15.108L14.1059 15.1857L14.326 15.2619Z" fill="white"/>
<path d="M13.6388 18.1678L14.326 17.9278V17.7663L13.4079 18.087L13.6388 18.1678Z" fill="white"/>
<path d="M12.3634 18.4527L12.3695 18.0489L12.3611 18.615L13.1763 18.3293L12.9447 18.2493L12.3634 18.4527Z" fill="white"/>
<path d="M13.4079 18.2486L13.6388 18.1678L13.4079 18.087L13.1763 18.1686L13.4079 18.2486Z" fill="white"/>
<path d="M13.1763 18.3293L13.4079 18.2486L13.1763 18.1686L12.9447 18.2493L13.1763 18.3293Z" fill="white"/>
<path d="M12.3999 15.9438L12.3977 16.1053L14.326 15.431V15.2695L12.3999 15.9438Z" fill="white"/>
<path d="M5.46966 13.8036L5.05671 13.6596L5.02243 16.0101L6.02966 16.3598L9.41633 15.175L5.46966 13.8036Z" fill="#E1C72E"/>
<path d="M12.0693 17.7145L12.0929 16.1046L9.87957 15.3358L6.49214 16.5206L11.0011 18.0878L12.0693 17.7145Z" fill="#E1C72E"/>
<path d="M11.4643 18.2486L12.0586 18.455L12.0647 18.039L11.4643 18.2486Z" fill="#E1C72E"/>
<path d="M12.067 17.8767L12.0693 17.7145L11.0011 18.0878L11.2327 18.1686L12.067 17.8767Z" fill="#E1C72E"/>
<path d="M12.0647 18.039L12.067 17.8767L11.2327 18.1686L11.4643 18.2486L12.0647 18.039Z" fill="#E1C72E"/>
<path d="M9.41633 15.175L6.02966 16.3598L6.26052 16.4406L9.64795 15.255L9.41633 15.175Z" fill="#E1C72E"/>
<path d="M9.64795 15.255L6.26052 16.4406L6.49214 16.5206L9.87957 15.3358L9.64795 15.255Z" fill="#E1C72E"/>
<path d="M4.75805 13.2337L4.75652 13.3381L4.90738 13.2855L4.75805 13.2337Z" fill="white"/>
<path d="M4.86852 16.1175L4.90509 13.607L4.75347 13.5545L4.71462 16.2257L5.56643 16.5221L5.79805 16.4406L4.86852 16.1175Z" fill="white"/>
<path d="M10.7702 18.1686L6.26128 16.6021L6.02966 16.6828L10.5386 18.2501L10.7702 18.1686Z" fill="white"/>
<path d="M12.0563 18.6158L11.2327 18.3293L11.0019 18.4108L12.054 18.7766L12.0563 18.6158Z" fill="white"/>
<path d="M12.3573 18.8817L12.3588 18.7773L12.2079 18.8299L12.3573 18.8817Z" fill="white"/>
<path d="M10.7702 18.1686L10.5386 18.2501L10.7702 18.3301L11.0011 18.2493L10.7702 18.1686Z" fill="white"/>
<path d="M11.2327 18.3293L11.0011 18.2493L10.7702 18.3301L11.0019 18.4108L11.2327 18.3293Z" fill="white"/>
<path d="M6.02966 16.5213L5.79805 16.4406L5.56643 16.5221L5.79805 16.6021L6.02966 16.5213Z" fill="white"/>
<path d="M6.26128 16.6021L6.02966 16.5213L5.79805 16.6021L6.02966 16.6828L6.26128 16.6021Z" fill="white"/>
<path d="M4.90738 13.447L5.139 13.3655L4.90738 13.2855L4.75652 13.3381L4.75347 13.5545L4.90509 13.607L4.90738 13.447Z" fill="white"/>
<path d="M9.64795 15.0943L9.87957 15.0127L5.139 13.3655L4.90738 13.447L9.64795 15.0943Z" fill="white"/>
<path d="M12.0959 15.8882L12.2468 15.8356L10.3428 15.1743L10.1112 15.255L12.0952 15.9446L12.0959 15.8882Z" fill="white"/>
<path d="M10.1112 15.0935L9.87957 15.0127L9.64795 15.0943L9.87957 15.1743L10.1112 15.0935Z" fill="white"/>
<path d="M10.3428 15.1743L10.1112 15.0935L9.87957 15.1743L10.1112 15.255L10.3428 15.1743Z" fill="white"/>
<path d="M12.2079 18.6684L12.0563 18.6158L12.054 18.7766L12.2079 18.8299L12.3588 18.7773L12.3611 18.615L12.2079 18.6684Z" fill="white"/>
<path d="M12.3999 15.9438L12.4007 15.8889L12.2468 15.8356L12.0959 15.8882L12.0952 15.9446L12.2468 15.9971L12.3999 15.9438Z" fill="white"/>
<path d="M12.2445 16.1571L12.2224 17.6756L12.374 17.7282L12.3977 16.1053L12.2468 16.1587L12.2445 16.1571Z" fill="white"/>
<path d="M12.3611 18.615L12.3695 18.0489L12.2179 17.9964L12.2079 18.6684L12.3611 18.615Z" fill="white"/>
<path d="M12.2201 17.8356L12.3718 17.8889L12.374 17.7282L12.2224 17.6756L12.2201 17.8356Z" fill="white"/>
<path d="M12.3695 18.0489L12.3718 17.8889L12.2201 17.8356L12.2179 17.9964L12.3695 18.0489Z" fill="white"/>
<path d="M12.2468 15.9971L12.2445 16.1571L12.2468 16.1587L12.3977 16.1053L12.3999 15.9438L12.2468 15.9971Z" fill="white"/>
<path d="M5.02243 16.0101L5.05671 13.6596L4.90509 13.607L4.86852 16.1175L5.79805 16.4406L6.02966 16.3598L5.02243 16.0101Z" fill="white"/>
<path d="M11.0011 18.0878L6.49214 16.5206L6.26128 16.6021L10.7702 18.1686L11.0011 18.0878Z" fill="white"/>
<path d="M12.0586 18.455L11.4643 18.2486L11.2327 18.3293L12.0563 18.6158L12.0586 18.455Z" fill="white"/>
<path d="M11.2327 18.1686L11.0011 18.0878L10.7702 18.1686L11.0011 18.2493L11.2327 18.1686Z" fill="white"/>
<path d="M11.2327 18.1686L11.0011 18.2493L11.2327 18.3293L11.4643 18.2486L11.2327 18.1686Z" fill="white"/>
<path d="M6.02966 16.3598L5.79805 16.4406L6.02966 16.5213L6.26052 16.4406L6.02966 16.3598Z" fill="white"/>
<path d="M6.49214 16.5206L6.26052 16.4406L6.02966 16.5213L6.26128 16.6021L6.49214 16.5206Z" fill="white"/>
<path d="M5.05671 13.6596L5.46966 13.8036L9.41633 15.175L9.64795 15.0943L4.90738 13.447L4.90509 13.607L5.05671 13.6596Z" fill="white"/>
<path d="M12.0952 15.9446L10.1112 15.255L9.87957 15.3358L12.0929 16.1046L12.0952 15.9446Z" fill="white"/>
<path d="M9.64795 15.255L9.87957 15.1743L9.64795 15.0943L9.41633 15.175L9.64795 15.255Z" fill="white"/>
<path d="M10.1112 15.255L9.87957 15.1743L9.64795 15.255L9.87957 15.3358L10.1112 15.255Z" fill="white"/>
<path d="M12.0693 17.7145L12.2011 17.668L12.2224 17.6756L12.2445 16.1571L12.0929 16.1046L12.0693 17.7145Z" fill="white"/>
<path d="M12.2179 17.9964L12.2011 17.991L12.0647 18.039L12.0586 18.455L12.0563 18.6158L12.2079 18.6684L12.2179 17.9964Z" fill="white"/>
<path d="M12.2201 17.8356L12.2224 17.6756L12.2011 17.668L12.0693 17.7145L12.067 17.8767L12.2011 17.8295L12.2201 17.8356Z" fill="white"/>
<path d="M12.2011 17.991L12.2179 17.9964L12.2201 17.8356L12.2011 17.8295L12.067 17.8767L12.0647 18.039L12.2011 17.991Z" fill="white"/>
<path d="M12.0952 15.9446L12.0929 16.1046L12.2445 16.1571L12.2468 15.9971L12.0952 15.9446Z" fill="white"/>
<path d="M14.3474 27.5956L3.98547 23.9941V23.9667L4.04033 9.36475L14.4022 12.9663V12.9937L14.3474 27.5956ZM4.06166 23.9385L14.275 27.4874L14.3291 13.0188L4.11957 9.46989L4.06166 23.9385Z" fill="white"/>
</svg>
