<svg width="32" height="32" viewBox="0 0 32 32" fill="none" xmlns="http://www.w3.org/2000/svg">
<path d="M3.53 8.13117L15.9951 3.75098L28.5367 8.12888L28.4707 25.943L16.0064 30.3239L3.46326 25.946L3.53 8.13117Z" fill="#C0C0C0"/>
<path fill-rule="evenodd" clip-rule="evenodd" d="M15.995 3.5896L28.6896 8.02089L28.6228 26.0512L16.0067 30.4855L3.31055 26.0542L3.3781 8.02314L15.995 3.5896ZM15.9953 3.91251L3.68206 8.23936L3.61612 25.838L16.0063 30.1626L28.3188 25.835L28.384 8.23703L15.9953 3.91251Z" fill="white"/>
<path fill-rule="evenodd" clip-rule="evenodd" d="M16.268 20.9393L16.1273 20.8877L16.2322 20.6016L16.3729 20.6531L16.268 20.9393ZM16.8307 21.1456L16.5493 21.0424L16.6542 20.7563L16.9356 20.8595L16.8307 21.1456ZM17.3933 21.3519L17.112 21.2487L17.2169 20.9626L17.4982 21.0658L17.3933 21.3519ZM17.956 21.5582L17.6747 21.4551L17.7796 21.1689L18.0609 21.2721L17.956 21.5582ZM18.5187 21.7645L18.2373 21.6614L18.3422 21.3752L18.6236 21.4784L18.5187 21.7645ZM19.0813 21.9708L18.8 21.8677L18.9049 21.5815L19.1862 21.6847L19.0813 21.9708ZM19.644 22.1771L19.3627 22.074L19.4676 21.7878L19.7489 21.891L19.644 22.1771ZM20.2067 22.3834L19.9253 22.2803L20.0302 21.9942L20.3116 22.0973L20.2067 22.3834ZM20.7693 22.5898L20.488 22.4866L20.5929 22.2005L20.8743 22.3036L20.7693 22.5898ZM21.332 22.7961L21.0507 22.6929L21.1556 22.4068L21.4369 22.5099L21.332 22.7961ZM21.8947 23.0024L21.6133 22.8992L21.7183 22.6131L21.9996 22.7162L21.8947 23.0024ZM22.4573 23.2087L22.176 23.1055L22.2809 22.8194L22.5623 22.9226L22.4573 23.2087ZM23.02 23.415L22.7387 23.3118L22.8436 23.0257L23.1249 23.1289L23.02 23.415ZM23.5827 23.6213L23.3013 23.5182L23.4063 23.232L23.6876 23.3352L23.5827 23.6213ZM24.1454 23.8276L23.864 23.7245L23.9689 23.4383L24.2503 23.5415L24.1454 23.8276ZM24.708 24.0339L24.4267 23.9308L24.5316 23.6446L24.8129 23.7478L24.708 24.0339ZM25.2707 24.2402L24.9894 24.1371L25.0943 23.851L25.3756 23.9541L25.2707 24.2402ZM25.8334 24.4466L25.552 24.3434L25.6569 24.0573L25.9383 24.1604L25.8334 24.4466ZM26.396 24.6529L26.1147 24.5497L26.2196 24.2636L26.5009 24.3667L26.396 24.6529ZM26.9587 24.8592L26.6774 24.756L26.7823 24.4699L27.0636 24.573L26.9587 24.8592ZM27.5214 25.0655L27.24 24.9623L27.3449 24.6762L27.6263 24.7794L27.5214 25.0655ZM28.084 25.2718L27.8027 25.1686L27.9076 24.8825L28.189 24.9857L28.084 25.2718ZM28.6467 25.4781L28.3654 25.375L28.4703 25.0888L28.7516 25.192L28.6467 25.4781ZM29.0687 25.6328L28.928 25.5813L29.033 25.2951L29.1736 25.3467L29.0687 25.6328Z" fill="white"/>
<path fill-rule="evenodd" clip-rule="evenodd" d="M16.2323 20.8877L16.0917 20.9392L15.9867 20.6531L16.1273 20.6016L16.2323 20.8877ZM15.8106 21.0424L15.5295 21.1456L15.4245 20.8595L15.7056 20.7563L15.8106 21.0424ZM15.2485 21.2487L14.9674 21.3519L14.8624 21.0658L15.1435 20.9626L15.2485 21.2487ZM14.6863 21.455L14.4052 21.5582L14.3002 21.2721L14.5813 21.1689L14.6863 21.455ZM14.1241 21.6613L13.843 21.7645L13.738 21.4784L14.0191 21.3752L14.1241 21.6613ZM13.5619 21.8676L13.2809 21.9708L13.1759 21.6847L13.4569 21.5815L13.5619 21.8676ZM12.9998 22.074L12.7187 22.1771L12.6137 21.891L12.8948 21.7878L12.9998 22.074ZM12.4376 22.2803L12.1565 22.3834L12.0515 22.0973L12.3326 21.9942L12.4376 22.2803ZM11.8754 22.4866L11.5943 22.5897L11.4893 22.3036L11.7704 22.2005L11.8754 22.4866ZM11.3132 22.6929L11.0322 22.796L10.9272 22.5099L11.2082 22.4068L11.3132 22.6929ZM10.7511 22.8992L10.47 23.0023L10.365 22.7162L10.6461 22.6131L10.7511 22.8992ZM10.1889 23.1055L9.90781 23.2087L9.80281 22.9226L10.0839 22.8194L10.1889 23.1055ZM9.62672 23.3118L9.34563 23.415L9.24064 23.1289L9.52172 23.0257L9.62672 23.3118ZM9.06455 23.5181L8.78346 23.6213L8.67846 23.3352L8.95955 23.232L9.06455 23.5181ZM8.50237 23.7244L8.22128 23.8276L8.11629 23.5415L8.39738 23.4383L8.50237 23.7244ZM7.9402 23.9307L7.65911 24.0339L7.55411 23.7478L7.8352 23.6446L7.9402 23.9307ZM7.37802 24.1371L7.09694 24.2402L6.99194 23.9541L7.27303 23.851L7.37802 24.1371ZM6.81585 24.3434L6.53476 24.4465L6.42977 24.1604L6.71085 24.0573L6.81585 24.3434ZM6.25368 24.5497L5.97259 24.6528L5.86759 24.3667L6.14868 24.2636L6.25368 24.5497ZM5.6915 24.756L5.41042 24.8591L5.30542 24.573L5.58651 24.4699L5.6915 24.756ZM5.12933 24.9623L4.84824 25.0655L4.74324 24.7794L5.02433 24.6762L5.12933 24.9623ZM4.56715 25.1686L4.28607 25.2718L4.18107 24.9857L4.46216 24.8825L4.56715 25.1686ZM4.00498 25.3749L3.72389 25.4781L3.6189 25.192L3.89998 25.0888L4.00498 25.3749ZM3.44281 25.5812L3.30226 25.6328L3.19727 25.3467L3.33781 25.2951L3.44281 25.5812Z" fill="white"/>
<path fill-rule="evenodd" clip-rule="evenodd" d="M15.9993 5.30543V5.1521H16.304V5.30543H15.9993ZM15.9993 5.91873V5.61208H16.304V5.91873H15.9993ZM15.9993 6.53204V6.22539H16.304V6.53204H15.9993ZM15.9993 7.14535V6.8387H16.304V7.14535H15.9993ZM15.9993 7.75866V7.452H16.304V7.75866H15.9993ZM15.9993 8.37197V8.06531H16.304V8.37197H15.9993ZM15.9993 8.98527V8.67862H16.304V8.98527H15.9993ZM15.9993 9.59858V9.29193H16.304V9.59858H15.9993ZM15.9993 10.2119V9.90524H16.304V10.2119H15.9993ZM15.9993 10.8252V10.5185H16.304V10.8252H15.9993ZM15.9993 11.4385V11.1319H16.304V11.4385H15.9993ZM15.9993 12.0518V11.7452H16.304V12.0518H15.9993ZM15.9993 12.6651V12.3585H16.304V12.6651H15.9993ZM15.9993 13.2784V12.9718H16.304V13.2784H15.9993ZM15.9993 13.8917V13.5851H16.304V13.8917H15.9993ZM15.9993 14.505V14.1984H16.304V14.505H15.9993ZM15.9993 15.1184V14.8117H16.304V15.1184H15.9993ZM15.9993 15.7317V15.425H16.304V15.7317H15.9993ZM15.9993 16.345V16.0383H16.304V16.345H15.9993ZM15.9993 16.9583V16.6516H16.304V16.9583H15.9993ZM15.9993 17.5716V17.2649H16.304V17.5716H15.9993ZM15.9993 18.1849V17.8782H16.304V18.1849H15.9993ZM15.9993 18.7982V18.4915H16.304V18.7982H15.9993ZM15.9993 19.4115V19.1048H16.304V19.4115H15.9993ZM15.9993 20.0248V19.7182H16.304V20.0248H15.9993ZM15.9993 20.6381V20.3315H16.304V20.6381H15.9993ZM15.9993 21.2514V20.9448H16.304V21.2514H15.9993ZM15.9993 21.8647V21.5581H16.304V21.8647H15.9993ZM15.9993 22.478V22.1714H16.304V22.478H15.9993ZM15.9993 23.0913V22.7847H16.304V23.0913H15.9993ZM15.9993 23.5513V23.398H16.304V23.5513H15.9993Z" fill="white"/>
<path d="M18.9013 2.64111L16.1517 3.60721L13.3855 2.64188L16.135 1.67578L18.9013 2.64111Z" fill="#BEDC94"/>
<path d="M18.9013 2.64111L18.8868 6.57026L16.1373 7.53635L16.1517 3.60721L18.9013 2.64111Z" fill="#BEDC94"/>
<path d="M16.1517 3.60721L16.1373 7.53635L13.3711 6.57102L13.3855 2.64188L16.1517 3.60721Z" fill="#BEDC94"/>
<path fill-rule="evenodd" clip-rule="evenodd" d="M16.1348 1.5144L19.054 2.53311L19.0388 6.67844L16.1374 7.69788L13.2183 6.67917L13.2335 2.53384L16.1348 1.5144ZM16.1352 1.83731L13.8465 2.64146L16.1515 3.44583L18.4401 2.64168L16.1352 1.83731ZM18.748 2.85652L16.3037 3.7154L16.2904 7.3211L18.7348 6.46222L18.748 2.85652ZM15.9857 7.32213L15.9989 3.71536L13.537 2.85625L13.5238 6.46302L15.9857 7.32213Z" fill="white"/>
<path d="M6.29212 24.1609L3.54259 25.127L0.776374 24.1617L3.52591 23.1956L6.29212 24.1609Z" fill="#BEDC94"/>
<path d="M6.29212 24.1609L6.27695 28.09L3.52818 29.0561L3.54259 25.127L6.29212 24.1609Z" fill="#BEDC94"/>
<path d="M3.54259 25.127L3.52818 29.0561L0.761963 28.0908L0.776374 24.1617L3.54259 25.127Z" fill="#BEDC94"/>
<path fill-rule="evenodd" clip-rule="evenodd" d="M3.52568 23.0342L6.44487 24.0529L6.42887 28.1982L3.52831 29.2177L0.609131 28.1989L0.624335 24.0536L3.52568 23.0342ZM3.52602 23.3571L1.23739 24.1612L3.54237 24.9656L5.831 24.1615L3.52602 23.3571ZM6.13886 24.3763L3.69452 25.2352L3.6813 28.8409L6.12494 27.982L6.13886 24.3763ZM3.37653 28.8419L3.38976 25.2351L0.927917 24.376L0.914688 27.9828L3.37653 28.8419Z" fill="white"/>
<path d="M31.238 23.9888L28.4893 24.9549L25.7231 23.9895L28.4718 23.0234L31.238 23.9888Z" fill="#BEDC94"/>
<path d="M31.238 23.9888L31.2236 27.9179L28.4741 28.884L28.4893 24.9549L31.238 23.9888Z" fill="#BEDC94"/>
<path d="M28.4893 24.9549L28.4741 28.884L25.7079 27.9187L25.7231 23.9895L28.4893 24.9549Z" fill="#BEDC94"/>
<path fill-rule="evenodd" clip-rule="evenodd" d="M28.4717 22.8618L31.3909 23.8805L31.3757 28.0259L28.4744 29.0453L25.5552 28.0266L25.5712 23.8813L28.4717 22.8618ZM28.4721 23.1847L26.1842 23.9889L28.4892 24.7932L30.7771 23.9891L28.4721 23.1847ZM31.085 24.204L28.6413 25.0628L28.6274 28.6685L31.0717 27.8096L31.085 24.204ZM28.3226 28.6696L28.3366 25.0628L25.8747 24.2036L25.8608 27.8104L28.3226 28.6696Z" fill="white"/>
<path d="M22.8536 13.4523L16.1038 15.8242L9.31153 13.4539L16.0613 11.0813L22.8536 13.4523Z" fill="#E1C72E"/>
<path d="M22.8536 13.4523L22.8172 23.0996L16.0674 25.4714L16.1038 15.8242L22.8536 13.4523Z" fill="#E1C72E"/>
<path d="M16.1038 15.8242L16.0674 25.4714L9.27588 23.1011L9.31153 13.4539L16.1038 15.8242Z" fill="#E1C72E"/>
<path fill-rule="evenodd" clip-rule="evenodd" d="M16.0612 10.9199L23.0065 13.3444L22.9693 23.2078L16.0677 25.6329L9.12317 23.2093L9.15962 13.3459L16.0612 10.9199ZM16.0616 11.2428L9.7726 13.4534L16.1037 15.6628L22.3927 13.4529L16.0616 11.2428ZM22.7005 13.6678L16.2559 15.9324L16.2207 25.2561L22.6653 22.9916L22.7005 13.6678ZM15.9159 25.2572L15.9511 15.9323L9.46319 13.6682L9.42873 22.9931L15.9159 25.2572Z" fill="white"/>
</svg>
