<svg width="32" height="32" viewBox="0 0 32 32" fill="none" xmlns="http://www.w3.org/2000/svg">
<path d="M30.1334 6.0019L16.0816 10.9177L1.94213 6.00419L15.9939 1.08838L30.1334 6.0019Z" fill="#D1D1D1"/>
<path d="M30.1334 6.0019L30.0587 25.995L16.0069 30.9116L16.0816 10.9177L30.1334 6.0019Z" fill="#D1D1D1"/>
<path d="M16.0816 10.9177L16.0069 30.9116L1.8667 25.9981L1.94213 6.00419L16.0816 10.9177Z" fill="#D1D1D1"/>
<path fill-rule="evenodd" clip-rule="evenodd" d="M15.9937 0.927002L16.08 0.956977L16.0142 1.14635L16.0442 1.23221L16.0084 1.24476L15.9941 1.20406L15.9799 1.24485L15.9439 1.23232L15.9738 1.14609L15.9077 0.957089L15.9937 0.927002ZM16.1242 1.29499L16.0521 1.26992L16.1521 0.982046L16.2243 1.00711L16.1242 1.29499ZM15.9367 1.26984L15.865 1.29492L15.7643 1.00725L15.836 0.98217L15.9367 1.26984ZM16.2685 1.34513L16.1964 1.32006L16.2964 1.03218L16.3685 1.05725L16.2685 1.34513ZM15.7933 1.32L15.7216 1.34508L15.621 1.05741L15.6926 1.03233L15.7933 1.32ZM16.4128 1.39527L16.3406 1.3702L16.4407 1.08232L16.5128 1.10739L16.4128 1.39527ZM15.6499 1.37016L15.5782 1.39524L15.4776 1.10757L15.5493 1.08249L15.6499 1.37016ZM16.5571 1.4454L16.4849 1.42033L16.585 1.13246L16.6571 1.15753L16.5571 1.4454ZM15.5065 1.42032L15.4348 1.4454L15.3342 1.15773L15.4059 1.13265L15.5065 1.42032ZM16.7013 1.49554L16.6292 1.47047L16.7292 1.1826L16.8014 1.20767L16.7013 1.49554ZM15.3631 1.47048L15.2914 1.49556L15.1908 1.2079L15.2625 1.18281L15.3631 1.47048ZM16.8456 1.54568L16.7735 1.52061L16.8735 1.23274L16.9457 1.2578L16.8456 1.54568ZM15.2197 1.52064L15.148 1.54572L15.0474 1.25806L15.1191 1.23298L15.2197 1.52064ZM16.9899 1.59582L16.9178 1.57075L17.0178 1.28287L17.0899 1.30794L16.9899 1.59582ZM15.0764 1.5708L15.0047 1.59588L14.904 1.30822L14.9757 1.28314L15.0764 1.5708ZM17.1342 1.64596L17.062 1.62089L17.1621 1.33301L17.2342 1.35808L17.1342 1.64596ZM14.933 1.62097L14.8613 1.64605L14.7606 1.35838L14.8323 1.3333L14.933 1.62097ZM17.2785 1.69609L17.2063 1.67102L17.3064 1.38315L17.3785 1.40822L17.2785 1.69609ZM14.7896 1.67113L14.7179 1.69621L14.6173 1.40854L14.6889 1.38346L14.7896 1.67113ZM17.4227 1.74623L17.3506 1.72116L17.4506 1.43329L17.5228 1.45836L17.4227 1.74623ZM14.6462 1.72129L14.5745 1.74637L14.4739 1.4587L14.5456 1.43362L14.6462 1.72129ZM17.567 1.79637L17.4949 1.7713L17.5949 1.48343L17.6671 1.50849L17.567 1.79637ZM14.5028 1.77145L14.4311 1.79653L14.3305 1.50886L14.4022 1.48378L14.5028 1.77145ZM17.7113 1.84651L17.6392 1.82144L17.7392 1.53356L17.8113 1.55863L17.7113 1.84651ZM14.3594 1.82161L14.2877 1.84669L14.1871 1.55902L14.2588 1.53394L14.3594 1.82161ZM17.8556 1.89665L17.7834 1.87158L17.8835 1.5837L17.9556 1.60877L17.8556 1.89665ZM14.216 1.87177L14.1443 1.89685L14.0437 1.60919L14.1154 1.58411L14.216 1.87177ZM17.9999 1.94678L17.9277 1.92171L18.0278 1.63384L18.0999 1.65891L17.9999 1.94678ZM14.0727 1.92193L14.001 1.94701L13.9003 1.65935L13.972 1.63427L14.0727 1.92193ZM18.1441 1.99692L18.072 1.97185L18.172 1.68398L18.2442 1.70905L18.1441 1.99692ZM13.9293 1.97209L13.8576 1.99718L13.7569 1.70951L13.8286 1.68443L13.9293 1.97209ZM18.2884 2.04706L18.2163 2.02199L18.3163 1.73412L18.3885 1.75918L18.2884 2.04706ZM13.7859 2.02226L13.7142 2.04734L13.6136 1.75967L13.6852 1.73459L13.7859 2.02226ZM18.4327 2.0972L18.3606 2.07213L18.4606 1.78425L18.5327 1.80932L18.4327 2.0972ZM13.6425 2.07242L13.5708 2.0975L13.4702 1.80983L13.5419 1.78475L13.6425 2.07242ZM18.577 2.14734L18.5048 2.12227L18.6049 1.83439L18.677 1.85946L18.577 2.14734ZM13.4991 2.12258L13.4274 2.14766L13.3268 1.85999L13.3985 1.83491L13.4991 2.12258ZM18.7213 2.19747L18.6491 2.1724L18.7492 1.88453L18.8213 1.9096L18.7213 2.19747ZM13.3557 2.17274L13.284 2.19782L13.1834 1.91015L13.2551 1.88507L13.3557 2.17274ZM18.8655 2.24761L18.7934 2.22254L18.8934 1.93467L18.9656 1.95974L18.8655 2.24761ZM13.2123 2.2229L13.1406 2.24798L13.04 1.96031L13.1117 1.93523L13.2123 2.2229ZM19.0098 2.29775L18.9377 2.27268L19.0377 1.98481L19.1099 2.00987L19.0098 2.29775ZM13.069 2.27306L12.9973 2.29814L12.8966 2.01048L12.9683 1.9854L13.069 2.27306ZM19.1541 2.34789L19.082 2.32282L19.182 2.03494L19.2541 2.06001L19.1541 2.34789ZM12.9256 2.32322L12.8539 2.3483L12.7532 2.06064L12.8249 2.03556L12.9256 2.32322ZM19.2984 2.39803L19.2262 2.37296L19.3263 2.08508L19.3984 2.11015L19.2984 2.39803ZM12.7822 2.37338L12.7105 2.39847L12.6099 2.1108L12.6815 2.08572L12.7822 2.37338ZM19.4427 2.44816L19.3705 2.42309L19.4706 2.13522L19.5427 2.16029L19.4427 2.44816ZM12.6388 2.42355L12.5671 2.44863L12.4665 2.16096L12.5382 2.13588L12.6388 2.42355ZM19.5869 2.4983L19.5148 2.47323L19.6148 2.18536L19.687 2.21043L19.5869 2.4983ZM12.4954 2.47371L12.4237 2.49879L12.3231 2.21112L12.3948 2.18604L12.4954 2.47371ZM19.7312 2.54844L19.6591 2.52337L19.7591 2.2355L19.8313 2.26056L19.7312 2.54844ZM12.352 2.52387L12.2803 2.54895L12.1797 2.26128L12.2514 2.2362L12.352 2.52387ZM19.8755 2.59858L19.8034 2.57351L19.9034 2.28563L19.9755 2.3107L19.8755 2.59858ZM12.2086 2.57403L12.1369 2.59911L12.0363 2.31144L12.108 2.28636L12.2086 2.57403ZM20.0198 2.64872L19.9476 2.62365L20.0477 2.33577L20.1198 2.36084L20.0198 2.64872ZM12.0653 2.62419L11.9936 2.64927L11.8929 2.36161L11.9646 2.33652L12.0653 2.62419ZM20.1641 2.69885L20.0919 2.67378L20.192 2.38591L20.2641 2.41098L20.1641 2.69885ZM11.9219 2.67435L11.8502 2.69943L11.7495 2.41177L11.8212 2.38669L11.9219 2.67435ZM20.3083 2.74899L20.2362 2.72392L20.3362 2.43605L20.4084 2.46112L20.3083 2.74899ZM11.7785 2.72451L11.7068 2.74959L11.6062 2.46193L11.6778 2.43685L11.7785 2.72451ZM20.4526 2.79913L20.3805 2.77406L20.4805 2.48618L20.5527 2.51125L20.4526 2.79913ZM11.6351 2.77467L11.5634 2.79976L11.4628 2.51209L11.5345 2.48701L11.6351 2.77467ZM20.5969 2.84927L20.5248 2.8242L20.6248 2.53632L20.6969 2.56139L20.5969 2.84927ZM11.4917 2.82484L11.42 2.84992L11.3194 2.56225L11.3911 2.53717L11.4917 2.82484ZM20.7412 2.89941L20.669 2.87434L20.7691 2.58646L20.8412 2.61153L20.7412 2.89941ZM11.3483 2.875L11.2766 2.90008L11.176 2.61241L11.2477 2.58733L11.3483 2.875ZM20.8855 2.94954L20.8133 2.92447L20.9134 2.6366L20.9855 2.66167L20.8855 2.94954ZM11.2049 2.92516L11.1332 2.95024L11.0326 2.66257L11.1043 2.63749L11.2049 2.92516ZM21.0297 2.99968L20.9576 2.97461L21.0576 2.68674L21.1298 2.71181L21.0297 2.99968ZM11.0616 2.97532L10.9899 3.0004L10.8892 2.71273L10.9609 2.68765L11.0616 2.97532ZM21.174 3.04982L21.1019 3.02475L21.2019 2.73688L21.2741 2.76194L21.174 3.04982ZM10.9182 3.02548L10.8465 3.05056L10.7458 2.7629L10.8175 2.73781L10.9182 3.02548ZM21.3183 3.09996L21.2462 3.07489L21.3462 2.78701L21.4183 2.81208L21.3183 3.09996ZM10.7748 3.07564L10.7031 3.10072L10.6025 2.81306L10.6741 2.78798L10.7748 3.07564ZM21.4626 3.1501L21.3904 3.12503L21.4905 2.83715L21.5626 2.86222L21.4626 3.1501ZM10.6314 3.1258L10.5597 3.15088L10.4591 2.86322L10.5308 2.83814L10.6314 3.1258ZM21.6069 3.20023L21.5347 3.17517L21.6348 2.88729L21.7069 2.91236L21.6069 3.20023ZM10.488 3.17597L10.4163 3.20105L10.3157 2.91338L10.3874 2.8883L10.488 3.17597ZM21.7511 3.25037L21.679 3.2253L21.779 2.93743L21.8512 2.9625L21.7511 3.25037ZM10.3446 3.22613L10.2729 3.25121L10.1723 2.96354L10.244 2.93846L10.3446 3.22613ZM21.8954 3.30051L21.8233 3.27544L21.9233 2.98757L21.9955 3.01263L21.8954 3.30051ZM10.2012 3.27629L10.1295 3.30137L10.0289 3.0137L10.1006 2.98862L10.2012 3.27629ZM22.0397 3.35065L21.9676 3.32558L22.0676 3.0377L22.1397 3.06277L22.0397 3.35065ZM10.0579 3.32645L9.98616 3.35153L9.88552 3.06386L9.95722 3.03878L10.0579 3.32645ZM22.184 3.40079L22.1118 3.37572L22.2119 3.08784L22.284 3.11291L22.184 3.40079ZM9.91447 3.37661L9.84277 3.40169L9.74214 3.11402L9.81383 3.08894L9.91447 3.37661ZM22.3283 3.45092L22.2561 3.42586L22.3562 3.13798L22.4283 3.16305L22.3283 3.45092ZM9.77108 3.42677L9.69939 3.45185L9.59875 3.16419L9.67045 3.1391L9.77108 3.42677ZM22.4725 3.50106L22.4004 3.47599L22.5004 3.18812L22.5726 3.21319L22.4725 3.50106ZM9.62769 3.47693L9.556 3.50201L9.45537 3.21435L9.52706 3.18927L9.62769 3.47693ZM22.6168 3.5512L22.5447 3.52613L22.6447 3.23826L22.7169 3.26333L22.6168 3.5512ZM9.48431 3.52709L9.41262 3.55217L9.31198 3.26451L9.38367 3.23943L9.48431 3.52709ZM22.7611 3.60134L22.689 3.57627L22.789 3.28839L22.8611 3.31346L22.7611 3.60134ZM9.34092 3.57726L9.26923 3.60234L9.1686 3.31467L9.24029 3.28959L9.34092 3.57726ZM22.9054 3.65148L22.8332 3.62641L22.9333 3.33853L23.0054 3.3636L22.9054 3.65148ZM9.19754 3.62742L9.12584 3.6525L9.02521 3.36483L9.0969 3.33975L9.19754 3.62742ZM23.0497 3.70161L22.9775 3.67655L23.0776 3.38867L23.1497 3.41374L23.0497 3.70161ZM9.05415 3.67758L8.98246 3.70266L8.88182 3.41499L8.95352 3.38991L9.05415 3.67758ZM23.1939 3.75175L23.1218 3.72668L23.2218 3.43881L23.294 3.46388L23.1939 3.75175ZM8.91077 3.72774L8.83907 3.75282L8.73844 3.46515L8.81013 3.44007L8.91077 3.72774ZM23.3382 3.80189L23.2661 3.77682L23.3661 3.48895L23.4383 3.51402L23.3382 3.80189ZM8.76738 3.7779L8.69569 3.80298L8.59505 3.51531L8.66674 3.49023L8.76738 3.7779ZM23.4825 3.85203L23.4104 3.82696L23.5104 3.53909L23.5825 3.56415L23.4825 3.85203ZM8.62399 3.82806L8.5523 3.85314L8.45167 3.56548L8.52336 3.5404L8.62399 3.82806ZM23.6268 3.90217L23.5546 3.8771L23.6547 3.58922L23.7268 3.61429L23.6268 3.90217ZM8.48061 3.87822L8.40892 3.9033L8.30828 3.61564L8.37997 3.59056L8.48061 3.87822ZM23.7711 3.95231L23.6989 3.92724L23.799 3.63936L23.8711 3.66443L23.7711 3.95231ZM8.33722 3.92838L8.26553 3.95347L8.16489 3.6658L8.23659 3.64072L8.33722 3.92838ZM23.9153 4.00244L23.8432 3.97737L23.9432 3.6895L24.0154 3.71457L23.9153 4.00244ZM8.19384 3.97855L8.12215 4.00363L8.02151 3.71596L8.0932 3.69088L8.19384 3.97855ZM24.0596 4.05258L23.9875 4.02751L24.0875 3.73964L24.1597 3.76471L24.0596 4.05258ZM8.05045 4.02871L7.97876 4.05379L7.87812 3.76612L7.94982 3.74104L8.05045 4.02871ZM24.2039 4.10272L24.1318 4.07765L24.2318 3.78978L24.3039 3.81484L24.2039 4.10272ZM7.90707 4.07887L7.83537 4.10395L7.73474 3.81628L7.80643 3.7912L7.90707 4.07887ZM24.3482 4.15286L24.276 4.12779L24.3761 3.83991L24.4482 3.86498L24.3482 4.15286ZM7.76368 4.12903L7.69199 4.15411L7.59135 3.86644L7.66304 3.84136L7.76368 4.12903ZM24.4925 4.203L24.4203 4.17793L24.5204 3.89005L24.5925 3.91512L24.4925 4.203ZM7.62029 4.17919L7.5486 4.20427L7.44797 3.9166L7.51966 3.89152L7.62029 4.17919ZM24.6367 4.25313L24.5646 4.22807L24.6646 3.94019L24.7368 3.96526L24.6367 4.25313ZM7.47691 4.22935L7.40522 4.25443L7.30458 3.96677L7.37627 3.94169L7.47691 4.22935ZM24.781 4.30327L24.7089 4.2782L24.8089 3.99033L24.8811 4.0154L24.781 4.30327ZM7.33352 4.27951L7.26183 4.30459L7.16119 4.01693L7.23289 3.99185L7.33352 4.27951ZM24.9253 4.35341L24.8532 4.32834L24.9532 4.04047L25.0253 4.06554L24.9253 4.35341ZM7.19014 4.32967L7.11844 4.35476L7.01781 4.06709L7.0895 4.04201L7.19014 4.32967ZM25.0696 4.40355L24.9974 4.37848L25.0975 4.0906L25.1696 4.11567L25.0696 4.40355ZM7.04675 4.37984L6.97506 4.40492L6.87442 4.11725L6.94612 4.09217L7.04675 4.37984ZM25.2139 4.45369L25.1417 4.42862L25.2418 4.14074L25.3139 4.16581L25.2139 4.45369ZM6.90337 4.43L6.83167 4.45508L6.73104 4.16741L6.80273 4.14233L6.90337 4.43ZM25.3581 4.50383L25.286 4.47876L25.386 4.19088L25.4582 4.21595L25.3581 4.50383ZM6.75998 4.48016L6.68829 4.50524L6.58765 4.21757L6.65934 4.19249L6.75998 4.48016ZM25.5024 4.55396L25.4303 4.52889L25.5303 4.24102L25.6025 4.26609L25.5024 4.55396ZM6.61659 4.53032L6.5449 4.5554L6.44427 4.26773L6.51596 4.24265L6.61659 4.53032ZM25.6467 4.6041L25.5746 4.57903L25.6746 4.29116L25.7467 4.31623L25.6467 4.6041ZM6.47321 4.58048L6.40152 4.60556L6.30088 4.31789L6.37257 4.29281L6.47321 4.58048ZM25.791 4.65424L25.7188 4.62917L25.8189 4.3413L25.891 4.36636L25.791 4.65424ZM6.32982 4.63064L6.25813 4.65572L6.15749 4.36806L6.22919 4.34298L6.32982 4.63064ZM25.9353 4.70438L25.8631 4.67931L25.9632 4.39143L26.0353 4.4165L25.9353 4.70438ZM6.18644 4.6808L6.11474 4.70588L6.01411 4.41822L6.0858 4.39314L6.18644 4.6808ZM26.0795 4.75452L26.0074 4.72945L26.1074 4.44157L26.1796 4.46664L26.0795 4.75452ZM6.04305 4.73097L5.97136 4.75605L5.87072 4.46838L5.94242 4.4433L6.04305 4.73097ZM26.2238 4.80465L26.1517 4.77959L26.2517 4.49171L26.3239 4.51678L26.2238 4.80465ZM5.89967 4.78113L5.82797 4.80621L5.72734 4.51854L5.79903 4.49346L5.89967 4.78113ZM26.3681 4.85479L26.296 4.82972L26.396 4.54185L26.4681 4.56692L26.3681 4.85479ZM5.75628 4.83129L5.68459 4.85637L5.58395 4.5687L5.65564 4.54362L5.75628 4.83129ZM26.5124 4.90493L26.4403 4.87986L26.5403 4.59199L26.6124 4.61705L26.5124 4.90493ZM5.61289 4.88145L5.5412 4.90653L5.44057 4.61886L5.51226 4.59378L5.61289 4.88145ZM26.6567 4.95507L26.5845 4.93L26.6846 4.64212L26.7567 4.66719L26.6567 4.95507ZM5.46951 4.93161L5.39782 4.95669L5.29718 4.66902L5.36887 4.64394L5.46951 4.93161ZM26.801 5.00521L26.7288 4.98014L26.8288 4.69226L26.901 4.71733L26.801 5.00521ZM5.32612 4.98177L5.25443 5.00685L5.15379 4.71919L5.22549 4.6941L5.32612 4.98177ZM26.9452 5.05534L26.8731 5.03028L26.9731 4.7424L27.0453 4.76747L26.9452 5.05534ZM5.18274 5.03193L5.11104 5.05701L5.01041 4.76935L5.0821 4.74427L5.18274 5.03193ZM27.0895 5.10548L27.0174 5.08041L27.1174 4.79254L27.1895 4.81761L27.0895 5.10548ZM5.03935 5.08209L4.96766 5.10717L4.86702 4.81951L4.93872 4.79443L5.03935 5.08209ZM27.2338 5.15562L27.1617 5.13055L27.2617 4.84268L27.3338 4.86775L27.2338 5.15562ZM4.89597 5.13226L4.82427 5.15734L4.72364 4.86967L4.79533 4.84459L4.89597 5.13226ZM27.3781 5.20576L27.3059 5.18069L27.406 4.89281L27.4781 4.91788L27.3781 5.20576ZM4.75258 5.18242L4.68089 5.2075L4.58025 4.91983L4.65194 4.89475L4.75258 5.18242ZM27.5224 5.2559L27.4502 5.23083L27.5503 4.94295L27.6224 4.96802L27.5224 5.2559ZM4.60919 5.23258L4.5375 5.25766L4.43687 4.96999L4.50856 4.94491L4.60919 5.23258ZM27.6666 5.30604L27.5945 5.28097L27.6945 4.99309L27.7667 5.01816L27.6666 5.30604ZM4.46581 5.28274L4.39412 5.30782L4.29348 5.02015L4.36517 4.99507L4.46581 5.28274ZM27.8109 5.35617L27.7388 5.3311L27.8388 5.04323L27.911 5.0683L27.8109 5.35617ZM4.32242 5.3329L4.25073 5.35798L4.15009 5.07031L4.22179 5.04523L4.32242 5.3329ZM27.9552 5.40631L27.8831 5.38124L27.9831 5.09337L28.0552 5.11844L27.9552 5.40631ZM4.17904 5.38306L4.10734 5.40814L4.00671 5.12048L4.0784 5.0954L4.17904 5.38306ZM28.0995 5.45645L28.0273 5.43138L28.1274 5.14351L28.1995 5.16857L28.0995 5.45645ZM4.03565 5.43322L3.96396 5.4583L3.86332 5.17064L3.93502 5.14556L4.03565 5.43322ZM28.2438 5.50659L28.1716 5.48152L28.2717 5.19364L28.3438 5.21871L28.2438 5.50659ZM3.89227 5.48338L3.82057 5.50847L3.71994 5.2208L3.79163 5.19572L3.89227 5.48338ZM28.388 5.55673L28.3159 5.53166L28.4159 5.24378L28.4881 5.26885L28.388 5.55673ZM3.74888 5.53355L3.67719 5.55863L3.57655 5.27096L3.64824 5.24588L3.74888 5.53355ZM28.5323 5.60686L28.4602 5.58179L28.5602 5.29392L28.6324 5.31899L28.5323 5.60686ZM3.60549 5.58371L3.5338 5.60879L3.43317 5.32112L3.50486 5.29604L3.60549 5.58371ZM28.6766 5.657L28.6045 5.63193L28.7045 5.34406L28.7766 5.36913L28.6766 5.657ZM3.46211 5.63387L3.39042 5.65895L3.28978 5.37128L3.36147 5.3462L3.46211 5.63387ZM28.8209 5.70714L28.7487 5.68207L28.8488 5.3942L28.9209 5.41927L28.8209 5.70714ZM3.31872 5.68403L3.24703 5.70911L3.14639 5.42144L3.21809 5.39636L3.31872 5.68403ZM28.9652 5.75728L28.893 5.73221L28.9931 5.44433L29.0652 5.4694L28.9652 5.75728ZM3.17534 5.73419L3.10364 5.75927L3.00301 5.4716L3.0747 5.44652L3.17534 5.73419ZM29.1094 5.80742L29.0373 5.78235L29.1373 5.49447L29.2095 5.51954L29.1094 5.80742ZM3.03195 5.78435L2.96026 5.80943L2.85962 5.52177L2.93132 5.49669L3.03195 5.78435ZM29.2537 5.85755L29.1816 5.83249L29.2816 5.54461L29.3538 5.56968L29.2537 5.85755ZM2.88857 5.83451L2.81687 5.85959L2.71624 5.57193L2.78793 5.54685L2.88857 5.83451ZM29.398 5.90769L29.3259 5.88262L29.4259 5.59475L29.498 5.61982L29.398 5.90769ZM2.74518 5.88467L2.67349 5.90976L2.57285 5.62209L2.64454 5.59701L2.74518 5.88467ZM29.5423 5.95783L29.4701 5.93276L29.5702 5.64489L29.6423 5.66996L29.5423 5.95783ZM2.60179 5.93484L2.5301 5.95992L2.42946 5.67225L2.50116 5.64717L2.60179 5.93484ZM29.6705 6.00238L29.6144 5.9829L29.7145 5.69502L29.7866 5.72009L29.6897 5.99892L29.7893 6.28368L29.7176 6.30876L29.617 6.0211L29.6705 6.00238ZM2.40492 6.00371L2.45841 5.985L2.35777 5.69733L2.28608 5.72241L2.38572 6.00722L2.28884 6.28601L2.36098 6.31107L2.46101 6.0232L2.40492 6.00371ZM29.7853 6.0423L29.7587 6.03304L29.7704 5.99947L29.7604 5.97093L29.783 5.96301L29.8587 5.74516L29.9309 5.77023L29.851 6.00002L29.9327 6.23352L29.861 6.2586L29.7853 6.0423ZM2.29005 5.96379L2.21439 5.74749L2.14269 5.77257L2.2244 6.00612L2.14456 6.23587L2.2167 6.26094L2.29241 6.04307L2.31502 6.03516L2.30506 6.00667L2.31673 5.97306L2.29005 5.96379ZM29.9686 6.10596L29.903 6.08318L29.9317 6.00057L29.9038 5.92077L29.9671 5.89861L30.003 5.7953L30.0752 5.82037L30.0592 5.86641L30.083 5.85807L30.1131 5.94397L30.1473 5.84544L30.2861 5.89368L30.2856 6.04062L30.1467 6.0401L30.1734 6.11652L30.2853 6.11693L30.285 6.19324L30.0503 6.19237L30.0044 6.20844L29.9987 6.19217L29.9802 6.19211L29.9804 6.1399L29.9686 6.10596ZM30.0258 6.03965L30.0526 6.11606L30.0797 6.03985L30.0258 6.03965ZM30.1133 6.05961L30.0936 6.11622L30.1331 6.11636L30.1133 6.05961ZM30.093 6.00168L30.0125 6.00145L30.0524 5.88573L30.093 6.00168ZM2.10685 5.90012L2.071 5.79765L1.99931 5.82273L2.01525 5.86829L1.99211 5.86025L1.96214 5.94649L1.92761 5.84781L1.79011 5.89592L1.78956 6.04177L1.92884 6.0423L1.90236 6.11851L1.78927 6.11808L1.78899 6.19439L2.02781 6.1953L2.07242 6.2108L2.07774 6.19548L2.09375 6.19554L2.09392 6.14891L2.10832 6.10747L2.17164 6.08532L2.14374 6.00557L2.17245 5.92292L2.10685 5.90012ZM2.02348 6.11897L2.04996 6.04275L1.99574 6.04255L2.02348 6.11897ZM1.98218 6.11881L1.96237 6.06216L1.94273 6.11866L1.98218 6.11881ZM1.98246 6.00434L2.02252 5.88907L2.06295 6.00464L1.98246 6.00434ZM29.6459 6.33384L29.5742 6.35892L29.4736 6.07126L29.5453 6.04618L29.6459 6.33384ZM2.50526 6.36121L2.43312 6.33614L2.53315 6.04827L2.60529 6.07334L2.50526 6.36121ZM29.5026 6.384L29.4309 6.40908L29.3302 6.12142L29.4019 6.09634L29.5026 6.384ZM2.64954 6.41135L2.5774 6.38628L2.67743 6.09841L2.74957 6.12348L2.64954 6.41135ZM29.3592 6.43417L29.2875 6.45925L29.1868 6.17158L29.2585 6.1465L29.3592 6.43417ZM2.79382 6.46149L2.72168 6.43642L2.82171 6.14854L2.89385 6.17361L2.79382 6.46149ZM29.2158 6.48433L29.1441 6.50941L29.0435 6.22174L29.1151 6.19666L29.2158 6.48433ZM2.9381 6.51163L2.86596 6.48656L2.96599 6.19868L3.03813 6.22375L2.9381 6.51163ZM29.0724 6.53449L29.0007 6.55957L28.9001 6.2719L28.9718 6.24682L29.0724 6.53449ZM3.08238 6.56176L3.01024 6.5367L3.11027 6.24882L3.18241 6.27389L3.08238 6.56176ZM30.2847 6.26956L30.2844 6.34587L29.9797 6.34473L29.9799 6.26842L30.2847 6.26956ZM1.78841 6.34702L1.7887 6.27071L2.09346 6.27186L2.09317 6.34817L1.78841 6.34702ZM28.929 6.58465L28.8573 6.60973L28.7567 6.32206L28.8284 6.29698L28.929 6.58465ZM3.22666 6.6119L3.15452 6.58683L3.25455 6.29896L3.32669 6.32403L3.22666 6.6119ZM28.7856 6.63481L28.7139 6.65989L28.6133 6.37222L28.685 6.34714L28.7856 6.63481ZM3.37094 6.66204L3.2988 6.63697L3.39883 6.3491L3.47097 6.37417L3.37094 6.66204ZM28.6422 6.68497L28.5705 6.71005L28.4699 6.42239L28.5416 6.39731L28.6422 6.68497ZM3.51522 6.71218L3.44308 6.68711L3.54311 6.39923L3.61525 6.4243L3.51522 6.71218ZM30.2841 6.42218L30.2839 6.49849L29.9791 6.49735L29.9794 6.42104L30.2841 6.42218ZM1.78783 6.49965L1.78812 6.42333L2.09288 6.42448L2.09259 6.5008L1.78783 6.49965ZM28.4989 6.73513L28.4272 6.76021L28.3265 6.47255L28.3982 6.44747L28.4989 6.73513ZM3.6595 6.76232L3.58736 6.73725L3.68739 6.44937L3.75953 6.47444L3.6595 6.76232ZM28.3555 6.7853L28.2838 6.81038L28.1831 6.52271L28.2548 6.49763L28.3555 6.7853ZM3.80378 6.81245L3.73164 6.78739L3.83167 6.49951L3.90381 6.52458L3.80378 6.81245ZM28.2121 6.83546L28.1404 6.86054L28.0398 6.57287L28.1114 6.54779L28.2121 6.83546ZM3.94806 6.86259L3.87592 6.83752L3.97595 6.54965L4.04809 6.57472L3.94806 6.86259ZM30.2836 6.5748L30.2833 6.6511L29.9785 6.64997L29.9788 6.57366L30.2836 6.5748ZM1.78726 6.65227L1.78755 6.57596L2.09231 6.57711L2.09202 6.65342L1.78726 6.65227ZM28.0687 6.88562L27.997 6.9107L27.8964 6.62303L27.9681 6.59795L28.0687 6.88562ZM4.09234 6.91273L4.0202 6.88766L4.12023 6.59979L4.19237 6.62486L4.09234 6.91273ZM27.9253 6.93578L27.8536 6.96086L27.753 6.67319L27.8247 6.64811L27.9253 6.93578ZM4.23662 6.96287L4.16448 6.9378L4.26451 6.64992L4.33665 6.67499L4.23662 6.96287ZM27.7819 6.98594L27.7102 7.01102L27.6096 6.72335L27.6813 6.69827L27.7819 6.98594ZM4.3809 7.01301L4.30876 6.98794L4.40879 6.70006L4.48093 6.72513L4.3809 7.01301ZM30.283 6.72742L30.2827 6.80373L29.9779 6.80259L29.9782 6.72628L30.283 6.72742ZM1.78668 6.8049L1.78697 6.72858L2.09173 6.72973L2.09144 6.80605L1.78668 6.8049ZM27.6385 7.0361L27.5668 7.06118L27.4662 6.77352L27.5379 6.74843L27.6385 7.0361ZM4.52518 7.06314L4.45304 7.03808L4.55307 6.7502L4.62521 6.77527L4.52518 7.06314ZM27.4952 7.08626L27.4235 7.11134L27.3228 6.82368L27.3945 6.7986L27.4952 7.08626ZM4.66946 7.11328L4.59731 7.08821L4.69735 6.80034L4.76949 6.82541L4.66946 7.11328ZM27.3518 7.13642L27.2801 7.1615L27.1794 6.87384L27.2511 6.84876L27.3518 7.13642ZM4.81373 7.16342L4.7416 7.13835L4.84163 6.85048L4.91377 6.87555L4.81373 7.16342ZM30.2824 6.88004L30.2821 6.95634L29.9774 6.95521L29.9777 6.8789L30.2824 6.88004ZM1.78611 6.95752L1.7864 6.88121L2.09116 6.88236L2.09087 6.95867L1.78611 6.95752ZM27.2084 7.18659L27.1367 7.21167L27.0361 6.924L27.1077 6.89892L27.2084 7.18659ZM4.95801 7.21356L4.88587 7.18849L4.98591 6.90061L5.05805 6.92568L4.95801 7.21356ZM27.065 7.23675L26.9933 7.26183L26.8927 6.97416L26.9644 6.94908L27.065 7.23675ZM5.10229 7.2637L5.03015 7.23863L5.13019 6.95075L5.20233 6.97582L5.10229 7.2637ZM26.9216 7.28691L26.8499 7.31199L26.7493 7.02432L26.821 6.99924L26.9216 7.28691ZM5.24657 7.31383L5.17443 7.28877L5.27447 7.00089L5.34661 7.02596L5.24657 7.31383ZM30.2819 7.03265L30.2816 7.10896L29.9768 7.10783L29.9771 7.03152L30.2819 7.03265ZM1.78553 7.11015L1.78582 7.03383L2.09058 7.03498L2.09029 7.1113L1.78553 7.11015ZM26.7782 7.33707L26.7065 7.36215L26.6059 7.07448L26.6776 7.0494L26.7782 7.33707ZM5.39085 7.36397L5.31871 7.3389L5.41875 7.05103L5.49089 7.0761L5.39085 7.36397ZM26.6348 7.38723L26.5631 7.41231L26.4625 7.12464L26.5342 7.09956L26.6348 7.38723ZM5.53513 7.41411L5.46299 7.38904L5.56303 7.10117L5.63517 7.12623L5.53513 7.41411ZM26.4915 7.43739L26.4198 7.46247L26.3191 7.17481L26.3908 7.14972L26.4915 7.43739ZM5.67941 7.46425L5.60727 7.43918L5.70731 7.1513L5.77945 7.17637L5.67941 7.46425ZM30.2813 7.18527L30.281 7.26158L29.9762 7.26045L29.9765 7.18414L30.2813 7.18527ZM1.78496 7.26277L1.78524 7.18646L2.09 7.18761L2.08972 7.26392L1.78496 7.26277ZM26.3481 7.48755L26.2764 7.51263L26.1757 7.22497L26.2474 7.19989L26.3481 7.48755ZM5.82369 7.51439L5.75155 7.48932L5.85159 7.20144L5.92373 7.22651L5.82369 7.51439ZM26.2047 7.53771L26.133 7.56279L26.0324 7.27513L26.104 7.25005L26.2047 7.53771ZM5.96797 7.56452L5.89583 7.53946L5.99587 7.25158L6.06801 7.27665L5.96797 7.56452ZM26.0613 7.58788L25.9896 7.61296L25.889 7.32529L25.9607 7.30021L26.0613 7.58788ZM6.11225 7.61466L6.04011 7.58959L6.14015 7.30172L6.21229 7.32679L6.11225 7.61466ZM30.2807 7.33789L30.2804 7.4142L29.9757 7.41306L29.976 7.33675L30.2807 7.33789ZM1.78438 7.4154L1.78467 7.33908L2.08943 7.34023L2.08914 7.41655L1.78438 7.4154ZM25.9179 7.63804L25.8462 7.66312L25.7456 7.37545L25.8173 7.35037L25.9179 7.63804ZM6.25653 7.6648L6.18439 7.63973L6.28443 7.35186L6.35657 7.37692L6.25653 7.6648ZM25.7745 7.6882L25.7028 7.71328L25.6022 7.42561L25.6739 7.40053L25.7745 7.6882ZM6.40081 7.71494L6.32867 7.68987L6.42871 7.40199L6.50085 7.42706L6.40081 7.71494ZM25.6311 7.73836L25.5594 7.76344L25.4588 7.47577L25.5305 7.45069L25.6311 7.73836ZM6.54509 7.76508L6.47295 7.74001L6.57299 7.45213L6.64513 7.4772L6.54509 7.76508ZM30.2801 7.49051L30.2799 7.56682L29.9751 7.56568L29.9754 7.48937L30.2801 7.49051ZM1.7838 7.56802L1.78409 7.49171L2.08885 7.49286L2.08856 7.56917L1.7838 7.56802ZM25.4878 7.78852L25.4161 7.8136L25.3154 7.52593L25.3871 7.50085L25.4878 7.78852ZM6.68937 7.81521L6.61723 7.79014L6.71727 7.50227L6.78941 7.52734L6.68937 7.81521ZM25.3444 7.83868L25.2727 7.86376L25.172 7.5761L25.2437 7.55102L25.3444 7.83868ZM6.83365 7.86535L6.76151 7.84028L6.86155 7.55241L6.93369 7.57748L6.83365 7.86535ZM25.201 7.88884L25.1293 7.91392L25.0287 7.62626L25.1003 7.60118L25.201 7.88884ZM6.97793 7.91549L6.90579 7.89042L7.00583 7.60255L7.07797 7.62761L6.97793 7.91549ZM30.2796 7.64313L30.2793 7.71944L29.9745 7.7183L29.9748 7.64199L30.2796 7.64313ZM1.78323 7.72065L1.78352 7.64433L2.08828 7.64548L2.08799 7.7218L1.78323 7.72065ZM25.0576 7.939L24.9859 7.96408L24.8853 7.67642L24.957 7.65134L25.0576 7.939ZM7.12221 7.96563L7.05007 7.94056L7.15011 7.65268L7.22225 7.67775L7.12221 7.96563ZM24.9142 7.98917L24.8425 8.01425L24.7419 7.72658L24.8136 7.7015L24.9142 7.98917ZM7.26649 8.01577L7.19435 7.9907L7.29439 7.70282L7.36653 7.72789L7.26649 8.01577ZM24.7708 8.03933L24.6991 8.06441L24.5985 7.77674L24.6702 7.75166L24.7708 8.03933ZM7.41077 8.0659L7.33863 8.04084L7.43867 7.75296L7.51081 7.77803L7.41077 8.0659ZM30.279 7.79575L30.2787 7.87206L29.974 7.87092L29.9742 7.79461L30.279 7.79575ZM1.78265 7.87327L1.78294 7.79696L2.0877 7.79811L2.08741 7.87442L1.78265 7.87327ZM24.6274 8.08949L24.5557 8.11457L24.4551 7.8269L24.5268 7.80182L24.6274 8.08949ZM7.55505 8.11604L7.48291 8.09097L7.58295 7.8031L7.65509 7.82817L7.55505 8.11604ZM24.4841 8.13965L24.4124 8.16473L24.3117 7.87706L24.3834 7.85198L24.4841 8.13965ZM7.69933 8.16618L7.62719 8.14111L7.72723 7.85324L7.79937 7.87831L7.69933 8.16618ZM24.3407 8.18981L24.269 8.21489L24.1683 7.92723L24.24 7.90214L24.3407 8.18981ZM7.84361 8.21632L7.77147 8.19125L7.87151 7.90337L7.94365 7.92844L7.84361 8.21632ZM30.2784 7.94837L30.2781 8.02468L29.9734 8.02354L29.9737 7.94723L30.2784 7.94837ZM1.78208 8.0259L1.78236 7.94958L2.08712 7.95073L2.08684 8.02705L1.78208 8.0259ZM24.1973 8.23997L24.1256 8.26505L24.025 7.97739L24.0966 7.95231L24.1973 8.23997ZM7.98789 8.26646L7.91575 8.24139L8.01579 7.95351L8.08793 7.97858L7.98789 8.26646ZM24.0539 8.29013L23.9822 8.31521L23.8816 8.02755L23.9533 8.00247L24.0539 8.29013ZM8.13217 8.3166L8.06003 8.29153L8.16007 8.00365L8.23221 8.02872L8.13217 8.3166ZM23.9105 8.34029L23.8388 8.36538L23.7382 8.07771L23.8099 8.05263L23.9105 8.34029ZM8.27645 8.36673L8.20431 8.34166L8.30435 8.05379L8.37649 8.07886L8.27645 8.36673ZM30.2779 8.10099L30.2776 8.1773L29.9728 8.17616L29.9731 8.09985L30.2779 8.10099ZM1.7815 8.17852L1.78179 8.10221L2.08655 8.10336L2.08626 8.17967L1.7815 8.17852ZM23.7671 8.39046L23.6954 8.41554L23.5948 8.12787L23.6665 8.10279L23.7671 8.39046ZM8.42073 8.41687L8.34859 8.3918L8.44863 8.10393L8.52077 8.129L8.42073 8.41687ZM23.6237 8.44062L23.552 8.4657L23.4514 8.17803L23.5231 8.15295L23.6237 8.44062ZM8.56501 8.46701L8.49288 8.44194L8.59291 8.15407L8.66505 8.17913L8.56501 8.46701ZM23.4804 8.49078L23.4087 8.51586L23.308 8.22819L23.3797 8.20311L23.4804 8.49078ZM8.70929 8.51715L8.63716 8.49208L8.73719 8.2042L8.80933 8.22927L8.70929 8.51715ZM30.2773 8.25361L30.277 8.32992L29.9723 8.32878L29.9725 8.25247L30.2773 8.25361ZM23.337 8.54094L23.2653 8.56602L23.1646 8.27835L23.2363 8.25327L23.337 8.54094ZM8.85358 8.56729L8.78143 8.54222L8.88147 8.25434L8.95361 8.27941L8.85358 8.56729ZM1.78093 8.33115L1.78121 8.25483L2.08597 8.25598L2.08569 8.3323L1.78093 8.33115ZM23.1936 8.5911L23.1219 8.61618L23.0213 8.32852L23.0929 8.30343L23.1936 8.5911ZM8.99786 8.61742L8.92571 8.59235L9.02575 8.30448L9.09789 8.32955L8.99786 8.61742ZM23.0502 8.64126L22.9785 8.66634L22.8779 8.37868L22.9496 8.3536L23.0502 8.64126ZM9.14214 8.66756L9.07 8.64249L9.17003 8.35462L9.24217 8.37969L9.14214 8.66756ZM22.9068 8.69142L22.8351 8.7165L22.7345 8.42884L22.8062 8.40376L22.9068 8.69142ZM9.28642 8.7177L9.21428 8.69263L9.31431 8.40476L9.38645 8.42983L9.28642 8.7177ZM30.2767 8.40623L30.2764 8.48254L29.9717 8.4814L29.972 8.40509L30.2767 8.40623ZM1.78035 8.48377L1.78064 8.40746L2.0854 8.40861L2.08511 8.48492L1.78035 8.48377ZM22.7634 8.74159L22.6917 8.76667L22.5911 8.479L22.6628 8.45392L22.7634 8.74159ZM9.4307 8.76784L9.35856 8.74277L9.45859 8.45489L9.53073 8.47996L9.4307 8.76784ZM22.62 8.79175L22.5483 8.81683L22.4477 8.52916L22.5194 8.50408L22.62 8.79175ZM9.57498 8.81798L9.50284 8.79291L9.60287 8.50503L9.67501 8.5301L9.57498 8.81798ZM22.4767 8.84191L22.405 8.86699L22.3043 8.57932L22.376 8.55424L22.4767 8.84191ZM9.71926 8.86811L9.64712 8.84305L9.74716 8.55517L9.81929 8.58024L9.71926 8.86811ZM30.2762 8.55885L30.2759 8.63516L29.9711 8.63402L29.9714 8.55771L30.2762 8.55885ZM1.77977 8.6364L1.78006 8.56008L2.08482 8.56123L2.08453 8.63755L1.77977 8.6364ZM22.3333 8.89207L22.2616 8.91715L22.1609 8.62948L22.2326 8.6044L22.3333 8.89207ZM9.86354 8.91825L9.7914 8.89318L9.89143 8.60531L9.96358 8.63038L9.86354 8.91825ZM22.1899 8.94223L22.1182 8.96731L22.0176 8.67964L22.0892 8.65456L22.1899 8.94223ZM10.0078 8.96839L9.93568 8.94332L10.0357 8.65545L10.1079 8.68052L10.0078 8.96839ZM22.0465 8.99239L21.9748 9.01747L21.8742 8.72981L21.9459 8.70473L22.0465 8.99239ZM10.1521 9.01853L10.08 8.99346L10.18 8.70559L10.2521 8.73065L10.1521 9.01853ZM30.2756 8.71147L30.2753 8.78778L29.9705 8.78664L29.9708 8.71033L30.2756 8.71147ZM1.7792 8.78902L1.77949 8.71271L2.08425 8.71386L2.08396 8.79017L1.7792 8.78902ZM21.9031 9.04255L21.8314 9.06763L21.7308 8.77997L21.8025 8.75489L21.9031 9.04255ZM10.2964 9.06867L10.2242 9.0436L10.3243 8.75572L10.3964 8.78079L10.2964 9.06867ZM21.7597 9.09271L21.688 9.1178L21.5874 8.83013L21.6591 8.80505L21.7597 9.09271ZM10.4407 9.11881L10.3685 9.09374L10.4686 8.80586L10.5407 8.83093L10.4407 9.11881ZM21.6163 9.14288L21.5446 9.16796L21.444 8.88029L21.5157 8.85521L21.6163 9.14288ZM10.5849 9.16894L10.5128 9.14387L10.6128 8.856L10.685 8.88107L10.5849 9.16894ZM30.275 8.86409L30.2747 8.9404L29.97 8.93926L29.9703 8.86295L30.275 8.86409ZM1.77862 8.94165L1.77891 8.86534L2.08367 8.86649L2.08338 8.9428L1.77862 8.94165ZM21.473 9.19304L21.4013 9.21812L21.3006 8.93045L21.3723 8.90537L21.473 9.19304ZM10.7292 9.21908L10.6571 9.19401L10.7571 8.90614L10.8293 8.93121L10.7292 9.21908ZM21.3296 9.2432L21.2579 9.26828L21.1572 8.98061L21.2289 8.95553L21.3296 9.2432ZM10.8735 9.26922L10.8014 9.24415L10.9014 8.95628L10.9735 8.98134L10.8735 9.26922ZM21.1862 9.29336L21.1145 9.31844L21.0139 9.03077L21.0855 9.00569L21.1862 9.29336ZM11.0178 9.31936L10.9456 9.29429L11.0457 9.00641L11.1178 9.03148L11.0178 9.31936ZM30.2744 9.01671L30.2742 9.09302L29.9694 9.09188L29.9697 9.01557L30.2744 9.01671ZM1.77805 9.09427L1.77833 9.01796L2.08309 9.01911L2.08281 9.09542L1.77805 9.09427ZM21.0428 9.34352L20.9711 9.3686L20.8705 9.08093L20.9422 9.05585L21.0428 9.34352ZM11.1621 9.3695L11.0899 9.34443L11.19 9.05655L11.2621 9.08162L11.1621 9.3695ZM20.8994 9.39368L20.8277 9.41876L20.7271 9.1311L20.7988 9.10602L20.8994 9.39368ZM11.3063 9.41963L11.2342 9.39457L11.3342 9.10669L11.4064 9.13176L11.3063 9.41963ZM20.756 9.44384L20.6843 9.46892L20.5837 9.18126L20.6554 9.15618L20.756 9.44384ZM11.4506 9.46977L11.3785 9.4447L11.4785 9.15683L11.5507 9.1819L11.4506 9.46977ZM30.2739 9.16932L30.2736 9.24563L29.9688 9.2445L29.9691 9.16819L30.2739 9.16932ZM1.77747 9.2469L1.77776 9.17059L2.08252 9.17173L2.08223 9.24805L1.77747 9.2469ZM20.6126 9.49401L20.5409 9.51909L20.4403 9.23142L20.512 9.20634L20.6126 9.49401ZM11.5949 9.51991L11.5228 9.49484L11.6228 9.20697L11.6949 9.23203L11.5949 9.51991ZM20.4693 9.54417L20.3976 9.56925L20.2969 9.28158L20.3686 9.2565L20.4693 9.54417ZM11.7392 9.57005L11.667 9.54498L11.7671 9.2571L11.8392 9.28217L11.7392 9.57005ZM20.3259 9.59433L20.2542 9.61941L20.1535 9.33174L20.2252 9.30666L20.3259 9.59433ZM11.8835 9.62019L11.8113 9.59512L11.9114 9.30724L11.9835 9.33231L11.8835 9.62019ZM30.2733 9.32194L30.273 9.39825L29.9683 9.39712L29.9685 9.32081L30.2733 9.32194ZM1.77689 9.39952L1.77718 9.32321L2.08194 9.32436L2.08165 9.40067L1.77689 9.39952ZM20.1825 9.64449L20.1108 9.66957L20.0102 9.3819L20.0818 9.35682L20.1825 9.64449ZM12.0277 9.67032L11.9556 9.64526L12.0556 9.35738L12.1278 9.38245L12.0277 9.67032ZM20.0391 9.69465L19.9674 9.71973L19.8668 9.43206L19.9385 9.40698L20.0391 9.69465ZM12.172 9.72046L12.0999 9.69539L12.1999 9.40752L12.2721 9.43259L12.172 9.72046ZM19.8957 9.74481L19.824 9.76989L19.7234 9.48223L19.7951 9.45714L19.8957 9.74481ZM12.3163 9.7706L12.2442 9.74553L12.3442 9.45766L12.4163 9.48273L12.3163 9.7706ZM30.2727 9.47456L30.2724 9.55087L29.9677 9.54974L29.968 9.47343L30.2727 9.47456ZM1.77632 9.55215L1.77661 9.47584L2.08137 9.47699L2.08108 9.5533L1.77632 9.55215ZM19.7523 9.79497L19.6806 9.82005L19.58 9.53239L19.6517 9.50731L19.7523 9.79497ZM12.4606 9.82074L12.3884 9.79567L12.4885 9.50779L12.5606 9.53286L12.4606 9.82074ZM19.6089 9.84513L19.5372 9.87022L19.4366 9.58255L19.5083 9.55747L19.6089 9.84513ZM12.6049 9.87088L12.5327 9.84581L12.6328 9.55793L12.7049 9.583L12.6049 9.87088ZM19.4656 9.8953L19.3939 9.92038L19.2932 9.63271L19.3649 9.60763L19.4656 9.8953ZM12.7491 9.92102L12.677 9.89595L12.777 9.60807L12.8492 9.63314L12.7491 9.92102ZM30.2722 9.62718L30.2719 9.70349L29.9671 9.70235L29.9674 9.62604L30.2722 9.62718ZM1.77574 9.70477L1.77603 9.62846L2.08079 9.62961L2.0805 9.70592L1.77574 9.70477ZM19.3222 9.94546L19.2505 9.97054L19.1498 9.68287L19.2215 9.65779L19.3222 9.94546ZM12.8934 9.97115L12.8213 9.94608L12.9213 9.65821L12.9935 9.68328L12.8934 9.97115ZM19.1788 9.99562L19.1071 10.0207L19.0065 9.73303L19.0781 9.70795L19.1788 9.99562ZM13.0377 10.0213L12.9656 9.99622L13.0656 9.70835L13.1377 9.73342L13.0377 10.0213ZM19.0354 10.0458L18.9637 10.0709L18.8631 9.78319L18.9348 9.75811L19.0354 10.0458ZM13.182 10.0714L13.1098 10.0464L13.2099 9.75849L13.282 9.78356L13.182 10.0714ZM30.2716 9.7798L30.2713 9.85611L29.9666 9.85497L29.9668 9.77866L30.2716 9.7798ZM1.77517 9.8574L1.77546 9.78109L2.08022 9.78224L2.07993 9.85855L1.77517 9.8574ZM18.892 10.0959L18.8203 10.121L18.7197 9.83335L18.7914 9.80827L18.892 10.0959ZM13.3263 10.1216L13.2541 10.0965L13.3542 9.80862L13.4263 9.83369L13.3263 10.1216ZM18.7486 10.1461L18.6769 10.1712L18.5763 9.88352L18.648 9.85844L18.7486 10.1461ZM13.4705 10.1717L13.3984 10.1466L13.4984 9.85876L13.5706 9.88383L13.4705 10.1717ZM18.6052 10.1963L18.5335 10.2213L18.4329 9.93368L18.5046 9.9086L18.6052 10.1963ZM13.6148 10.2218L13.5427 10.1968L13.6427 9.9089L13.7149 9.93397L13.6148 10.2218ZM30.271 9.93242L30.2707 10.0087L29.966 10.0076L29.9663 9.93128L30.271 9.93242ZM1.77459 10.01L1.77488 9.93371L2.07964 9.93486L2.07935 10.0112L1.77459 10.01ZM18.4619 10.2464L18.3902 10.2715L18.2895 9.98384L18.3612 9.95876L18.4619 10.2464ZM13.7591 10.272L13.687 10.2469L13.787 9.95904L13.8591 9.98411L13.7591 10.272ZM18.3185 10.2966L18.2468 10.3217L18.1461 10.034L18.2178 10.0089L18.3185 10.2966ZM13.9034 10.3221L13.8312 10.2971L13.9313 10.0092L14.0034 10.0342L13.9034 10.3221ZM18.1751 10.3467L18.1034 10.3718L18.0028 10.0842L18.0744 10.0591L18.1751 10.3467ZM14.0477 10.3723L13.9755 10.3472L14.0756 10.0593L14.1477 10.0844L14.0477 10.3723ZM30.2705 10.085L30.2702 10.1614L29.9654 10.1602L29.9657 10.0839L30.2705 10.085ZM1.77402 10.1626L1.7743 10.0863L2.07906 10.0875L2.07878 10.1638L1.77402 10.1626ZM18.0317 10.3969L17.96 10.422L17.8594 10.1343L17.9311 10.1092L18.0317 10.3969ZM14.1919 10.4224L14.1198 10.3973L14.2198 10.1095L14.292 10.1345L14.1919 10.4224ZM17.8883 10.4471L17.8166 10.4721L17.716 10.1845L17.7877 10.1594L17.8883 10.4471ZM14.3362 10.4725L14.2641 10.4475L14.3641 10.1596L14.4363 10.1847L14.3362 10.4725ZM17.7449 10.4972L17.6732 10.5223L17.5726 10.2346L17.6443 10.2096L17.7449 10.4972ZM14.4805 10.5227L14.4084 10.4976L14.5084 10.2097L14.5805 10.2348L14.4805 10.5227ZM30.2699 10.2377L30.2696 10.314L29.9648 10.3128L29.9651 10.2365L30.2699 10.2377ZM1.77344 10.3153L1.77373 10.239L2.07849 10.2401L2.0782 10.3164L1.77344 10.3153ZM17.6015 10.5474L17.5298 10.5725L17.4292 10.2848L17.5009 10.2597L17.6015 10.5474ZM14.6248 10.5728L14.5526 10.5477L14.6527 10.2599L14.7248 10.2849L14.6248 10.5728ZM17.4582 10.5976L17.3865 10.6226L17.2858 10.335L17.3575 10.3099L17.4582 10.5976ZM14.7691 10.6229L14.6969 10.5979L14.797 10.31L14.8691 10.3351L14.7691 10.6229ZM17.3148 10.6477L17.2431 10.6728L17.1424 10.3851L17.2141 10.36L17.3148 10.6477ZM14.9133 10.6731L14.8412 10.648L14.9412 10.3601L15.0134 10.3852L14.9133 10.6731ZM30.2693 10.3903L30.269 10.4666L29.9643 10.4655L29.9646 10.3891L30.2693 10.3903ZM1.77286 10.4679L1.77315 10.3916L2.07791 10.3927L2.07762 10.469L1.77286 10.4679ZM17.1714 10.6979L17.0997 10.723L16.9991 10.4353L17.0707 10.4102L17.1714 10.6979ZM15.0576 10.7232L14.9855 10.6982L15.0855 10.4103L15.1577 10.4354L15.0576 10.7232ZM17.028 10.748L16.9563 10.7731L16.8557 10.4855L16.9274 10.4604L17.028 10.748ZM15.2019 10.7734L15.1298 10.7483L15.2298 10.4604L15.3019 10.4855L15.2019 10.7734ZM16.8846 10.7982L16.8129 10.8233L16.7123 10.5356L16.784 10.5105L16.8846 10.7982ZM15.3462 10.8235L15.274 10.7984L15.3741 10.5106L15.4462 10.5356L15.3462 10.8235ZM30.2687 10.5429L30.2685 10.6192L29.9637 10.6181L29.964 10.5418L30.2687 10.5429ZM1.77229 10.6205L1.77258 10.5442L2.07734 10.5454L2.07705 10.6217L1.77229 10.6205ZM16.7412 10.8484L16.6695 10.8734L16.5689 10.5858L16.6406 10.5607L16.7412 10.8484ZM15.4905 10.8736L15.4183 10.8486L15.5184 10.5607L15.5905 10.5858L15.4905 10.8736ZM15.6347 10.9238L15.5626 10.8987L15.6626 10.6108L15.7348 10.6359L15.6347 10.9238ZM16.5978 10.8985L16.5261 10.9236L16.4255 10.6359L16.4972 10.6109L16.5978 10.8985ZM15.779 10.9739L15.7069 10.9488L15.8069 10.661L15.8791 10.686L15.779 10.9739ZM16.4545 10.9487L16.3828 10.9738L16.2821 10.6861L16.3538 10.661L16.4545 10.9487ZM30.2682 10.6955L30.2679 10.7718L29.9631 10.7707L29.9634 10.6944L30.2682 10.6955ZM1.77171 10.7731L1.772 10.6968L2.07676 10.698L2.07647 10.7743L1.77171 10.7731ZM15.9233 11.0241L15.8512 10.999L15.9512 10.7111L16.0233 10.7362L15.9604 10.9173L16.0412 10.9176L16.0612 10.8598L16.0312 10.7739L16.067 10.7613L16.0813 10.8021L16.0955 10.7612L16.1315 10.7738L16.1016 10.86L16.1218 10.9179L16.2024 10.9182L16.1387 10.7363L16.2104 10.7112L16.3111 10.9988L16.2394 11.0239L16.2157 10.9563L16.1351 10.956L16.1619 11.0324L16.2335 11.0327L16.2332 11.109L15.9284 11.1079L15.9287 11.0315L16.0015 11.0318L16.0279 10.9556L15.9472 10.9553L15.9233 11.0241ZM16.0683 10.9557L16.0418 11.032L16.1216 11.0323L16.0949 10.9558L16.0683 10.9557ZM30.2676 10.8481L30.2673 10.9244L29.9626 10.9233L29.9628 10.847L30.2676 10.8481ZM1.77114 10.9258L1.77142 10.8495L2.07618 10.8506L2.0759 10.9269L1.77114 10.9258ZM30.267 11.0008L30.2668 11.0771L29.962 11.0759L29.9623 10.9996L30.267 11.0008ZM1.77056 11.0784L1.77085 11.0021L2.07561 11.0032L2.07532 11.0796L1.77056 11.0784ZM30.2665 11.1534L30.2662 11.2297L29.9614 11.2285L29.9617 11.1522L30.2665 11.1534ZM1.76999 11.231L1.77027 11.1547L2.07503 11.1559L2.07475 11.2322L1.76999 11.231ZM16.2329 11.1853L16.2326 11.2616L15.9279 11.2605L15.9281 11.1842L16.2329 11.1853ZM30.2659 11.306L30.2656 11.3823L29.9608 11.3812L29.9611 11.3049L30.2659 11.306ZM1.76941 11.3837L1.7697 11.3073L2.07446 11.3085L2.07417 11.3848L1.76941 11.3837ZM16.2323 11.3379L16.232 11.4142L15.9273 11.4131L15.9276 11.3368L16.2323 11.3379ZM30.2653 11.4586L30.265 11.5349L29.9603 11.5338L29.9606 11.4575L30.2653 11.4586ZM1.76883 11.5363L1.76912 11.46L2.07388 11.4611L2.07359 11.5374L1.76883 11.5363ZM16.2318 11.4906L16.2315 11.5669L15.9267 11.5657L15.927 11.4894L16.2318 11.4906ZM30.2648 11.6112L30.2645 11.6875L29.9597 11.6864L29.96 11.6101L30.2648 11.6112ZM1.76826 11.6889L1.76855 11.6126L2.07331 11.6137L2.07302 11.6901L1.76826 11.6889ZM16.2312 11.6432L16.2309 11.7195L15.9261 11.7184L15.9264 11.642L16.2312 11.6432ZM30.2642 11.7639L30.2639 11.8402L29.9591 11.839L29.9594 11.7627L30.2642 11.7639ZM1.76768 11.8415L1.76797 11.7652L2.07273 11.7664L2.07244 11.8427L1.76768 11.8415ZM16.2306 11.7958L16.2303 11.8721L15.9256 11.871L15.9259 11.7947L16.2306 11.7958ZM30.2636 11.9165L30.2633 11.9928L29.9586 11.9916L29.9589 11.9153L30.2636 11.9165ZM1.76711 11.9942L1.76739 11.9178L2.07215 11.919L2.07187 11.9953L1.76711 11.9942ZM16.23 11.9484L16.2298 12.0247L15.925 12.0236L15.9253 11.9473L16.23 11.9484ZM30.263 12.0691L30.2628 12.1454L29.958 12.1443L29.9583 12.068L30.263 12.0691ZM1.76653 12.1468L1.76682 12.0705L2.07158 12.0716L2.07129 12.1479L1.76653 12.1468ZM16.2295 12.1011L16.2292 12.1774L15.9244 12.1762L15.9247 12.0999L16.2295 12.1011ZM30.2625 12.2217L30.2622 12.298L29.9574 12.2969L29.9577 12.2206L30.2625 12.2217ZM1.76595 12.2994L1.76624 12.2231L2.071 12.2242L2.07071 12.3006L1.76595 12.2994ZM16.2289 12.2537L16.2286 12.33L15.9239 12.3289L15.9241 12.2525L16.2289 12.2537ZM30.2619 12.3743L30.2616 12.4506L29.9569 12.4495L29.9571 12.3732L30.2619 12.3743ZM1.76538 12.452L1.76567 12.3757L2.07043 12.3769L2.07014 12.4532L1.76538 12.452ZM16.2283 12.4063L16.2281 12.4826L15.9233 12.4815L15.9236 12.4052L16.2283 12.4063ZM30.2613 12.527L30.2611 12.6033L29.9563 12.6021L29.9566 12.5258L30.2613 12.527ZM1.7648 12.6047L1.76509 12.5283L2.06985 12.5295L2.06956 12.6058L1.7648 12.6047ZM16.2278 12.5589L16.2275 12.6353L15.9227 12.6341L15.923 12.5578L16.2278 12.5589ZM30.2608 12.6796L30.2605 12.7559L29.9557 12.7547L29.956 12.6784L30.2608 12.6796ZM1.76423 12.7573L1.76452 12.681L2.06928 12.6821L2.06899 12.7584L1.76423 12.7573ZM16.2272 12.7116L16.2269 12.7879L15.9222 12.7867L15.9224 12.7104L16.2272 12.7116ZM30.2602 12.8322L30.2599 12.9085L29.9552 12.9074L29.9554 12.8311L30.2602 12.8322ZM1.76365 12.9099L1.76394 12.8336L2.0687 12.8347L2.06841 12.9111L1.76365 12.9099ZM16.2266 12.8642L16.2263 12.9405L15.9216 12.9394L15.9219 12.8631L16.2266 12.8642ZM30.2596 12.9848L30.2593 13.0611L29.9546 13.06L29.9549 12.9837L30.2596 12.9848ZM1.76308 13.0625L1.76336 12.9862L2.06812 12.9874L2.06784 13.0637L1.76308 13.0625ZM16.2261 13.0168L16.2258 13.0931L15.921 13.092L15.9213 13.0157L16.2261 13.0168ZM30.2591 13.1374L30.2588 13.2137L29.954 13.2126L29.9543 13.1363L30.2591 13.1374ZM1.7625 13.2152L1.76279 13.1388L2.06755 13.14L2.06726 13.2163L1.7625 13.2152ZM16.2255 13.1694L16.2252 13.2458L15.9204 13.2446L15.9207 13.1683L16.2255 13.1694ZM30.2585 13.29L30.2582 13.3664L29.9534 13.3652L29.9537 13.2889L30.2585 13.29ZM1.76192 13.3678L1.76221 13.2915L2.06697 13.2926L2.06668 13.3689L1.76192 13.3678ZM16.2249 13.3221L16.2246 13.3984L15.9199 13.3972L15.9202 13.3209L16.2249 13.3221ZM30.2579 13.4427L30.2576 13.519L29.9529 13.5178L29.9532 13.4415L30.2579 13.4427ZM1.76135 13.5204L1.76164 13.4441L2.0664 13.4452L2.06611 13.5216L1.76135 13.5204ZM16.2243 13.4747L16.2241 13.551L15.9193 13.5499L15.9196 13.4736L16.2243 13.4747ZM30.2573 13.5953L30.2571 13.6716L29.9523 13.6705L29.9526 13.5941L30.2573 13.5953ZM1.76077 13.673L1.76106 13.5967L2.06582 13.5979L2.06553 13.6742L1.76077 13.673ZM16.2238 13.6273L16.2235 13.7036L15.9187 13.7025L15.919 13.6262L16.2238 13.6273ZM30.2568 13.7479L30.2565 13.8242L29.9517 13.8231L29.952 13.7468L30.2568 13.7479ZM1.7602 13.8257L1.76048 13.7493L2.06524 13.7505L2.06496 13.8268L1.7602 13.8257ZM16.2232 13.78L16.2229 13.8563L15.9182 13.8551L15.9184 13.7788L16.2232 13.78ZM30.2562 13.9005L30.2559 13.9768L29.9512 13.9757L29.9514 13.8994L30.2562 13.9005ZM1.75962 13.9783L1.75991 13.902L2.06467 13.9031L2.06438 13.9794L1.75962 13.9783ZM16.2226 13.9326L16.2224 14.0089L15.9176 14.0078L15.9179 13.9314L16.2226 13.9326ZM30.2556 14.0531L30.2554 14.1295L29.9506 14.1283L29.9509 14.052L30.2556 14.0531ZM1.75905 14.1309L1.75933 14.0546L2.06409 14.0557L2.06381 14.1321L1.75905 14.1309ZM16.2221 14.0852L16.2218 14.1615L15.917 14.1604L15.9173 14.0841L16.2221 14.0852ZM30.2551 14.2058L30.2548 14.2821L29.95 14.2809L29.9503 14.2046L30.2551 14.2058ZM1.75847 14.2835L1.75876 14.2072L2.06352 14.2084L2.06323 14.2847L1.75847 14.2835ZM16.2215 14.2378L16.2212 14.3141L15.9165 14.313L15.9167 14.2367L16.2215 14.2378ZM30.2545 14.3584L30.2542 14.4347L29.9495 14.4336L29.9497 14.3572L30.2545 14.3584ZM1.75789 14.4362L1.75818 14.3598L2.06294 14.361L2.06265 14.4373L1.75789 14.4362ZM16.2209 14.3905L16.2206 14.4668L15.9159 14.4656L15.9162 14.3893L16.2209 14.3905ZM30.2539 14.511L30.2536 14.5873L29.9489 14.5862L29.9492 14.5099L30.2539 14.511ZM1.75732 14.5888L1.75761 14.5125L2.06237 14.5136L2.06208 14.5899L1.75732 14.5888ZM16.2204 14.5431L16.2201 14.6194L15.9153 14.6183L15.9156 14.5419L16.2204 14.5431ZM30.2534 14.6636L30.2531 14.7399L29.9483 14.7388L29.9486 14.6625L30.2534 14.6636ZM1.75674 14.7414L1.75703 14.6651L2.06179 14.6662L2.0615 14.7426L1.75674 14.7414ZM16.2198 14.6957L16.2195 14.772L15.9147 14.7709L15.915 14.6946L16.2198 14.6957ZM30.2528 14.8162L30.2525 14.8926L29.9477 14.8914L29.948 14.8151L30.2528 14.8162ZM1.75617 14.894L1.75645 14.8177L2.06121 14.8189L2.06093 14.8952L1.75617 14.894ZM16.2192 14.8483L16.2189 14.9246L15.9142 14.9235L15.9145 14.8472L16.2192 14.8483ZM30.2522 14.9689L30.2519 15.0452L29.9472 15.044L29.9475 14.9677L30.2522 14.9689ZM1.75559 15.0467L1.75588 14.9703L2.06064 14.9715L2.06035 15.0478L1.75559 15.0467ZM16.2186 15.001L16.2184 15.0773L15.9136 15.0761L15.9139 14.9998L16.2186 15.001ZM30.2516 15.1215L30.2514 15.1978L29.9466 15.1967L29.9469 15.1203L30.2516 15.1215ZM1.75501 15.1993L1.7553 15.123L2.06006 15.1241L2.05977 15.2004L1.75501 15.1993ZM16.2181 15.1536L16.2178 15.2299L15.913 15.2288L15.9133 15.1524L16.2181 15.1536ZM30.2511 15.2741L30.2508 15.3504L29.946 15.3493L29.9463 15.273L30.2511 15.2741ZM1.75444 15.3519L1.75473 15.2756L2.05949 15.2767L2.0592 15.3531L1.75444 15.3519ZM16.2175 15.3062L16.2172 15.3825L15.9125 15.3814L15.9127 15.3051L16.2175 15.3062ZM30.2505 15.4267L30.2502 15.503L29.9455 15.5019L29.9457 15.4256L30.2505 15.4267ZM1.75386 15.5045L1.75415 15.4282L2.05891 15.4294L2.05862 15.5057L1.75386 15.5045ZM16.2169 15.4588L16.2167 15.5352L15.9119 15.534L15.9122 15.4577L16.2169 15.4588ZM30.2499 15.5793L30.2497 15.6556L29.9449 15.6545L29.9452 15.5782L30.2499 15.5793ZM1.75329 15.6572L1.75358 15.5808L2.05834 15.582L2.05805 15.6583L1.75329 15.6572ZM16.2164 15.6115L16.2161 15.6878L15.9113 15.6866L15.9116 15.6103L16.2164 15.6115ZM30.2494 15.732L30.2491 15.8083L29.9443 15.8071L29.9446 15.7308L30.2494 15.732ZM1.75271 15.8098L1.753 15.7335L2.05776 15.7346L2.05747 15.8109L1.75271 15.8098ZM16.2158 15.7641L16.2155 15.8404L15.9108 15.8393L15.911 15.763L16.2158 15.7641ZM30.2488 15.8846L30.2485 15.9609L29.9438 15.9597L29.944 15.8834L30.2488 15.8846ZM1.75214 15.9624L1.75242 15.8861L2.05718 15.8872L2.0569 15.9636L1.75214 15.9624ZM16.2152 15.9167L16.2149 15.993L15.9102 15.9919L15.9105 15.9156L16.2152 15.9167ZM30.2482 16.0372L30.2479 16.1135L29.9432 16.1124L29.9435 16.0361L30.2482 16.0372ZM1.75156 16.115L1.75185 16.0387L2.05661 16.0399L2.05632 16.1162L1.75156 16.115ZM16.2147 16.0693L16.2144 16.1457L15.9096 16.1445L15.9099 16.0682L16.2147 16.0693ZM30.2477 16.1898L30.2474 16.2661L29.9426 16.265L29.9429 16.1887L30.2477 16.1898ZM1.75098 16.2677L1.75127 16.1913L2.05603 16.1925L2.05574 16.2688L1.75098 16.2677ZM16.2141 16.222L16.2138 16.2983L15.909 16.2971L15.9093 16.2208L16.2141 16.222ZM30.2471 16.3424L30.2468 16.4187L29.942 16.4176L29.9423 16.3413L30.2471 16.3424ZM1.75041 16.4203L1.7507 16.344L2.05546 16.3451L2.05517 16.4214L1.75041 16.4203ZM16.2135 16.3746L16.2132 16.4509L15.9085 16.4498L15.9088 16.3735L16.2135 16.3746ZM30.2465 16.4951L30.2462 16.5714L29.9415 16.5702L29.9418 16.4939L30.2465 16.4951ZM1.74983 16.5729L1.75012 16.4966L2.05488 16.4977L2.05459 16.5741L1.74983 16.5729ZM16.2129 16.5272L16.2127 16.6035L15.9079 16.6024L15.9082 16.5261L16.2129 16.5272ZM30.2459 16.6477L30.2457 16.724L29.9409 16.7228L29.9412 16.6465L30.2459 16.6477ZM1.74926 16.7255L1.74954 16.6492L2.0543 16.6504L2.05402 16.7267L1.74926 16.7255ZM16.2124 16.6799L16.2121 16.7562L15.9073 16.755L15.9076 16.6787L16.2124 16.6799ZM30.2454 16.8003L30.2451 16.8766L29.9403 16.8755L29.9406 16.7992L30.2454 16.8003ZM1.74868 16.8782L1.74897 16.8019L2.05373 16.803L2.05344 16.8793L1.74868 16.8782ZM16.2118 16.8325L16.2115 16.9088L15.9068 16.9077L15.907 16.8313L16.2118 16.8325ZM30.2448 16.9529L30.2445 17.0292L29.9398 17.0281L29.94 16.9518L30.2448 16.9529ZM1.74811 17.0308L1.74839 16.9545L2.05315 16.9556L2.05287 17.0319L1.74811 17.0308ZM16.2112 16.9851L16.211 17.0614L15.9062 17.0603L15.9065 16.984L16.2112 16.9851ZM30.2442 17.1055L30.244 17.1818L29.9392 17.1807L29.9395 17.1044L30.2442 17.1055ZM1.74753 17.1834L1.74782 17.1071L2.05258 17.1083L2.05229 17.1846L1.74753 17.1834ZM16.2107 17.1377L16.2104 17.214L15.9056 17.2129L15.9059 17.1366L16.2107 17.1377ZM30.2437 17.2582L30.2434 17.3345L29.9386 17.3333L29.9389 17.257L30.2437 17.2582ZM1.74695 17.336L1.74724 17.2597L2.052 17.2609L2.05171 17.3372L1.74695 17.336ZM16.2101 17.2904L16.2098 17.3667L15.9051 17.3655L15.9053 17.2892L16.2101 17.2904ZM30.2431 17.4108L30.2428 17.4871L29.9381 17.4859L29.9383 17.4096L30.2431 17.4108ZM1.74638 17.4887L1.74667 17.4124L2.05143 17.4135L2.05114 17.4898L1.74638 17.4887ZM16.2095 17.443L16.2092 17.5193L15.9045 17.5182L15.9048 17.4418L16.2095 17.443ZM30.2425 17.5634L30.2422 17.6397L29.9375 17.6386L29.9378 17.5623L30.2425 17.5634ZM1.7458 17.6413L1.74609 17.565L2.05085 17.5661L2.05056 17.6424L1.7458 17.6413ZM16.209 17.5956L16.2087 17.6719L15.9039 17.6708L15.9042 17.5945L16.209 17.5956ZM30.242 17.716L30.2417 17.7923L29.9369 17.7912L29.9372 17.7149L30.242 17.716ZM1.74523 17.7939L1.74551 17.7176L2.05027 17.7188L2.04999 17.7951L1.74523 17.7939ZM16.2084 17.7482L16.2081 17.8245L15.9033 17.8234L15.9036 17.7471L16.2084 17.7482ZM30.2414 17.8686L30.2411 17.9449L29.9363 17.9438L29.9366 17.8675L30.2414 17.8686ZM1.74465 17.9465L1.74494 17.8702L2.0497 17.8714L2.04941 17.9477L1.74465 17.9465ZM16.2078 17.9009L16.2075 17.9772L15.9028 17.976L15.9031 17.8997L16.2078 17.9009ZM30.2408 18.0212L30.2405 18.0976L29.9358 18.0964L29.9361 18.0201L30.2408 18.0212ZM1.74407 18.0992L1.74436 18.0229L2.04912 18.024L2.04883 18.1003L1.74407 18.0992ZM16.2072 18.0535L16.207 18.1298L15.9022 18.1287L15.9025 18.0524L16.2072 18.0535ZM30.2402 18.1739L30.24 18.2502L29.9352 18.249L29.9355 18.1727L30.2402 18.1739ZM1.7435 18.2518L1.74379 18.1755L2.04855 18.1766L2.04826 18.253L1.7435 18.2518ZM16.2067 18.2061L16.2064 18.2824L15.9016 18.2813L15.9019 18.205L16.2067 18.2061ZM30.2397 18.3265L30.2394 18.4028L29.9346 18.4017L29.9349 18.3253L30.2397 18.3265ZM1.74292 18.4044L1.74321 18.3281L2.04797 18.3293L2.04768 18.4056L1.74292 18.4044ZM16.2061 18.3587L16.2058 18.4351L15.9011 18.4339L15.9013 18.3576L16.2061 18.3587ZM30.2391 18.4791L30.2388 18.5554L29.9341 18.5543L29.9343 18.478L30.2391 18.4791ZM1.74235 18.5571L1.74264 18.4807L2.04739 18.4819L2.04711 18.5582L1.74235 18.5571ZM16.2055 18.5114L16.2053 18.5877L15.9005 18.5865L15.9008 18.5102L16.2055 18.5114ZM30.2385 18.6317L30.2383 18.708L29.9335 18.7069L29.9338 18.6306L30.2385 18.6317ZM1.74177 18.7097L1.74206 18.6334L2.04682 18.6345L2.04653 18.7108L1.74177 18.7097ZM16.205 18.664L16.2047 18.7403L15.8999 18.7392L15.9002 18.6629L16.205 18.664ZM30.238 18.7843L30.2377 18.8607L29.9329 18.8595L29.9332 18.7832L30.238 18.7843ZM1.7412 18.8623L1.74148 18.786L2.04624 18.7871L2.04596 18.8635L1.7412 18.8623ZM16.2044 18.8166L16.2041 18.8929L15.8994 18.8918L15.8996 18.8155L16.2044 18.8166ZM30.2374 18.937L30.2371 19.0133L29.9324 19.0121L29.9326 18.9358L30.2374 18.937ZM1.74062 19.0149L1.74091 18.9386L2.04567 18.9398L2.04538 19.0161L1.74062 19.0149ZM16.2038 18.9692L16.2035 19.0456L15.8988 19.0444L15.8991 18.9681L16.2038 18.9692ZM30.2368 19.0896L30.2365 19.1659L29.9318 19.1648L29.9321 19.0884L30.2368 19.0896ZM1.74004 19.1676L1.74033 19.0912L2.04509 19.0924L2.0448 19.1687L1.74004 19.1676ZM16.2033 19.1219L16.203 19.1982L15.8982 19.197L15.8985 19.1207L16.2033 19.1219ZM30.2363 19.2422L30.236 19.3185L29.9312 19.3174L29.9315 19.2411L30.2363 19.2422ZM1.73947 19.3202L1.73976 19.2439L2.04452 19.245L2.04423 19.3213L1.73947 19.3202ZM16.2027 19.2745L16.2024 19.3508L15.8976 19.3497L15.8979 19.2734L16.2027 19.2745ZM30.2357 19.3948L30.2354 19.4711L29.9306 19.47L29.9309 19.3937L30.2357 19.3948ZM1.73889 19.4728L1.73918 19.3965L2.04394 19.3976L2.04365 19.474L1.73889 19.4728ZM16.2021 19.4271L16.2018 19.5034L15.8971 19.5023L15.8974 19.426L16.2021 19.4271ZM30.2351 19.5474L30.2348 19.6238L29.9301 19.6226L29.9304 19.5463L30.2351 19.5474ZM1.73832 19.6254L1.7386 19.5491L2.04336 19.5503L2.04308 19.6266L1.73832 19.6254ZM16.2015 19.5798L16.2013 19.6561L15.8965 19.6549L15.8968 19.5786L16.2015 19.5798ZM30.2345 19.7001L30.2343 19.7764L29.9295 19.7752L29.9298 19.6989L30.2345 19.7001ZM1.73774 19.7781L1.73803 19.7018L2.04279 19.7029L2.0425 19.7792L1.73774 19.7781ZM16.201 19.7324L16.2007 19.8087L15.8959 19.8076L15.8962 19.7312L16.201 19.7324ZM30.234 19.8527L30.2337 19.929L29.9289 19.9279L29.9292 19.8515L30.234 19.8527ZM1.73717 19.9307L1.73745 19.8544L2.04221 19.8555L2.04192 19.9318L1.73717 19.9307ZM16.2004 19.885L16.2001 19.9613L15.8954 19.9602L15.8956 19.8839L16.2004 19.885ZM30.2334 20.0053L30.2331 20.0816L29.9284 20.0805L29.9286 20.0042L30.2334 20.0053ZM1.73659 20.0833L1.73688 20.007L2.04164 20.0082L2.04135 20.0845L1.73659 20.0833ZM16.1998 20.0376L16.1996 20.1139L15.8948 20.1128L15.8951 20.0365L16.1998 20.0376ZM30.2328 20.1579L30.2326 20.2342L29.9278 20.2331L29.9281 20.1568L30.2328 20.1579ZM1.73601 20.2359L1.7363 20.1596L2.04106 20.1608L2.04077 20.2371L1.73601 20.2359ZM16.1993 20.1903L16.199 20.2666L15.8942 20.2654L15.8945 20.1891L16.1993 20.1903ZM30.2323 20.3105L30.232 20.3868L29.9272 20.3857L29.9275 20.3094L30.2323 20.3105ZM1.73544 20.3886L1.73573 20.3123L2.04049 20.3134L2.0402 20.3897L1.73544 20.3886ZM16.1987 20.3429L16.1984 20.4192L15.8937 20.4181L15.8939 20.3417L16.1987 20.3429ZM30.2317 20.4632L30.2314 20.5395L29.9267 20.5383L29.9269 20.462L30.2317 20.4632ZM1.73486 20.5412L1.73515 20.4649L2.03991 20.466L2.03962 20.5423L1.73486 20.5412ZM16.1981 20.4955L16.1978 20.5718L15.8931 20.5707L15.8934 20.4944L16.1981 20.4955ZM30.2311 20.6158L30.2308 20.6921L29.9261 20.6909L29.9264 20.6146L30.2311 20.6158ZM1.73429 20.6938L1.73457 20.6175L2.03933 20.6187L2.03905 20.695L1.73429 20.6938ZM16.1976 20.6481L16.1973 20.7244L15.8925 20.7233L15.8928 20.647L16.1976 20.6481ZM30.2306 20.7684L30.2303 20.8447L29.9255 20.8436L29.9258 20.7673L30.2306 20.7684ZM1.73371 20.8464L1.734 20.7701L2.03876 20.7713L2.03847 20.8476L1.73371 20.8464ZM16.197 20.8008L16.1967 20.8771L15.8919 20.8759L15.8922 20.7996L16.197 20.8008ZM30.23 20.921L30.2297 20.9973L29.9249 20.9962L29.9252 20.9199L30.23 20.921ZM1.73313 20.9991L1.73342 20.9228L2.03818 20.9239L2.03789 21.0002L1.73313 20.9991ZM16.1964 20.9534L16.1961 21.0297L15.8914 21.0286L15.8917 20.9523L16.1964 20.9534ZM30.2294 21.0736L30.2291 21.1499L29.9244 21.1488L29.9247 21.0725L30.2294 21.0736ZM1.73256 21.1517L1.73285 21.0754L2.03761 21.0765L2.03732 21.1529L1.73256 21.1517ZM16.1958 21.106L16.1956 21.1823L15.8908 21.1812L15.8911 21.1049L16.1958 21.106ZM30.2288 21.2263L30.2286 21.3026L29.9238 21.3014L29.9241 21.2251L30.2288 21.2263ZM1.73198 21.3043L1.73227 21.228L2.03703 21.2292L2.03674 21.3055L1.73198 21.3043ZM16.1953 21.2586L16.195 21.335L15.8902 21.3338L15.8905 21.2575L16.1953 21.2586ZM30.2283 21.3789L30.228 21.4552L29.9232 21.454L29.9235 21.3777L30.2283 21.3789ZM1.73141 21.457L1.7317 21.3806L2.03645 21.3818L2.03617 21.4581L1.73141 21.457ZM16.1947 21.4113L16.1944 21.4876L15.8897 21.4864L15.8899 21.4101L16.1947 21.4113ZM30.2277 21.5315L30.2274 21.6078L29.9227 21.6067L29.9229 21.5304L30.2277 21.5315ZM1.73083 21.6096L1.73112 21.5333L2.03588 21.5344L2.03559 21.6107L1.73083 21.6096ZM16.1941 21.5639L16.1939 21.6402L15.8891 21.6391L15.8894 21.5628L16.1941 21.5639ZM30.2271 21.6841L30.2269 21.7604L29.9221 21.7593L29.9224 21.683L30.2271 21.6841ZM1.73026 21.7622L1.73054 21.6859L2.0353 21.687L2.03502 21.7634L1.73026 21.7622ZM16.1936 21.7165L16.1933 21.7928L15.8885 21.7917L15.8888 21.7154L16.1936 21.7165ZM30.2266 21.8367L30.2263 21.913L29.9215 21.9119L29.9218 21.8356L30.2266 21.8367ZM1.72968 21.9148L1.72997 21.8385L2.03473 21.8397L2.03444 21.916L1.72968 21.9148ZM16.193 21.8691L16.1927 21.9455L15.888 21.9443L15.8882 21.868L16.193 21.8691ZM30.226 21.9894L30.2257 22.0657L29.921 22.0645L29.9212 21.9882L30.226 21.9894ZM1.7291 22.0675L1.72939 21.9911L2.03415 21.9923L2.03386 22.0686L1.7291 22.0675ZM16.1924 22.0218L16.1921 22.0981L15.8874 22.0969L15.8877 22.0206L16.1924 22.0218ZM30.2254 22.142L30.2251 22.2183L29.9204 22.2171L29.9207 22.1408L30.2254 22.142ZM1.72853 22.2201L1.72882 22.1438L2.03358 22.1449L2.03329 22.2212L1.72853 22.2201ZM16.1919 22.1744L16.1916 22.2507L15.8868 22.2496L15.8871 22.1733L16.1919 22.1744ZM30.2249 22.2946L30.2246 22.3709L29.9198 22.3698L29.9201 22.2934L30.2249 22.2946ZM1.72795 22.3727L1.72824 22.2964L2.033 22.2975L2.03271 22.3739L1.72795 22.3727ZM16.1913 22.327L16.191 22.4033L15.8862 22.4022L15.8865 22.3259L16.1913 22.327ZM30.2243 22.4472L30.224 22.5235L29.9192 22.5224L29.9195 22.4461L30.2243 22.4472ZM1.72738 22.5253L1.72766 22.449L2.03242 22.4502L2.03214 22.5265L1.72738 22.5253ZM16.1907 22.4796L16.1904 22.556L15.8857 22.5548L15.886 22.4785L16.1907 22.4796ZM30.2237 22.5998L30.2234 22.6761L29.9187 22.675L29.919 22.5987L30.2237 22.5998ZM1.7268 22.678L1.72709 22.6017L2.03185 22.6028L2.03156 22.6791L1.7268 22.678ZM16.1901 22.6323L16.1899 22.7086L15.8851 22.7074L15.8854 22.6311L16.1901 22.6323ZM30.2231 22.7524L30.2229 22.8288L29.9181 22.8276L29.9184 22.7513L30.2231 22.7524ZM1.72623 22.8306L1.72651 22.7543L2.03127 22.7554L2.03098 22.8317L1.72623 22.8306ZM16.1896 22.7849L16.1893 22.8612L15.8845 22.8601L15.8848 22.7838L16.1896 22.7849ZM30.2226 22.9051L30.2223 22.9814L29.9175 22.9802L29.9178 22.9039L30.2226 22.9051ZM1.72565 22.9832L1.72594 22.9069L2.0307 22.9081L2.03041 22.9844L1.72565 22.9832ZM16.189 22.9375L16.1887 23.0138L15.884 23.0127L15.8842 22.9364L16.189 22.9375ZM30.222 23.0577L30.2217 23.134L29.917 23.1329L29.9172 23.0565L30.222 23.0577ZM1.72507 23.1358L1.72536 23.0595L2.03012 23.0607L2.02983 23.137L1.72507 23.1358ZM16.1884 23.0901L16.1882 23.1665L15.8834 23.1653L15.8837 23.089L16.1884 23.0901ZM30.2214 23.2103L30.2212 23.2866L29.9164 23.2855L29.9167 23.2092L30.2214 23.2103ZM1.7245 23.2885L1.72479 23.2122L2.02955 23.2133L2.02926 23.2896L1.7245 23.2885ZM16.1879 23.2428L16.1876 23.3191L15.8828 23.3179L15.8831 23.2416L16.1879 23.2428ZM30.2209 23.3629L30.2206 23.4392L29.9158 23.4381L29.9161 23.3618L30.2209 23.3629ZM1.72392 23.4411L1.72421 23.3648L2.02897 23.3659L2.02868 23.4422L1.72392 23.4411ZM16.1873 23.3954L16.187 23.4717L15.8823 23.4706L15.8825 23.3943L16.1873 23.3954ZM30.2203 23.5155L30.22 23.5919L29.9153 23.5907L29.9155 23.5144L30.2203 23.5155ZM1.72335 23.5937L1.72363 23.5174L2.02839 23.5186L2.02811 23.5949L1.72335 23.5937ZM16.1867 23.548L16.1864 23.6243L15.8817 23.6232L15.882 23.5469L16.1867 23.548ZM30.2197 23.6682L30.2194 23.7445L29.9147 23.7433L29.915 23.667L30.2197 23.6682ZM1.72277 23.7463L1.72306 23.67L2.02782 23.6712L2.02753 23.7475L1.72277 23.7463ZM16.1862 23.7006L16.1859 23.777L15.8811 23.7758L15.8814 23.6995L16.1862 23.7006ZM30.2192 23.8208L30.2189 23.8971L29.9141 23.896L29.9144 23.8196L30.2192 23.8208ZM1.72219 23.899L1.72248 23.8227L2.02724 23.8238L2.02695 23.9001L1.72219 23.899ZM16.1856 23.8533L16.1853 23.9296L15.8805 23.9284L15.8808 23.8521L16.1856 23.8533ZM30.2186 23.9734L30.2183 24.0497L29.9135 24.0486L29.9138 23.9723L30.2186 23.9734ZM1.72162 24.0516L1.72191 23.9753L2.02667 23.9764L2.02638 24.0527L1.72162 24.0516ZM16.185 24.0059L16.1847 24.0822L15.88 24.0811L15.8803 24.0048L16.185 24.0059ZM30.218 24.126L30.2177 24.2023L29.913 24.2012L29.9133 24.1249L30.218 24.126ZM1.72104 24.2042L1.72133 24.1279L2.02609 24.1291L2.0258 24.2054L1.72104 24.2042ZM16.1844 24.1585L16.1842 24.2348L15.8794 24.2337L15.8797 24.1574L16.1844 24.1585ZM30.2174 24.2786L30.2172 24.355L29.9124 24.3538L29.9127 24.2775L30.2174 24.2786ZM1.72047 24.3569L1.72076 24.2805L2.02551 24.2817L2.02523 24.358L1.72047 24.3569ZM16.1839 24.3111L16.1836 24.3875L15.8788 24.3863L15.8791 24.31L16.1839 24.3111ZM30.2169 24.4313L30.2166 24.5076L29.9118 24.5064L29.9121 24.4301L30.2169 24.4313ZM1.71989 24.5095L1.72018 24.4332L2.02494 24.4343L2.02465 24.5106L1.71989 24.5095ZM16.1833 24.4638L16.183 24.5401L15.8783 24.5389L15.8785 24.4626L16.1833 24.4638ZM30.2163 24.5839L30.216 24.6602L29.9113 24.6591L29.9115 24.5827L30.2163 24.5839ZM1.71932 24.6621L1.7196 24.5858L2.02436 24.5869L2.02408 24.6633L1.71932 24.6621ZM16.1827 24.6164L16.1825 24.6927L15.8777 24.6916L15.878 24.6153L16.1827 24.6164ZM30.2157 24.7365L30.2155 24.8128L29.9107 24.8117L29.911 24.7354L30.2157 24.7365ZM1.71874 24.8147L1.71903 24.7384L2.02379 24.7396L2.0235 24.8159L1.71874 24.8147ZM16.1822 24.769L16.1819 24.8453L15.8771 24.8442L15.8774 24.7679L16.1822 24.769ZM30.2152 24.8891L30.2149 24.9654L29.9101 24.9643L29.9104 24.888L30.2152 24.8891ZM1.71816 24.9674L1.71845 24.891L2.02321 24.8922L2.02292 24.9685L1.71816 24.9674ZM16.1816 24.9216L16.1813 24.998L15.8766 24.9968L15.8768 24.9205L16.1816 24.9216ZM30.2146 25.0417L30.2143 25.118L29.9096 25.1169L29.9098 25.0406L30.2146 25.0417ZM1.71759 25.12L1.71788 25.0437L2.02264 25.0448L2.02235 25.1211L1.71759 25.12ZM16.181 25.0743L16.1807 25.1506L15.876 25.1494L15.8763 25.0731L16.181 25.0743ZM30.214 25.1944L30.2137 25.2707L29.909 25.2695L29.9093 25.1932L30.214 25.1944ZM1.71701 25.2726L1.7173 25.1963L2.02206 25.1974L2.02177 25.2738L1.71701 25.2726ZM16.1805 25.2269L16.1802 25.3032L15.8754 25.3021L15.8757 25.2258L16.1805 25.2269ZM30.2135 25.347L30.2132 25.4233L29.9084 25.4221L29.9087 25.3458L30.2135 25.347ZM1.71644 25.4252L1.71672 25.3489L2.02148 25.3501L2.0212 25.4264L1.71644 25.4252ZM16.1799 25.3795L16.1796 25.4558L15.8748 25.4547L15.8751 25.3784L16.1799 25.3795ZM30.2129 25.4996L30.2126 25.5759L29.9078 25.5748L29.9081 25.4985L30.2129 25.4996ZM1.71586 25.5779L1.71615 25.5016L2.02091 25.5027L2.02062 25.579L1.71586 25.5779ZM16.1793 25.5321L16.179 25.6085L15.8743 25.6073L15.8746 25.531L16.1793 25.5321ZM30.2123 25.6522L30.212 25.7285L29.9073 25.7274L29.9076 25.6511L30.2123 25.6522ZM1.71529 25.7305L1.71557 25.6542L2.02033 25.6553L2.02004 25.7316L1.71529 25.7305ZM16.1787 25.6848L16.1785 25.7611L15.8737 25.7599L15.874 25.6836L16.1787 25.6848ZM30.2117 25.8048L30.2115 25.8811L30.0186 25.8804L30.0453 25.9568L30.2112 25.9575L30.2106 26.1033L30.0731 26.1514L30.0183 25.9949L29.9378 25.9946L30.0014 26.1765L29.9297 26.2016L29.8291 25.9139L29.9008 25.8888L29.9244 25.9564L30.005 25.9567L29.9782 25.8803L29.9067 25.88L29.907 25.8037L30.2117 25.8048ZM1.71471 25.8831L1.715 25.8068L2.01976 25.808L2.01947 25.8843L1.94673 25.884L1.92025 25.9602L2.001 25.9605L2.02489 25.8918L2.09703 25.9168L1.997 26.2047L1.92486 26.1796L1.98778 25.9985L1.90703 25.9982L1.85271 26.1546L1.71387 26.1063L1.71442 25.9594L1.87987 25.9601L1.90636 25.8838L1.71471 25.8831ZM16.1782 25.8374L16.1779 25.9137L15.8731 25.9126L15.8734 25.8363L16.1782 25.8374ZM29.858 26.2267L29.7863 26.2518L29.6857 25.9641L29.7574 25.939L29.858 26.2267ZM2.14129 26.2548L2.06914 26.2298L2.16918 25.9419L2.24132 25.967L2.14129 26.2548ZM16.1776 25.99L16.1773 26.0663L15.8726 26.0652L15.8728 25.9889L16.1776 25.99ZM29.7147 26.2768L29.643 26.3019L29.5423 26.0143L29.614 25.9892L29.7147 26.2768ZM2.28558 26.305L2.21343 26.2799L2.31347 25.992L2.38561 26.0171L2.28558 26.305ZM29.5713 26.327L29.4996 26.3521L29.3989 26.0644L29.4706 26.0393L29.5713 26.327ZM2.42986 26.3551L2.35772 26.33L2.45775 26.0422L2.5299 26.0672L2.42986 26.3551ZM29.4279 26.3772L29.3562 26.4023L29.2555 26.1146L29.3272 26.0895L29.4279 26.3772ZM2.57415 26.4053L2.50201 26.3802L2.60204 26.0923L2.67418 26.1174L2.57415 26.4053ZM29.2845 26.4273L29.2128 26.4524L29.1122 26.1648L29.1838 26.1397L29.2845 26.4273ZM16.177 26.1426L16.1768 26.219L15.872 26.2178L15.8723 26.1415L16.177 26.1426ZM2.71844 26.4554L2.64629 26.4303L2.74633 26.1424L2.81847 26.1675L2.71844 26.4554ZM29.1411 26.4775L29.0694 26.5026L28.9688 26.2149L29.0405 26.1899L29.1411 26.4775ZM2.86273 26.5055L2.79058 26.4805L2.89062 26.1926L2.96276 26.2176L2.86273 26.5055ZM28.9977 26.5277L28.926 26.5528L28.8254 26.2651L28.8971 26.24L28.9977 26.5277ZM3.00701 26.5557L2.93487 26.5306L3.0349 26.2427L3.10705 26.2678L3.00701 26.5557ZM28.8543 26.5779L28.7826 26.6029L28.682 26.3153L28.7537 26.2902L28.8543 26.5779ZM3.1513 26.6058L3.07916 26.5807L3.17919 26.2929L3.25133 26.3179L3.1513 26.6058ZM16.1765 26.2953L16.1762 26.3716L15.8714 26.3704L15.8717 26.2941L16.1765 26.2953ZM28.711 26.628L28.6393 26.6531L28.5386 26.3654L28.6103 26.3404L28.711 26.628ZM3.29559 26.6559L3.22345 26.6309L3.32348 26.343L3.39562 26.3681L3.29559 26.6559ZM28.5676 26.6782L28.4959 26.7033L28.3952 26.4156L28.4669 26.3905L28.5676 26.6782ZM3.43988 26.7061L3.36773 26.681L3.46777 26.3931L3.53991 26.4182L3.43988 26.7061ZM28.4242 26.7284L28.3525 26.7534L28.2518 26.4658L28.3235 26.4407L28.4242 26.7284ZM3.58416 26.7562L3.51202 26.7311L3.61205 26.4433L3.6842 26.4683L3.58416 26.7562ZM16.1759 26.4479L16.1756 26.5242L15.8709 26.5231L15.8711 26.4468L16.1759 26.4479ZM28.2808 26.7785L28.2091 26.8036L28.1085 26.516L28.1801 26.4909L28.2808 26.7785ZM3.72845 26.8064L3.65631 26.7813L3.75634 26.4934L3.82849 26.5185L3.72845 26.8064ZM28.1374 26.8287L28.0657 26.8538L27.9651 26.5661L28.0368 26.541L28.1374 26.8287ZM3.87274 26.8565L3.8006 26.8314L3.90063 26.5435L3.97277 26.5686L3.87274 26.8565ZM27.994 26.8789L27.9223 26.904L27.8217 26.6163L27.8934 26.5912L27.994 26.8789ZM4.01703 26.9066L3.94488 26.8816L4.04492 26.5937L4.11706 26.6188L4.01703 26.9066ZM16.1753 26.6005L16.175 26.6768L15.8703 26.6757L15.8706 26.5994L16.1753 26.6005ZM27.8506 26.929L27.7789 26.9541L27.6783 26.6665L27.75 26.6414L27.8506 26.929ZM4.16132 26.9568L4.08917 26.9317L4.18921 26.6438L4.26135 26.6689L4.16132 26.9568ZM27.7073 26.9792L27.6356 27.0043L27.5349 26.7166L27.6066 26.6915L27.7073 26.9792ZM4.3056 27.0069L4.23346 26.9818L4.33349 26.694L4.40564 26.719L4.3056 27.0069ZM27.5639 27.0294L27.4922 27.0545L27.3915 26.7668L27.4632 26.7417L27.5639 27.0294ZM4.44989 27.057L4.37775 27.032L4.47778 26.7441L4.54992 26.7692L4.44989 27.057ZM16.1748 26.7531L16.1745 26.8295L15.8697 26.8283L15.87 26.752L16.1748 26.7531ZM27.4205 27.0795L27.3488 27.1046L27.2481 26.817L27.3198 26.7919L27.4205 27.0795ZM4.59418 27.1072L4.52203 27.0821L4.62207 26.7942L4.69421 26.8193L4.59418 27.1072ZM27.2771 27.1297L27.2054 27.1548L27.1048 26.8671L27.1764 26.8421L27.2771 27.1297ZM4.73847 27.1573L4.66632 27.1323L4.76636 26.8444L4.8385 26.8694L4.73847 27.1573ZM27.1337 27.1799L27.062 27.205L26.9614 26.9173L27.0331 26.8922L27.1337 27.1799ZM4.88275 27.2075L4.81061 27.1824L4.91064 26.8945L4.98279 26.9196L4.88275 27.2075ZM16.1742 26.9058L16.1739 26.9821L15.8691 26.9809L15.8694 26.9046L16.1742 26.9058ZM26.9903 27.2301L26.9186 27.2551L26.818 26.9675L26.8897 26.9424L26.9903 27.2301ZM5.02704 27.2576L4.9549 27.2325L5.05493 26.9447L5.12707 26.9697L5.02704 27.2576ZM26.8469 27.2802L26.7753 27.3053L26.6746 27.0176L26.7463 26.9926L26.8469 27.2802ZM5.17133 27.3077L5.09919 27.2827L5.19922 26.9948L5.27136 27.0199L5.17133 27.3077ZM26.7036 27.3304L26.6319 27.3555L26.5312 27.0678L26.6029 27.0427L26.7036 27.3304ZM5.31562 27.3579L5.24347 27.3328L5.34351 27.0449L5.41565 27.07L5.31562 27.3579ZM16.1736 27.0584L16.1733 27.1347L15.8686 27.1336L15.8689 27.0573L16.1736 27.0584ZM26.5602 27.3806L26.4885 27.4056L26.3878 27.118L26.4595 27.0929L26.5602 27.3806ZM5.4599 27.408L5.38776 27.3829L5.48779 27.0951L5.55994 27.1201L5.4599 27.408ZM26.4168 27.4307L26.3451 27.4558L26.2444 27.1682L26.3161 27.1431L26.4168 27.4307ZM5.60419 27.4581L5.53205 27.4331L5.63208 27.1452L5.70423 27.1703L5.60419 27.4581ZM26.2734 27.4809L26.2017 27.506L26.1011 27.2183L26.1728 27.1932L26.2734 27.4809ZM5.74848 27.5083L5.67634 27.4832L5.77637 27.1953L5.84851 27.2204L5.74848 27.5083ZM16.173 27.211L16.1728 27.2873L15.868 27.2862L15.8683 27.2099L16.173 27.211ZM26.13 27.5311L26.0583 27.5562L25.9577 27.2685L26.0294 27.2434L26.13 27.5311ZM5.89277 27.5584L5.82062 27.5334L5.92066 27.2455L5.9928 27.2705L5.89277 27.5584ZM25.9866 27.5812L25.9149 27.6063L25.8143 27.3187L25.886 27.2936L25.9866 27.5812ZM6.03706 27.6086L5.96491 27.5835L6.06495 27.2956L6.13709 27.3207L6.03706 27.6086ZM25.8432 27.6314L25.7716 27.6565L25.6709 27.3688L25.7426 27.3437L25.8432 27.6314ZM6.18134 27.6587L6.1092 27.6336L6.20923 27.3458L6.28138 27.3708L6.18134 27.6587ZM16.1725 27.3636L16.1722 27.44L15.8674 27.4388L15.8677 27.3625L16.1725 27.3636ZM25.6999 27.6816L25.6282 27.7067L25.5275 27.419L25.5992 27.3939L25.6999 27.6816ZM6.32563 27.7088L6.25349 27.6838L6.35352 27.3959L6.42566 27.421L6.32563 27.7088ZM25.5565 27.7317L25.4848 27.7568L25.3841 27.4692L25.4558 27.4441L25.5565 27.7317ZM6.46992 27.759L6.39777 27.7339L6.49781 27.446L6.56995 27.4711L6.46992 27.759ZM25.4131 27.7819L25.3414 27.807L25.2407 27.5193L25.3124 27.4942L25.4131 27.7819ZM6.61421 27.8091L6.54206 27.784L6.6421 27.4962L6.71424 27.5212L6.61421 27.8091ZM16.1719 27.5163L16.1716 27.5926L15.8669 27.5914L15.8671 27.5151L16.1719 27.5163ZM25.2697 27.8321L25.198 27.8572L25.0974 27.5695L25.1691 27.5444L25.2697 27.8321ZM6.75849 27.8593L6.68635 27.8342L6.78638 27.5463L6.85853 27.5714L6.75849 27.8593ZM25.1263 27.8822L25.0546 27.9073L24.954 27.6197L25.0257 27.5946L25.1263 27.8822ZM6.90278 27.9094L6.83064 27.8843L6.93067 27.5964L7.00281 27.6215L6.90278 27.9094ZM24.9829 27.9324L24.9112 27.9575L24.8106 27.6698L24.8823 27.6448L24.9829 27.9324ZM7.04707 27.9595L6.97492 27.9345L7.07496 27.6466L7.1471 27.6717L7.04707 27.9595ZM16.1713 27.6689L16.1711 27.7452L15.8663 27.7441L15.8666 27.6678L16.1713 27.6689ZM24.8395 27.9826L24.7679 28.0077L24.6672 27.72L24.7389 27.6949L24.8395 27.9826ZM7.19136 28.0097L7.11921 27.9846L7.21925 27.6967L7.29139 27.7218L7.19136 28.0097ZM24.6962 28.0328L24.6245 28.0578L24.5238 27.7702L24.5955 27.7451L24.6962 28.0328ZM7.33564 28.0598L7.2635 28.0347L7.36353 27.7469L7.43568 27.7719L7.33564 28.0598ZM24.5528 28.0829L24.4811 28.108L24.3804 27.8203L24.4521 27.7953L24.5528 28.0829ZM7.47993 28.1099L7.40779 28.0849L7.50782 27.797L7.57996 27.8221L7.47993 28.1099ZM16.1708 27.8215L16.1705 27.8978L15.8657 27.8967L15.866 27.8204L16.1708 27.8215ZM24.4094 28.1331L24.3377 28.1582L24.237 27.8705L24.3087 27.8454L24.4094 28.1331ZM7.62422 28.1601L7.55208 28.135L7.65211 27.8471L7.72425 27.8722L7.62422 28.1601ZM24.266 28.1833L24.1943 28.2083L24.0937 27.9207L24.1654 27.8956L24.266 28.1833ZM7.76851 28.2102L7.69636 28.1852L7.7964 27.8973L7.86854 27.9223L7.76851 28.2102ZM24.1226 28.2334L24.0509 28.2585L23.9503 27.9709L24.022 27.9458L24.1226 28.2334ZM7.91279 28.2604L7.84065 28.2353L7.94068 27.9474L8.01283 27.9725L7.91279 28.2604ZM16.1702 27.9741L16.1699 28.0505L15.8652 28.0493L15.8654 27.973L16.1702 27.9741ZM23.9792 28.2836L23.9075 28.3087L23.8069 28.021L23.8786 27.9959L23.9792 28.2836ZM8.05708 28.3105L7.98494 28.2854L8.08497 27.9976L8.15712 28.0226L8.05708 28.3105ZM23.8358 28.3338L23.7642 28.3589L23.6635 28.0712L23.7352 28.0461L23.8358 28.3338ZM8.20137 28.3606L8.12923 28.3356L8.22926 28.0477L8.3014 28.0728L8.20137 28.3606ZM23.6925 28.3839L23.6208 28.409L23.5201 28.1214L23.5918 28.0963L23.6925 28.3839ZM8.34566 28.4108L8.27351 28.3857L8.37355 28.0978L8.44569 28.1229L8.34566 28.4108ZM16.1696 28.1268L16.1693 28.2031L15.8646 28.2019L15.8649 28.1256L16.1696 28.1268ZM23.5491 28.4341L23.4774 28.4592L23.3767 28.1715L23.4484 28.1464L23.5491 28.4341ZM8.48995 28.4609L8.4178 28.4358L8.51784 28.148L8.58998 28.173L8.48995 28.4609ZM23.4057 28.4843L23.334 28.5094L23.2333 28.2217L23.305 28.1966L23.4057 28.4843ZM8.63423 28.511L8.56209 28.486L8.66212 28.1981L8.73427 28.2232L8.63423 28.511ZM23.2623 28.5344L23.1906 28.5595L23.09 28.2719L23.1617 28.2468L23.2623 28.5344ZM8.77852 28.5612L8.70638 28.5361L8.80641 28.2482L8.87855 28.2733L8.77852 28.5612ZM16.1691 28.2794L16.1688 28.3557L15.864 28.3546L15.8643 28.2783L16.1691 28.2794ZM23.1189 28.5846L23.0472 28.6097L22.9466 28.322L23.0183 28.297L23.1189 28.5846ZM8.92281 28.6113L8.85067 28.5863L8.9507 28.2984L9.02284 28.3234L8.92281 28.6113ZM22.9755 28.6348L22.9038 28.6599L22.8032 28.3722L22.8749 28.3471L22.9755 28.6348ZM9.0671 28.6615L8.99495 28.6364L9.09499 28.3485L9.16713 28.3736L9.0671 28.6615ZM22.8321 28.685L22.7605 28.71L22.6598 28.4224L22.7315 28.3973L22.8321 28.685ZM9.21138 28.7116L9.13924 28.6865L9.23927 28.3987L9.31142 28.4237L9.21138 28.7116ZM16.1685 28.432L16.1682 28.5083L15.8634 28.5072L15.8637 28.4309L16.1685 28.432ZM22.6888 28.7351L22.6171 28.7602L22.5164 28.4725L22.5881 28.4475L22.6888 28.7351ZM9.35567 28.7617L9.28353 28.7367L9.38356 28.4488L9.4557 28.4739L9.35567 28.7617ZM22.5454 28.7853L22.4737 28.8104L22.373 28.5227L22.4447 28.4976L22.5454 28.7853ZM9.49996 28.8119L9.42782 28.7868L9.52785 28.4989L9.59999 28.524L9.49996 28.8119ZM22.402 28.8355L22.3303 28.8605L22.2296 28.5729L22.3013 28.5478L22.402 28.8355ZM9.64425 28.862L9.5721 28.8369L9.67214 28.5491L9.74428 28.5741L9.64425 28.862ZM16.1679 28.5846L16.1676 28.661L15.8629 28.6598L15.8632 28.5835L16.1679 28.5846ZM22.2586 28.8856L22.1869 28.9107L22.0863 28.6231L22.158 28.598L22.2586 28.8856ZM9.78854 28.9122L9.71639 28.8871L9.81643 28.5992L9.88857 28.6243L9.78854 28.9122ZM22.1152 28.9358L22.0435 28.9609L21.9429 28.6732L22.0146 28.6481L22.1152 28.9358ZM9.93282 28.9623L9.86068 28.9372L9.96071 28.6493L10.0329 28.6744L9.93282 28.9623ZM21.9718 28.986L21.9001 29.0111L21.7995 28.7234L21.8712 28.6983L21.9718 28.986ZM10.0771 29.0124L10.005 28.9874L10.105 28.6995L10.1771 28.7245L10.0771 29.0124ZM16.1673 28.7373L16.1671 28.8136L15.8623 28.8124L15.8626 28.7361L16.1673 28.7373ZM21.8285 29.0361L21.7568 29.0612L21.6561 28.7736L21.7278 28.7485L21.8285 29.0361ZM10.2214 29.0626L10.1493 29.0375L10.2493 28.7496L10.3214 28.7747L10.2214 29.0626ZM21.6851 29.0863L21.6134 29.1114L21.5127 28.8237L21.5844 28.7986L21.6851 29.0863ZM10.3657 29.1127L10.2935 29.0876L10.3936 28.7998L10.4657 28.8248L10.3657 29.1127ZM21.5417 29.1365L21.47 29.1616L21.3693 28.8739L21.441 28.8488L21.5417 29.1365ZM10.51 29.1628L10.4378 29.1378L10.5379 28.8499L10.61 28.875L10.51 29.1628ZM16.1668 28.8899L16.1665 28.9662L15.8617 28.9651L15.862 28.8888L16.1668 28.8899ZM21.3983 29.1866L21.3266 29.2117L21.226 28.9241L21.2976 28.899L21.3983 29.1866ZM10.6543 29.213L10.5821 29.1879L10.6822 28.9L10.7543 28.9251L10.6543 29.213ZM21.2549 29.2368L21.1832 29.2619L21.0826 28.9742L21.1543 28.9491L21.2549 29.2368ZM10.7985 29.2631L10.7264 29.2381L10.8264 28.9502L10.8986 28.9752L10.7985 29.2631ZM21.1115 29.287L21.0398 29.3121L20.9392 29.0244L21.0109 28.9993L21.1115 29.287ZM10.9428 29.3133L10.8707 29.2882L10.9707 29.0003L11.0429 29.0254L10.9428 29.3133ZM16.1662 29.0425L16.1659 29.1188L15.8612 29.1177L15.8614 29.0414L16.1662 29.0425ZM20.9681 29.3372L20.8964 29.3622L20.7958 29.0746L20.8675 29.0495L20.9681 29.3372ZM11.0871 29.3634L11.015 29.3383L11.115 29.0504L11.1872 29.0755L11.0871 29.3634ZM20.8248 29.3873L20.7531 29.4124L20.6524 29.1247L20.7241 29.0997L20.8248 29.3873ZM11.2314 29.4135L11.1593 29.3885L11.2593 29.1006L11.3314 29.1257L11.2314 29.4135ZM20.6814 29.4375L20.6097 29.4626L20.509 29.1749L20.5807 29.1498L20.6814 29.4375ZM11.3757 29.4637L11.3036 29.4386L11.4036 29.1507L11.4757 29.1758L11.3757 29.4637ZM16.1656 29.1951L16.1654 29.2715L15.8606 29.2703L15.8609 29.194L16.1656 29.1951ZM20.538 29.4877L20.4663 29.5127L20.3656 29.2251L20.4373 29.2L20.538 29.4877ZM11.52 29.5138L11.4478 29.4887L11.5479 29.2009L11.62 29.2259L11.52 29.5138ZM20.3946 29.5378L20.3229 29.5629L20.2223 29.2752L20.2939 29.2502L20.3946 29.5378ZM11.6643 29.5639L11.5921 29.5389L11.6922 29.251L11.7643 29.2761L11.6643 29.5639ZM20.2512 29.588L20.1795 29.6131L20.0789 29.3254L20.1506 29.3003L20.2512 29.588ZM11.8086 29.6141L11.7364 29.589L11.8365 29.3011L11.9086 29.3262L11.8086 29.6141ZM16.1651 29.3478L16.1648 29.4241L15.86 29.4229L15.8603 29.3466L16.1651 29.3478ZM20.1078 29.6382L20.0361 29.6632L19.9355 29.3756L20.0072 29.3505L20.1078 29.6382ZM11.9529 29.6642L11.8807 29.6392L11.9807 29.3513L12.0529 29.3763L11.9529 29.6642ZM19.9644 29.6883L19.8927 29.7134L19.7921 29.4258L19.8638 29.4007L19.9644 29.6883ZM12.0971 29.7144L12.025 29.6893L12.125 29.4014L12.1972 29.4265L12.0971 29.7144ZM19.8211 29.7385L19.7494 29.7636L19.6487 29.4759L19.7204 29.4508L19.8211 29.7385ZM12.2414 29.7645L12.1693 29.7394L12.2693 29.4516L12.3415 29.4766L12.2414 29.7645ZM16.1645 29.5004L16.1642 29.5767L15.8595 29.5756L15.8597 29.4993L16.1645 29.5004ZM19.6777 29.7887L19.606 29.8138L19.5053 29.5261L19.577 29.501L19.6777 29.7887ZM12.3857 29.8146L12.3136 29.7896L12.4136 29.5017L12.4857 29.5268L12.3857 29.8146ZM19.5343 29.8388L19.4626 29.8639L19.3619 29.5763L19.4336 29.5512L19.5343 29.8388ZM12.53 29.8648L12.4579 29.8397L12.5579 29.5518L12.63 29.5769L12.53 29.8648ZM19.3909 29.889L19.3192 29.9141L19.2186 29.6264L19.2902 29.6014L19.3909 29.889ZM12.6743 29.9149L12.6021 29.8898L12.7022 29.602L12.7743 29.627L12.6743 29.9149ZM19.2475 29.9392L19.1758 29.9643L19.0752 29.6766L19.1469 29.6515L19.2475 29.9392ZM16.1639 29.653L16.1636 29.7293L15.8589 29.7282L15.8592 29.6519L16.1639 29.653ZM12.8186 29.9651L12.7464 29.94L12.8465 29.6521L12.9186 29.6772L12.8186 29.9651ZM19.1041 29.9894L19.0324 30.0144L18.9318 29.7268L19.0035 29.7017L19.1041 29.9894ZM12.9629 30.0152L12.8907 29.9901L12.9908 29.7022L13.0629 29.7273L12.9629 30.0152ZM18.9607 30.0395L18.889 30.0646L18.7884 29.7769L18.8601 29.7519L18.9607 30.0395ZM13.1072 30.0653L13.035 30.0403L13.135 29.7524L13.2072 29.7774L13.1072 30.0653ZM18.8173 30.0897L18.7457 30.1148L18.645 29.8271L18.7167 29.802L18.8173 30.0897ZM13.2514 30.1155L13.1793 30.0904L13.2793 29.8025L13.3515 29.8276L13.2514 30.1155ZM16.1634 29.8057L16.1631 29.882L15.8583 29.8808L15.8586 29.8045L16.1634 29.8057ZM18.674 30.1399L18.6023 30.1649L18.5016 29.8773L18.5733 29.8522L18.674 30.1399ZM13.3957 30.1656L13.3236 30.1405L13.4236 29.8527L13.4958 29.8777L13.3957 30.1656ZM18.5306 30.19L18.4589 30.2151L18.3582 29.9274L18.4299 29.9024L18.5306 30.19ZM13.54 30.2157L13.4679 30.1907L13.5679 29.9028L13.64 29.9279L13.54 30.2157ZM18.3872 30.2402L18.3155 30.2653L18.2148 29.9776L18.2865 29.9525L18.3872 30.2402ZM13.6843 30.2659L13.6122 30.2408L13.7122 29.9529L13.7843 29.978L13.6843 30.2659ZM16.1628 29.9583L16.1625 30.0346L15.8577 30.0334L15.858 29.9571L16.1628 29.9583ZM18.2438 30.2904L18.1721 30.3154L18.0715 30.0278L18.1432 30.0027L18.2438 30.2904ZM13.8286 30.316L13.7564 30.2909L13.8565 30.0031L13.9286 30.0281L13.8286 30.316ZM18.1004 30.3405L18.0287 30.3656L17.9281 30.078L17.9998 30.0529L18.1004 30.3405ZM13.9729 30.3662L13.9007 30.3411L14.0008 30.0532L14.0729 30.0783L13.9729 30.3662ZM17.957 30.3907L17.8853 30.4158L17.7847 30.1281L17.8564 30.103L17.957 30.3907ZM14.1172 30.4163L14.045 30.3912L14.1451 30.1033L14.2172 30.1284L14.1172 30.4163ZM16.1622 30.1109L16.1619 30.1872L15.8572 30.1861L15.8575 30.1098L16.1622 30.1109ZM17.8136 30.4409L17.742 30.466L17.6413 30.1783L17.713 30.1532L17.8136 30.4409ZM14.2615 30.4664L14.1893 30.4414L14.2893 30.1535L14.3615 30.1786L14.2615 30.4664ZM17.6703 30.491L17.5986 30.5161L17.4979 30.2285L17.5696 30.2034L17.6703 30.491ZM14.4057 30.5166L14.3336 30.4915L14.4336 30.2036L14.5058 30.2287L14.4057 30.5166ZM17.5269 30.5412L17.4552 30.5663L17.3545 30.2786L17.4262 30.2536L17.5269 30.5412ZM14.55 30.5667L14.4779 30.5416L14.5779 30.2538L14.6501 30.2788L14.55 30.5667ZM16.1616 30.2635L16.1614 30.3398L15.8566 30.3387L15.8569 30.2624L16.1616 30.2635ZM17.3835 30.5914L17.3118 30.6165L17.2111 30.3288L17.2828 30.3037L17.3835 30.5914ZM14.6943 30.6168L14.6222 30.5918L14.7222 30.3039L14.7943 30.329L14.6943 30.6168ZM17.2401 30.6415L17.1684 30.6666L17.0678 30.379L17.1395 30.3539L17.2401 30.6415ZM14.8386 30.667L14.7665 30.6419L14.8665 30.354L14.9386 30.3791L14.8386 30.667ZM17.0967 30.6917L17.025 30.7168L16.9244 30.4291L16.9961 30.4041L17.0967 30.6917ZM14.9829 30.7171L14.9107 30.6921L15.0108 30.4042L15.0829 30.4292L14.9829 30.7171ZM16.1611 30.4161L16.1608 30.4925L15.856 30.4913L15.8563 30.415L16.1611 30.4161ZM16.9533 30.7419L16.8816 30.767L16.781 30.4793L16.8527 30.4542L16.9533 30.7419ZM15.1272 30.7673L15.055 30.7422L15.1551 30.4543L15.2272 30.4794L15.1272 30.7673ZM16.8099 30.7921L16.7383 30.8171L16.6376 30.5295L16.7093 30.5044L16.8099 30.7921ZM15.2715 30.8174L15.1993 30.7923L15.2994 30.5045L15.3715 30.5295L15.2715 30.8174ZM16.6666 30.8422L16.5949 30.8673L16.4942 30.5796L16.5659 30.5546L16.6666 30.8422ZM15.4158 30.8675L15.3436 30.8425L15.4436 30.5546L15.5158 30.5797L15.4158 30.8675ZM16.1605 30.5688L16.1602 30.6451L15.8555 30.6439L15.8557 30.5676L16.1605 30.5688ZM15.56 30.9177L15.4879 30.8926L15.5879 30.6047L15.6601 30.6298L15.56 30.9177ZM16.5232 30.8924L16.4515 30.9175L16.3508 30.6298L16.4225 30.6047L16.5232 30.8924ZM15.7043 30.9678L15.6322 30.9427L15.7322 30.6549L15.8044 30.6799L15.7043 30.9678ZM16.3798 30.9426L16.3081 30.9676L16.2074 30.68L16.2791 30.6549L16.3798 30.9426ZM15.8486 31.0179L15.7765 30.9929L15.855 30.7669L15.8552 30.7203L15.8712 30.7203L15.8765 30.705L15.9211 30.7205L16.0898 30.7211L16.1358 30.7051L16.1414 30.7213L16.1599 30.7214L16.1597 30.7736L16.2364 30.9927L16.1647 31.0178L16.1277 30.9121L16.0471 30.9118L16.093 31.0429L16.007 31.073L15.9208 31.043L15.9665 30.9115L15.8857 30.9112L15.8486 31.0179ZM15.899 30.8731L15.9797 30.8734L15.9866 30.8536L15.9667 30.797L15.9255 30.7968L15.899 30.8731ZM16.0269 30.8539L16.0466 30.7973L16.0876 30.7974L16.1143 30.8739L16.0338 30.8736L16.0269 30.8539Z" fill="white"/>
<path d="M28.4899 18.8414L16.1417 23.1607L3.71582 18.8437L16.064 14.5229L28.4899 18.8414Z" fill="#E1C72E"/>
<path d="M28.4899 18.8414L28.4244 23.3633L16.0754 27.6833L16.1417 23.1607L28.4899 18.8414Z" fill="#E1C72E"/>
<path d="M16.1417 23.1607L16.0754 27.6833L3.64954 23.3656L3.71582 18.8437L16.1417 23.1607Z" fill="#E1C72E"/>
<path fill-rule="evenodd" clip-rule="evenodd" d="M16.0638 14.3616L28.6438 18.7336L28.5751 23.472L16.0755 27.8447L3.49548 23.4734L3.56494 18.735L16.0638 14.3616ZM16.0641 14.6843L4.17859 18.8432L16.1415 22.9993L28.027 18.8419L16.0641 14.6843ZM28.3343 19.0573L16.2925 23.2694L16.2309 27.4675L28.2735 23.2547L28.3343 19.0573ZM15.9261 27.4701L15.9877 23.2685L3.86502 19.0569L3.80344 23.2578L15.9261 27.4701Z" fill="white"/>
<path d="M22.3048 7.72618L16.0366 9.91894L9.72957 7.7277L15.997 5.53418L22.3048 7.72618Z" fill="#BEDC94"/>
<path d="M22.3048 7.72618L22.2713 16.645L16.0031 18.837L16.0366 9.91894L22.3048 7.72618Z" fill="#BEDC94"/>
<path d="M16.0366 9.91894L16.0031 18.837L9.69604 16.6458L9.72957 7.7277L16.0366 9.91894Z" fill="#BEDC94"/>
<path fill-rule="evenodd" clip-rule="evenodd" d="M15.9968 5.3728L22.4576 7.61796L22.4232 16.7533L16.0032 18.9984L9.54321 16.754L9.57755 7.61945L15.9968 5.3728ZM15.9971 5.69557L10.1923 7.72718L16.0364 9.75757L21.8419 7.72666L15.9971 5.69557ZM22.1516 7.94121L16.1885 10.0272L16.1562 18.622L22.1193 16.5368L22.1516 7.94121ZM15.8515 18.6231L15.8838 10.0272L9.8811 7.94169L9.84879 16.5376L15.8515 18.6231Z" fill="white"/>
<path d="M16.2156 9.85264L9.94738 12.0454L3.63957 9.85341L9.90853 7.66064L16.2156 9.85264Z" fill="#BEDC94"/>
<path d="M16.2156 9.85264L16.182 18.7715L9.91386 20.9635L9.94738 12.0454L16.2156 9.85264Z" fill="#BEDC94"/>
<path d="M9.94738 12.0454L9.91386 20.9635L3.60681 18.7723L3.63957 9.85341L9.94738 12.0454Z" fill="#BEDC94"/>
<path fill-rule="evenodd" clip-rule="evenodd" d="M9.90843 7.49927L16.3684 9.74443L16.3341 18.8798L9.91409 21.1249L3.4541 18.8805L3.48766 9.74514L9.90843 7.49927ZM9.90876 7.82202L4.10251 9.85294L9.94729 11.884L15.7528 9.85312L9.90876 7.82202ZM16.0625 10.0677L10.0994 12.1537L10.0671 20.7485L16.0301 18.6632L16.0625 10.0677ZM9.76235 20.7495L9.79466 12.1536L3.79124 10.0674L3.75966 18.664L9.76235 20.7495Z" fill="white"/>
<path d="M28.5874 9.85264L22.3185 12.0454L16.0114 9.85341L22.2796 7.66064L28.5874 9.85264Z" fill="#BEDC94"/>
<path d="M28.5874 9.85264L28.5539 18.7715L22.285 20.9635L22.3185 12.0454L28.5874 9.85264Z" fill="#BEDC94"/>
<path d="M22.3185 12.0454L22.285 20.9635L15.9779 18.7723L16.0114 9.85341L22.3185 12.0454Z" fill="#BEDC94"/>
<path fill-rule="evenodd" clip-rule="evenodd" d="M22.2794 7.49927L28.7402 9.74442L28.7058 18.8798L22.2851 21.1249L15.8251 18.8805L15.8594 9.74514L22.2794 7.49927ZM22.2797 7.82202L16.4742 9.85294L22.3183 11.884L28.1245 9.85311L22.2797 7.82202ZM28.4342 10.0677L22.4704 12.1537L22.4381 20.7485L28.4019 18.6632L28.4342 10.0677ZM22.1333 20.7495L22.1656 12.1536L16.163 10.0674L16.1307 18.664L22.1333 20.7495Z" fill="white"/>
</svg>
