<svg width="32" height="32" viewBox="0 0 32 32" fill="none" xmlns="http://www.w3.org/2000/svg">
<path d="M9.91917 15.3256C9.82984 15.2123 9.71186 15.1233 9.57664 15.0671C9.44141 15.0109 9.29352 14.9894 9.14726 15.0048C9.00099 15.0203 8.8613 15.072 8.74168 15.155C8.62207 15.238 8.52657 15.3496 8.46443 15.4788L1.093 29.7639C1.02585 29.8941 0.99414 30.0388 1.00089 30.1842C1.00764 30.3296 1.05263 30.4709 1.13157 30.5948C1.21052 30.7186 1.32081 30.8208 1.45196 30.8917C1.58312 30.9625 1.7308 30.9998 1.88097 30.9998H12.1453C12.3097 31.0035 12.4717 30.9608 12.6115 30.877C12.7514 30.7932 12.8632 30.6719 12.9333 30.5277C15.1474 26.0931 13.8056 19.3502 9.91917 15.3256Z" fill="url(#paint0_linear_17795_163193)"/>
<path d="M15.1591 1.47203C13.3112 4.29356 12.2343 7.54339 12.0341 10.9026C11.8339 14.2618 12.5173 17.6149 14.0173 20.6329L18.9959 30.5137C19.0695 30.6598 19.1827 30.7827 19.3227 30.8686C19.4627 30.9545 19.6241 31 19.7887 31H30.1137C30.2648 31 30.4133 30.9617 30.5453 30.8886C30.6772 30.8156 30.7882 30.7103 30.8676 30.5828C30.9471 30.4553 30.9923 30.3097 30.9991 30.1599C31.0059 30.0102 30.974 29.8612 30.9064 29.7271C30.9064 29.7271 17.0159 2.15612 16.6668 1.46651C16.5978 1.32614 16.4903 1.20792 16.3566 1.1254C16.223 1.04289 16.0686 0.999429 15.9112 1.00001C15.7538 1.00058 15.5998 1.04517 15.4667 1.12866C15.3337 1.21215 15.2271 1.33116 15.1591 1.47203V1.47203Z" fill="#2684FF"/>
<defs>
<linearGradient id="paint0_linear_17795_163193" x1="13.959" y1="17.5302" x2="6.53845" y2="30.7909" gradientUnits="userSpaceOnUse">
<stop stop-color="#0052CC"/>
<stop offset="0.923" stop-color="#2684FF"/>
</linearGradient>
</defs>
</svg>
