<svg width="44" height="36" viewBox="0 0 44 36" fill="none" xmlns="http://www.w3.org/2000/svg">
<path d="M4.27986 6C3.59771 6 3 6.59871 3 7.33333V28.6667C3 29.4013 3.59771 30 4.27986 30H39.7201C40.4023 30 41 29.4013 41 28.6667V7.33333C41 6.59871 40.4023 6 39.7201 6H4.27986V6ZM4.68889 7.77778H39.3111V9.97222L22 22.6805L4.68889 9.97222V7.77778V7.77778ZM4.68889 12.1389L13.5688 18.6667L4.68889 27.0694V12.1389V12.1389ZM39.3111 12.1389V27.0694L30.4313 18.6667L39.3111 12.1389ZM14.9937 19.7084L21.5118 24.5C21.6545 24.6064 21.8251 24.6636 22 24.6636C22.1749 24.6636 22.3455 24.6064 22.4882 24.5L29.0063 19.7084L38.0049 28.2222H5.99514L14.9937 19.7084V19.7084Z" fill="#222532"/>
</svg>
