<svg width="32" height="32" viewBox="0 0 32 32" fill="none" xmlns="http://www.w3.org/2000/svg">
<path d="M0 12C0 5.37258 5.37258 0 12 0H20C26.6274 0 32 5.37258 32 12V20C32 26.6274 26.6274 32 20 32H12C5.37258 32 0 26.6274 0 20V12Z" fill="#3A8CF7"/>
<g filter="url(#filter0_d_17771_163177)">
<path d="M14.1286 10.4266C14.0763 10.6337 14.0545 11.0309 14.1482 11.4073C14.6996 13.5924 22.0454 14.7528 22.8629 18.6708C22.9415 19.0682 23.1163 20.1162 22.8833 21.7265C22.4145 24.8506 19.5407 26 16.0411 26C12.4011 26 9 24.7449 9 20.5712V19.1437H14.1975L14.2042 20.9401C14.2042 21.9605 14.9279 22.6398 16.1379 22.6398C17.4336 22.6398 17.8706 22.0063 18.0295 21.3787C18.1226 21.0259 18.1793 20.4494 17.9917 20.0004C16.9902 17.5854 10.1065 16.4818 9.26785 12.6652C9.06441 11.722 9.08854 10.9859 9.22931 10.149C9.74363 7.10072 12.5548 6 15.9951 6C18.7336 6 22.5324 6.6472 22.5324 10.708V12.0195H17.7012V10.8641C17.7012 9.84726 17.0342 9.16866 15.9014 9.16866C14.68 9.16866 14.2609 9.83192 14.1286 10.4266Z" fill="white"/>
</g>
<defs>
<filter id="filter0_d_17771_163177" x="6" y="3" width="20" height="26" filterUnits="userSpaceOnUse" color-interpolation-filters="sRGB">
<feFlood flood-opacity="0" result="BackgroundImageFix"/>
<feColorMatrix in="SourceAlpha" type="matrix" values="0 0 0 0 0 0 0 0 0 0 0 0 0 0 0 0 0 0 127 0" result="hardAlpha"/>
<feOffset/>
<feGaussianBlur stdDeviation="1.5"/>
<feComposite in2="hardAlpha" operator="out"/>
<feColorMatrix type="matrix" values="0 0 0 0 0.0784314 0 0 0 0 0.156863 0 0 0 0 0.627451 0 0 0 0.75 0"/>
<feBlend mode="normal" in2="BackgroundImageFix" result="effect1_dropShadow_17771_163177"/>
<feBlend mode="normal" in="SourceGraphic" in2="effect1_dropShadow_17771_163177" result="shape"/>
</filter>
</defs>
</svg>
