<svg width="44" height="36" viewBox="0 0 44 36" fill="none" xmlns="http://www.w3.org/2000/svg">
<g clip-path="url(#clip0)">
<path fill-rule="evenodd" clip-rule="evenodd" d="M17.9989 3C16.3405 3.00122 14.9984 4.34434 14.9996 5.99939C14.9984 7.65443 16.3417 8.99755 18.0001 8.99878H21.0006V6.00061C21.0018 4.34557 19.6584 3.00245 17.9989 3C18.0001 3 18.0001 3 17.9989 3V3ZM17.9989 11H10C8.34165 11.0012 6.99829 12.3443 6.99952 13.9994C6.99706 15.6544 8.34042 16.9976 9.99878 17H17.9989C19.6572 16.9988 21.0006 15.6557 20.9994 14.0006C21.0006 12.3443 19.6572 11.0012 17.9989 11V11Z" fill="#36C5F0"/>
<path fill-rule="evenodd" clip-rule="evenodd" d="M36.9999 13.9994C37.0011 12.3443 35.6577 11.0012 33.9994 11C32.341 11.0012 30.9977 12.3443 30.9989 13.9994V17H33.9994C35.6577 16.9988 37.0011 15.6557 36.9999 13.9994ZM28.9998 13.9994V5.99939C29.001 4.34557 27.6589 3.00245 26.0005 3C24.3421 3.00122 22.9988 4.34434 23 5.99939V13.9994C22.9976 15.6544 24.3409 16.9976 25.9993 17C27.6576 16.9988 29.001 15.6557 28.9998 13.9994Z" fill="#2EB67D"/>
<path fill-rule="evenodd" clip-rule="evenodd" d="M25.999 33.0003C27.6574 32.9991 29.0007 31.6559 28.9995 30.0009C29.0007 28.3458 27.6574 27.0027 25.999 27.0015H22.9985V30.0009C22.9973 31.6547 24.3407 32.9978 25.999 33.0003ZM25.999 24.999H33.9991C35.6575 24.9978 37.0008 23.6547 36.9996 21.9996C37.002 20.3446 35.6587 19.0015 34.0003 18.999H26.0003C24.3419 19.0002 22.9985 20.3434 22.9998 21.9984C22.9985 23.6547 24.3407 24.9978 25.999 24.999V24.999Z" fill="#ECB22E"/>
<path fill-rule="evenodd" clip-rule="evenodd" d="M7 21.9994C6.99878 23.6544 8.34213 24.9976 10.0005 24.9988C11.6589 24.9976 13.0022 23.6544 13.001 21.9994V19H10.0005C8.34213 19.0012 6.99878 20.3443 7 21.9994ZM15.0001 21.9994V29.9994C14.9976 31.6545 16.341 32.9976 17.9994 33C19.6577 32.9988 21.0011 31.6557 20.9999 30.0006V22.0018C21.0023 20.3468 19.6589 19.0037 18.0006 19.0012C16.341 19.0012 14.9989 20.3443 15.0001 21.9994C15.0001 22.0006 15.0001 21.9994 15.0001 21.9994Z" fill="#E01E5A"/>
</g>
<defs>
<clipPath id="clip0">
<rect width="30" height="30" fill="white" transform="translate(7 3)"/>
</clipPath>
</defs>
</svg>
