<svg width="164" height="40" viewBox="0 0 164 40" fill="none" xmlns="http://www.w3.org/2000/svg">
<path d="M17.7493 33.0001L15.6108 27.3035H15.5744C15.5926 27.4915 15.6078 27.7463 15.6199 28.0679C15.632 28.3833 15.6381 28.714 15.6381 29.0598V33.0001H14.8828V26.5027H16.0931L18.0951 31.8262H18.1315L20.1699 26.5027H21.3711V33.0001H20.5612V29.0052C20.5612 28.6897 20.5673 28.3773 20.5794 28.0679C20.5976 27.7585 20.6128 27.5067 20.6249 27.3126H20.5885L18.4227 33.0001H17.7493Z" fill="#474952"/>
<path d="M27.1062 28.1225V33.0001H26.451L26.3327 32.354H26.2963C26.1385 32.6088 25.9201 32.7968 25.6411 32.9182C25.362 33.0334 25.0647 33.0911 24.7493 33.0911C24.1608 33.0911 23.7179 32.9515 23.4207 32.6725C23.1234 32.3873 22.9748 31.9354 22.9748 31.3166V28.1225H23.7847V31.262C23.7847 32.0385 24.1456 32.4268 24.8676 32.4268C25.4075 32.4268 25.7806 32.2751 25.9869 31.9718C26.1992 31.6684 26.3054 31.2316 26.3054 30.6614V28.1225H27.1062Z" fill="#474952"/>
<path d="M29.4555 33.0001H28.6547V26.0841H29.4555V33.0001Z" fill="#474952"/>
<path d="M32.6297 32.4359C32.751 32.4359 32.8754 32.4268 33.0028 32.4086C33.1302 32.3904 33.2333 32.3661 33.3122 32.3358V32.9455C33.2272 32.9879 33.1059 33.0213 32.9482 33.0456C32.7904 33.0759 32.6388 33.0911 32.4932 33.0911C32.2384 33.0911 32.0018 33.0486 31.7834 32.9637C31.571 32.8727 31.3981 32.718 31.2647 32.4996C31.1312 32.2812 31.0645 31.9748 31.0645 31.5805V28.7413H30.3729V28.3591L31.0736 28.0406L31.3921 27.0032H31.8653V28.1225H33.2758V28.7413H31.8653V31.5623C31.8653 31.8595 31.935 32.081 32.0746 32.2266C32.2202 32.3661 32.4052 32.4359 32.6297 32.4359Z" fill="#474952"/>
<path d="M34.6983 26.2934C34.8197 26.2934 34.9258 26.3358 35.0168 26.4208C35.1139 26.4996 35.1624 26.627 35.1624 26.803C35.1624 26.9789 35.1139 27.1093 35.0168 27.1943C34.9258 27.2731 34.8197 27.3126 34.6983 27.3126C34.5649 27.3126 34.4526 27.2731 34.3616 27.1943C34.2706 27.1093 34.2251 26.9789 34.2251 26.803C34.2251 26.627 34.2706 26.4996 34.3616 26.4208C34.4526 26.3358 34.5649 26.2934 34.6983 26.2934ZM35.0896 28.1225V33.0001H34.2888V28.1225H35.0896Z" fill="#474952"/>
<path d="M38.5914 33.0911C38.1546 33.0911 37.7694 33.0031 37.4357 32.8272C37.1021 32.6512 36.8382 32.3782 36.644 32.0082C36.456 31.6381 36.3619 31.1649 36.3619 30.5886C36.3619 29.988 36.459 29.4996 36.6531 29.1235C36.8533 28.7473 37.1263 28.4713 37.4721 28.2954C37.8179 28.1194 38.2092 28.0315 38.646 28.0315C38.8887 28.0315 39.1253 28.0588 39.3558 28.1134C39.5924 28.1619 39.7835 28.2226 39.9291 28.2954L39.6834 28.9597C39.5378 28.9051 39.368 28.8535 39.1738 28.805C38.9797 28.7564 38.7977 28.7322 38.6278 28.7322C37.6693 28.7322 37.19 29.3479 37.19 30.5795C37.19 31.1679 37.3053 31.6199 37.5358 31.9354C37.7724 32.2448 38.1213 32.3995 38.5823 32.3995C38.8432 32.3995 39.0768 32.3722 39.283 32.3176C39.4893 32.263 39.6774 32.1962 39.8472 32.1174V32.8272C39.6834 32.9121 39.5014 32.9758 39.3012 33.0183C39.1071 33.0668 38.8705 33.0911 38.5914 33.0911Z" fill="#474952"/>
<path d="M41.808 33.0001H41.0072V26.0841H41.808V33.0001Z" fill="#474952"/>
<path d="M47.5939 30.5522C47.5939 31.359 47.3876 31.9839 46.9751 32.4268C46.5686 32.8696 46.0166 33.0911 45.3189 33.0911C44.8882 33.0911 44.5029 32.994 44.1632 32.7999C43.8295 32.5997 43.5656 32.3115 43.3715 31.9354C43.1774 31.5532 43.0803 31.0921 43.0803 30.5522C43.0803 29.7453 43.2805 29.1235 43.6809 28.6867C44.0874 28.2499 44.6425 28.0315 45.3462 28.0315C45.783 28.0315 46.1713 28.1316 46.511 28.3318C46.8507 28.5259 47.1146 28.811 47.3027 29.1872C47.4968 29.5572 47.5939 30.0122 47.5939 30.5522ZM43.9084 30.5522C43.9084 31.1285 44.0206 31.5865 44.2451 31.9263C44.4756 32.2599 44.8396 32.4268 45.3371 32.4268C45.8285 32.4268 46.1895 32.2599 46.42 31.9263C46.6505 31.5865 46.7658 31.1285 46.7658 30.5522C46.7658 29.9758 46.6505 29.5239 46.42 29.1963C46.1895 28.8687 45.8255 28.7049 45.328 28.7049C44.8305 28.7049 44.4696 28.8687 44.2451 29.1963C44.0206 29.5239 43.9084 29.9758 43.9084 30.5522Z" fill="#474952"/>
<path d="M52.9399 28.1225V33.0001H52.2847L52.1664 32.354H52.13C51.9722 32.6088 51.7538 32.7968 51.4748 32.9182C51.1957 33.0334 50.8984 33.0911 50.583 33.0911C49.9945 33.0911 49.5516 32.9515 49.2544 32.6725C48.9571 32.3873 48.8085 31.9354 48.8085 31.3166V28.1225H49.6184V31.262C49.6184 32.0385 49.9793 32.4268 50.7013 32.4268C51.2412 32.4268 51.6143 32.2751 51.8206 31.9718C52.0329 31.6684 52.1391 31.2316 52.1391 30.6614V28.1225H52.9399Z" fill="#474952"/>
<path d="M56.2174 33.0911C55.6107 33.0911 55.1254 32.8818 54.7614 32.4632C54.3974 32.0385 54.2154 31.4076 54.2154 30.5704C54.2154 29.7332 54.3974 29.1022 54.7614 28.6776C55.1314 28.2468 55.6198 28.0315 56.2265 28.0315C56.6026 28.0315 56.909 28.1012 57.1456 28.2408C57.3882 28.3803 57.5854 28.5502 57.7371 28.7504H57.7917C57.7795 28.6715 57.7674 28.5562 57.7553 28.4046C57.7431 28.2468 57.7371 28.1225 57.7371 28.0315V26.0841H58.5379V33.0001H57.8918L57.7735 32.3449H57.7371C57.5915 32.5511 57.3973 32.7271 57.1547 32.8727C56.912 33.0183 56.5996 33.0911 56.2174 33.0911ZM56.3448 32.4268C56.8604 32.4268 57.2214 32.2872 57.4277 32.0082C57.64 31.723 57.7462 31.2953 57.7462 30.7251V30.5795C57.7462 29.9728 57.6461 29.5087 57.4459 29.1872C57.2457 28.8596 56.8756 28.6958 56.3357 28.6958C55.9049 28.6958 55.5804 28.8687 55.362 29.2145C55.1496 29.5542 55.0435 30.0122 55.0435 30.5886C55.0435 31.171 55.1496 31.6229 55.362 31.9445C55.5804 32.266 55.908 32.4268 56.3448 32.4268Z" fill="#474952"/>
<path d="M65.4266 33.0001L63.2881 27.3035H63.2517C63.2699 27.4915 63.285 27.7463 63.2972 28.0679C63.3093 28.3833 63.3154 28.714 63.3154 29.0598V33.0001H62.5601V26.5027H63.7704L65.7724 31.8262H65.8088L67.8472 26.5027H69.0484V33.0001H68.2385V29.0052C68.2385 28.6897 68.2445 28.3773 68.2567 28.0679C68.2749 27.7585 68.29 27.5067 68.3022 27.3126H68.2658L66.1 33.0001H65.4266Z" fill="#474952"/>
<path d="M72.5539 28.0406C73.1485 28.0406 73.5883 28.171 73.8734 28.4319C74.1586 28.6927 74.3011 29.1083 74.3011 29.6786V33.0001H73.7187L73.564 32.3085H73.5276C73.3153 32.5754 73.0908 32.7726 72.8542 32.9C72.6176 33.0274 72.2961 33.0911 71.8896 33.0911C71.4468 33.0911 71.0797 32.9758 70.7885 32.7453C70.4973 32.5087 70.3517 32.1416 70.3517 31.6442C70.3517 31.1588 70.5428 30.7857 70.925 30.5249C71.3072 30.2579 71.8957 30.1123 72.6904 30.0881L73.5185 30.0608V29.7696C73.5185 29.3631 73.4306 29.081 73.2546 28.9233C73.0787 28.7655 72.83 28.6867 72.5084 28.6867C72.2536 28.6867 72.011 28.7261 71.7804 28.805C71.5499 28.8778 71.3345 28.9627 71.1343 29.0598L70.8886 28.4592C71.101 28.3439 71.3527 28.2468 71.6439 28.168C71.9351 28.083 72.2385 28.0406 72.5539 28.0406ZM73.5094 30.6159L72.7905 30.6432C72.1839 30.6674 71.7622 30.7645 71.5256 30.9344C71.2951 31.1042 71.1798 31.3439 71.1798 31.6533C71.1798 31.9263 71.2617 32.1265 71.4255 32.2539C71.5954 32.3813 71.8108 32.445 72.0716 32.445C72.4781 32.445 72.8178 32.3327 73.0908 32.1083C73.3699 31.8777 73.5094 31.5259 73.5094 31.0527V30.6159Z" fill="#474952"/>
<path d="M78.1554 28.0315C78.7378 28.0315 79.1776 28.174 79.4749 28.4592C79.7722 28.7443 79.9208 29.1993 79.9208 29.8242V33.0001H79.1291V29.8788C79.1291 29.0962 78.7651 28.7049 78.0371 28.7049C77.4972 28.7049 77.1241 28.8565 76.9178 29.1599C76.7115 29.4632 76.6084 29.9 76.6084 30.4703V33.0001H75.8076V28.1225H76.4537L76.572 28.7868H76.6175C76.7752 28.532 76.9936 28.3439 77.2727 28.2226C77.5518 28.0952 77.846 28.0315 78.1554 28.0315Z" fill="#474952"/>
<path d="M83.2802 28.0406C83.8747 28.0406 84.3146 28.171 84.5997 28.4319C84.8848 28.6927 85.0274 29.1083 85.0274 29.6786V33.0001H84.445L84.2903 32.3085H84.2539C84.0416 32.5754 83.8171 32.7726 83.5805 32.9C83.3439 33.0274 83.0224 33.0911 82.6159 33.0911C82.173 33.0911 81.806 32.9758 81.5148 32.7453C81.2236 32.5087 81.078 32.1416 81.078 31.6442C81.078 31.1588 81.2691 30.7857 81.6513 30.5249C82.0335 30.2579 82.622 30.1123 83.4167 30.0881L84.2448 30.0608V29.7696C84.2448 29.3631 84.1568 29.081 83.9809 28.9233C83.805 28.7655 83.5562 28.6867 83.2347 28.6867C82.9799 28.6867 82.7372 28.7261 82.5067 28.805C82.2762 28.8778 82.0608 28.9627 81.8606 29.0598L81.6149 28.4592C81.8272 28.3439 82.079 28.2468 82.3702 28.168C82.6614 28.083 82.9647 28.0406 83.2802 28.0406ZM84.2357 30.6159L83.5168 30.6432C82.9101 30.6674 82.4885 30.7645 82.2519 30.9344C82.0214 31.1042 81.9061 31.3439 81.9061 31.6533C81.9061 31.9263 81.988 32.1265 82.1518 32.2539C82.3217 32.3813 82.537 32.445 82.7979 32.445C83.2044 32.445 83.5441 32.3327 83.8171 32.1083C84.0962 31.8777 84.2357 31.5259 84.2357 31.0527V30.6159Z" fill="#474952"/>
<path d="M88.2629 28.0315C88.5844 28.0315 88.8726 28.0921 89.1274 28.2135C89.3882 28.3348 89.6097 28.5198 89.7917 28.7686H89.8372L89.9464 28.1225H90.5834V33.082C90.5834 33.7796 90.4044 34.3044 90.0465 34.6563C89.6946 35.0081 89.1456 35.1841 88.3994 35.1841C87.6835 35.1841 87.0981 35.0809 86.6431 34.8747V34.1376C87.1223 34.3924 87.7229 34.5198 88.4449 34.5198C88.8635 34.5198 89.1911 34.3954 89.4277 34.1467C89.6703 33.904 89.7917 33.5703 89.7917 33.1457V32.9546C89.7917 32.8818 89.7947 32.7786 89.8008 32.6452C89.8068 32.5056 89.8129 32.4086 89.819 32.354H89.7826C89.455 32.8454 88.9514 33.0911 88.272 33.0911C87.641 33.0911 87.1466 32.8696 86.7887 32.4268C86.4368 31.9839 86.2609 31.3651 86.2609 30.5704C86.2609 29.7938 86.4368 29.1781 86.7887 28.7231C87.1466 28.262 87.638 28.0315 88.2629 28.0315ZM88.3721 28.7049C87.9656 28.7049 87.6501 28.8687 87.4257 29.1963C87.2012 29.5178 87.089 29.9789 87.089 30.5795C87.089 31.1801 87.1982 31.6411 87.4166 31.9627C87.635 32.2781 87.9595 32.4359 88.3903 32.4359C88.8817 32.4359 89.2396 32.3054 89.4641 32.0446C89.6885 31.7776 89.8008 31.3499 89.8008 30.7615V30.5704C89.8008 29.9091 89.6855 29.4329 89.455 29.1417C89.2244 28.8505 88.8635 28.7049 88.3721 28.7049Z" fill="#474952"/>
<path d="M94.0162 28.0315C94.4287 28.0315 94.7867 28.1225 95.09 28.3045C95.3933 28.4865 95.6239 28.7443 95.7816 29.078C95.9454 29.4056 96.0273 29.7908 96.0273 30.2337V30.716H92.6876C92.6997 31.268 92.8393 31.6897 93.1062 31.9809C93.3792 32.266 93.7584 32.4086 94.2437 32.4086C94.5531 32.4086 94.8261 32.3813 95.0627 32.3267C95.3054 32.266 95.5541 32.1811 95.8089 32.0719V32.7726C95.5602 32.8818 95.3145 32.9606 95.0718 33.0092C94.8291 33.0638 94.541 33.0911 94.2073 33.0911C93.7402 33.0911 93.3307 32.997 92.9788 32.809C92.6269 32.6209 92.3509 32.3418 92.1507 31.9718C91.9566 31.6017 91.8595 31.1437 91.8595 30.5977C91.8595 30.0638 91.9475 29.6058 92.1234 29.2236C92.3054 28.8414 92.5572 28.5471 92.8787 28.3409C93.2063 28.1346 93.5855 28.0315 94.0162 28.0315ZM94.0071 28.6867C93.6249 28.6867 93.3216 28.811 93.0971 29.0598C92.8787 29.3024 92.7483 29.6422 92.7058 30.079H95.1901C95.184 29.6664 95.087 29.3328 94.8989 29.078C94.7108 28.8171 94.4136 28.6867 94.0071 28.6867Z" fill="#474952"/>
<path d="M102.62 28.0315C103.172 28.0315 103.584 28.174 103.857 28.4592C104.13 28.7443 104.267 29.1993 104.267 29.8242V33.0001H103.475V29.8606C103.475 29.0901 103.145 28.7049 102.483 28.7049C102.01 28.7049 101.67 28.8414 101.464 29.1144C101.264 29.3874 101.164 29.7847 101.164 30.3065V33.0001H100.372V29.8606C100.372 29.0901 100.038 28.7049 99.3711 28.7049C98.8797 28.7049 98.54 28.8565 98.3519 29.1599C98.1639 29.4632 98.0698 29.9 98.0698 30.4703V33.0001H97.269V28.1225H97.9151L98.0334 28.7868H98.0789C98.2306 28.532 98.4338 28.3439 98.6886 28.2226C98.9495 28.0952 99.2255 28.0315 99.5167 28.0315C100.281 28.0315 100.779 28.3045 101.009 28.8505H101.055C101.218 28.5714 101.44 28.3651 101.719 28.2317C101.998 28.0982 102.298 28.0315 102.62 28.0315Z" fill="#474952"/>
<path d="M107.657 28.0315C108.07 28.0315 108.428 28.1225 108.731 28.3045C109.034 28.4865 109.265 28.7443 109.423 29.078C109.587 29.4056 109.668 29.7908 109.668 30.2337V30.716H106.329C106.341 31.268 106.48 31.6897 106.747 31.9809C107.02 32.266 107.399 32.4086 107.885 32.4086C108.194 32.4086 108.467 32.3813 108.704 32.3267C108.946 32.266 109.195 32.1811 109.45 32.0719V32.7726C109.201 32.8818 108.956 32.9606 108.713 33.0092C108.47 33.0638 108.182 33.0911 107.848 33.0911C107.381 33.0911 106.972 32.997 106.62 32.809C106.268 32.6209 105.992 32.3418 105.792 31.9718C105.598 31.6017 105.501 31.1437 105.501 30.5977C105.501 30.0638 105.589 29.6058 105.765 29.2236C105.947 28.8414 106.198 28.5471 106.52 28.3409C106.847 28.1346 107.227 28.0315 107.657 28.0315ZM107.648 28.6867C107.266 28.6867 106.963 28.811 106.738 29.0598C106.52 29.3024 106.389 29.6422 106.347 30.079H108.831C108.825 29.6664 108.728 29.3328 108.54 29.078C108.352 28.8171 108.055 28.6867 107.648 28.6867Z" fill="#474952"/>
<path d="M113.258 28.0315C113.84 28.0315 114.28 28.174 114.577 28.4592C114.875 28.7443 115.023 29.1993 115.023 29.8242V33.0001H114.232V29.8788C114.232 29.0962 113.868 28.7049 113.14 28.7049C112.6 28.7049 112.227 28.8565 112.02 29.1599C111.814 29.4632 111.711 29.9 111.711 30.4703V33.0001H110.91V28.1225H111.556L111.675 28.7868H111.72C111.878 28.532 112.096 28.3439 112.375 28.2226C112.654 28.0952 112.949 28.0315 113.258 28.0315Z" fill="#474952"/>
<path d="M118.164 32.4359C118.286 32.4359 118.41 32.4268 118.537 32.4086C118.665 32.3904 118.768 32.3661 118.847 32.3358V32.9455C118.762 32.9879 118.641 33.0213 118.483 33.0456C118.325 33.0759 118.173 33.0911 118.028 33.0911C117.773 33.0911 117.536 33.0486 117.318 32.9637C117.106 32.8727 116.933 32.718 116.799 32.4996C116.666 32.2812 116.599 31.9748 116.599 31.5805V28.7413H115.908V28.3591L116.608 28.0406L116.927 27.0032H117.4V28.1225H118.81V28.7413H117.4V31.5623C117.4 31.8595 117.47 32.081 117.609 32.2266C117.755 32.3661 117.94 32.4359 118.164 32.4359Z" fill="#474952"/>
<path d="M124.016 26.5027C124.866 26.5027 125.485 26.6695 125.873 27.0032C126.261 27.3368 126.455 27.807 126.455 28.4137C126.455 28.7716 126.373 29.1083 126.21 29.4238C126.052 29.7332 125.782 29.9849 125.4 30.1791C125.024 30.3732 124.511 30.4703 123.862 30.4703H123.116V33.0001H122.297V26.5027H124.016ZM123.944 27.2034H123.116V29.7696H123.771C124.39 29.7696 124.851 29.6695 125.154 29.4693C125.457 29.2691 125.609 28.9293 125.609 28.4501C125.609 28.0315 125.472 27.719 125.199 27.5128C124.933 27.3065 124.514 27.2034 123.944 27.2034Z" fill="#474952"/>
<path d="M128.498 33.0001H127.697V26.0841H128.498V33.0001Z" fill="#474952"/>
<path d="M131.891 28.0406C132.485 28.0406 132.925 28.171 133.21 28.4319C133.495 28.6927 133.638 29.1083 133.638 29.6786V33.0001H133.055L132.901 32.3085H132.864C132.652 32.5754 132.427 32.7726 132.191 32.9C131.954 33.0274 131.633 33.0911 131.226 33.0911C130.783 33.0911 130.416 32.9758 130.125 32.7453C129.834 32.5087 129.688 32.1416 129.688 31.6442C129.688 31.1588 129.879 30.7857 130.262 30.5249C130.644 30.2579 131.232 30.1123 132.027 30.0881L132.855 30.0608V29.7696C132.855 29.3631 132.767 29.081 132.591 28.9233C132.415 28.7655 132.167 28.6867 131.845 28.6867C131.59 28.6867 131.348 28.7261 131.117 28.805C130.887 28.8778 130.671 28.9627 130.471 29.0598L130.225 28.4592C130.438 28.3439 130.689 28.2468 130.981 28.168C131.272 28.083 131.575 28.0406 131.891 28.0406ZM132.846 30.6159L132.127 30.6432C131.52 30.6674 131.099 30.7645 130.862 30.9344C130.632 31.1042 130.516 31.3439 130.516 31.6533C130.516 31.9263 130.598 32.1265 130.762 32.2539C130.932 32.3813 131.147 32.445 131.408 32.445C131.815 32.445 132.154 32.3327 132.427 32.1083C132.707 31.8777 132.846 31.5259 132.846 31.0527V30.6159Z" fill="#474952"/>
<path d="M136.773 32.4359C136.894 32.4359 137.019 32.4268 137.146 32.4086C137.274 32.3904 137.377 32.3661 137.456 32.3358V32.9455C137.371 32.9879 137.249 33.0213 137.092 33.0456C136.934 33.0759 136.782 33.0911 136.637 33.0911C136.382 33.0911 136.145 33.0486 135.927 32.9637C135.714 32.8727 135.542 32.718 135.408 32.4996C135.275 32.2812 135.208 31.9748 135.208 31.5805V28.7413H134.516V28.3591L135.217 28.0406L135.536 27.0032H136.009V28.1225H137.419V28.7413H136.009V31.5623C136.009 31.8595 136.078 32.081 136.218 32.2266C136.364 32.3661 136.549 32.4359 136.773 32.4359Z" fill="#474952"/>
<path d="M140.68 28.7413H139.452V33.0001H138.651V28.7413H137.795V28.3682L138.651 28.0952V27.8131C138.651 27.1821 138.787 26.7302 139.06 26.4572C139.339 26.1781 139.731 26.0386 140.234 26.0386C140.422 26.0386 140.598 26.0568 140.762 26.0932C140.926 26.1235 141.065 26.1599 141.181 26.2024L140.971 26.8303C140.874 26.7999 140.762 26.7696 140.635 26.7393C140.507 26.7089 140.377 26.6938 140.243 26.6938C139.976 26.6938 139.776 26.7848 139.643 26.9668C139.515 27.1427 139.452 27.4218 139.452 27.804V28.1225H140.68V28.7413Z" fill="#474952"/>
<path d="M145.801 30.5522C145.801 31.359 145.595 31.9839 145.182 32.4268C144.776 32.8696 144.224 33.0911 143.526 33.0911C143.095 33.0911 142.71 32.994 142.37 32.7999C142.037 32.5997 141.773 32.3115 141.579 31.9354C141.385 31.5532 141.287 31.0921 141.287 30.5522C141.287 29.7453 141.488 29.1235 141.888 28.6867C142.294 28.2499 142.85 28.0315 143.553 28.0315C143.99 28.0315 144.378 28.1316 144.718 28.3318C145.058 28.5259 145.322 28.811 145.51 29.1872C145.704 29.5572 145.801 30.0122 145.801 30.5522ZM142.116 30.5522C142.116 31.1285 142.228 31.5865 142.452 31.9263C142.683 32.2599 143.047 32.4268 143.544 32.4268C144.036 32.4268 144.397 32.2599 144.627 31.9263C144.858 31.5865 144.973 31.1285 144.973 30.5522C144.973 29.9758 144.858 29.5239 144.627 29.1963C144.397 28.8687 144.033 28.7049 143.535 28.7049C143.038 28.7049 142.677 28.8687 142.452 29.1963C142.228 29.5239 142.116 29.9758 142.116 30.5522Z" fill="#474952"/>
<path d="M149.345 28.0315C149.436 28.0315 149.533 28.0375 149.636 28.0497C149.74 28.0557 149.834 28.0679 149.918 28.0861L149.818 28.8232C149.74 28.805 149.652 28.7898 149.554 28.7777C149.457 28.7655 149.369 28.7595 149.291 28.7595C149.042 28.7595 148.808 28.8292 148.59 28.9688C148.371 29.1022 148.196 29.2933 148.062 29.5421C147.935 29.7847 147.871 30.0699 147.871 30.3975V33.0001H147.07V28.1225H147.725L147.816 29.0143H147.853C148.004 28.7473 148.205 28.5168 148.453 28.3227C148.708 28.1285 149.005 28.0315 149.345 28.0315Z" fill="#474952"/>
<path d="M156.18 28.0315C156.732 28.0315 157.145 28.174 157.418 28.4592C157.691 28.7443 157.827 29.1993 157.827 29.8242V33.0001H157.035V29.8606C157.035 29.0901 156.705 28.7049 156.044 28.7049C155.57 28.7049 155.231 28.8414 155.024 29.1144C154.824 29.3874 154.724 29.7847 154.724 30.3065V33.0001H153.932V29.8606C153.932 29.0901 153.599 28.7049 152.931 28.7049C152.44 28.7049 152.1 28.8565 151.912 29.1599C151.724 29.4632 151.63 29.9 151.63 30.4703V33.0001H150.829V28.1225H151.475L151.594 28.7868H151.639C151.791 28.532 151.994 28.3439 152.249 28.2226C152.51 28.0952 152.786 28.0315 153.077 28.0315C153.841 28.0315 154.339 28.3045 154.569 28.8505H154.615C154.779 28.5714 155 28.3651 155.279 28.2317C155.558 28.0982 155.859 28.0315 156.18 28.0315Z" fill="#474952"/>
<path fill-rule="evenodd" clip-rule="evenodd" d="M155.923 4.18069L155.033 4.27039V6.73719C155.033 8.94386 154.988 9.17708 154.638 9.04253C152.212 8.10963 149.49 9.18605 148.205 11.5542C147.46 12.9266 147.46 16.5057 148.205 17.8871C149.697 20.7038 152.446 21.4035 156.246 19.9772L157.71 19.439L157.782 11.7156L157.827 4.01025L157.315 4.05511C157.019 4.08202 156.39 4.13584 155.923 4.18069ZM154.431 10.998L155.033 11.2313V14.7207V18.2101L154.431 18.4433C152.005 19.3762 150.379 17.8871 150.379 14.7207C150.379 11.5542 152.005 10.0651 154.431 10.998Z" fill="#010101"/>
<path fill-rule="evenodd" clip-rule="evenodd" d="M117.121 4.41345L116.115 4.50315V11.1142C116.115 15.2315 116.205 17.9584 116.375 18.3711C116.815 19.582 117.956 20.5149 119.448 20.8648C119.96 20.9814 120.122 20.9096 120.283 20.488C120.822 19.0259 120.822 18.9541 120.122 18.5774C118.999 17.9943 118.909 17.3216 118.909 10.5042C118.909 4.69152 118.882 4.24301 118.513 4.28786C118.289 4.31478 117.66 4.3686 117.121 4.41345Z" fill="#010101"/>
<path fill-rule="evenodd" clip-rule="evenodd" d="M60.3329 4.8544C58.7967 5.33879 57.1616 6.99828 56.4608 8.81025C55.9937 9.94947 55.9038 10.6222 55.9038 12.7392C55.9038 14.8562 55.9937 15.5289 56.4608 16.6681C57.5838 19.5745 60.1892 21.2071 63.2168 20.929C65.8311 20.6958 67.6908 19.413 68.7869 17.0449C69.3439 15.8788 69.3888 15.511 69.3888 12.7392C69.3888 9.96741 69.3439 9.59963 68.7869 8.43351C68.0412 6.85475 66.9451 5.71554 65.5436 5.10557C64.1781 4.50456 61.8063 4.38795 60.3329 4.8544ZM64.9687 7.50958C66.0917 8.57703 66.5498 10.1648 66.5498 12.7482C66.5498 16.6143 65.337 18.6595 62.9383 18.8658C61.3571 18.9825 60.306 18.3276 59.4884 16.704C58.9494 15.6545 58.9045 15.2598 58.9045 12.7482C58.9045 10.2365 58.9494 9.84183 59.4884 8.79231C60.306 7.15974 61.3571 6.51389 62.9383 6.6305C63.9445 6.7202 64.3218 6.88166 64.9687 7.50958Z" fill="#010101"/>
<path fill-rule="evenodd" clip-rule="evenodd" d="M106.915 4.80846C104.633 5.52607 103.375 6.64735 102.297 8.90784C101.641 10.2534 101.578 10.6032 101.596 12.6305C101.623 16.4428 102.854 18.793 105.558 20.1206C106.978 20.8203 107.328 20.892 109.242 20.892C110.661 20.892 111.739 20.7485 112.53 20.4704L113.716 20.0488L113.482 19.0442L113.249 18.0395L111.874 18.4611C107.355 19.8784 104.651 17.7435 104.606 12.7381C104.579 10.3162 104.911 9.20385 105.936 8.03773C107.265 6.52177 109.179 6.17193 111.578 7.01513L112.835 7.45467L113.042 6.50383C113.275 5.36461 113.231 5.3377 111.317 4.8264C109.709 4.41377 108.2 4.41377 106.915 4.80846Z" fill="#010101"/>
<path fill-rule="evenodd" clip-rule="evenodd" d="M75.6954 8.80901C75.4349 8.88077 74.4107 9.15884 73.4315 9.41001L71.6167 9.87646V15.2048V20.533H73.135H74.6533V15.7878V11.0605L75.5427 10.8991C77.079 10.6389 77.8965 10.7376 78.3817 11.222C78.8219 11.6615 78.8488 11.9934 78.8488 16.1107V20.533H80.2503H81.6518V15.9224C81.6518 10.7825 81.4901 10.1097 80.0706 9.26649C79.2531 8.83592 76.6927 8.54887 75.6954 8.80901Z" fill="#010101"/>
<path fill-rule="evenodd" clip-rule="evenodd" d="M86.8805 9.01563C85.5958 9.45517 84.32 10.9442 83.9697 12.4153C83.5474 14.1107 83.781 16.9273 84.3919 18.1383C85.6048 20.4885 88.3539 21.3048 91.7768 20.327C93.1513 19.9503 93.1783 19.9324 93.1064 19.143C93.0166 17.7705 92.9177 17.6808 92.1002 18.1204C91.1479 18.5868 88.9288 18.7931 88.1113 18.4702C87.3926 18.1921 86.8805 17.4656 86.6469 16.3981L86.4852 15.6536H90.1417H93.8251L93.7083 13.8147C93.6185 12.3974 93.4748 11.7695 92.9896 10.9263C91.8397 9.01563 89.2343 8.18141 86.8805 9.01563ZM89.8093 10.998C90.3214 11.2761 90.9502 12.4153 90.9502 13.0881C90.9502 13.5276 90.8065 13.5546 88.7132 13.5546C86.7547 13.5546 86.5032 13.5097 86.62 13.1778C86.6918 12.9715 86.7637 12.6665 86.7637 12.4602C86.7637 12.2718 87.0692 11.8054 87.4375 11.4376C88.1562 10.7379 89.0007 10.5764 89.8093 10.998Z" fill="#010101"/>
<path fill-rule="evenodd" clip-rule="evenodd" d="M126.231 8.88124C121.316 10.1371 120.382 17.5823 124.811 20.1657C127.65 21.8432 131.756 20.7219 133.103 17.9322C134.622 14.7657 133.544 10.8547 130.75 9.41945C129.591 8.80948 127.444 8.54934 126.231 8.88124ZM129.663 11.366C129.941 11.5992 130.318 12.1374 130.48 12.55C130.902 13.5278 130.902 16.1292 130.48 17.1338C129.528 19.4122 126.473 19.5289 125.35 17.3222C124.443 15.5102 124.793 12.7653 126.069 11.4826C126.788 10.765 126.931 10.7112 128.001 10.8098C128.683 10.8816 129.384 11.1148 129.663 11.366Z" fill="#010101"/>
<path fill-rule="evenodd" clip-rule="evenodd" d="M135.7 13.3663C135.7 18.0666 135.862 18.9995 136.796 19.8786C138.314 21.2511 140.785 21.3228 144.738 20.0401L145.483 19.7799V14.4516V9.13232H144.082H142.68V13.7609C142.68 16.9005 142.591 18.4613 142.42 18.5779C142.276 18.6497 141.513 18.7843 140.722 18.8381C138.602 19.0264 138.629 19.0444 138.53 13.6264L138.44 9.13232H137.065H135.691V13.3663H135.7Z" fill="#010101"/>
<path d="M15 4.00146H17.7671V11.7338L27.0745 4.00146H30.9915L21.154 11.8055L31.8091 21.287H27.892L17.7671 12.0208V21.287H15V4.00146Z" fill="#010101"/>
<path d="M33.7314 4.00146H42.2393C46.2911 4.00146 48.4023 5.33802 48.4023 8.28025C48.4023 10.3703 46.9469 11.8055 44.9974 12.1912V12.263C47.7824 12.5949 49.1031 14.4159 49.1031 16.479C49.1031 19.0624 47.2075 21.296 42.5088 21.296H33.7314V4.00146ZM36.4895 11.2853H42.1045C44.1888 11.2853 45.7341 10.4959 45.7341 8.65699C45.7341 7.05133 44.9704 5.97491 41.7901 5.97491H36.4895V11.2853ZM36.4895 19.3226H41.9338C45.3118 19.3226 46.2102 18.0039 46.2102 16.3265C46.2102 14.3441 44.8357 13.2408 41.7901 13.2408H36.4895V19.3226Z" fill="#010101"/>
</svg>
