<svg width="121" height="16" viewBox="0 0 121 16" fill="none" xmlns="http://www.w3.org/2000/svg">
<path fill-rule="evenodd" clip-rule="evenodd" d="M119.052 0.883761L118.305 0.959044V3.02933C118.305 4.8813 118.267 5.07703 117.973 4.96411C115.938 4.18116 113.653 5.08456 112.575 7.07203C111.949 8.22387 111.949 11.2277 112.575 12.387C113.826 14.7509 116.134 15.3381 119.323 14.1411L120.552 13.6894L120.612 7.20754L120.65 0.740723L120.22 0.778364C119.971 0.800949 119.444 0.846119 119.052 0.883761ZM117.8 6.60528L118.305 6.80101V9.72953V12.658L117.8 12.8538C115.764 13.6367 114.399 12.387 114.399 9.72953C114.399 7.07204 115.764 5.82233 117.8 6.60528Z" fill="#776C61"/>
<path fill-rule="evenodd" clip-rule="evenodd" d="M86.487 1.07935L85.6426 1.15463V6.703C85.6426 10.1585 85.718 12.4471 85.8612 12.7934C86.2307 13.8097 87.1882 14.5927 88.4399 14.8863C88.8696 14.9841 89.0054 14.9239 89.1411 14.5701C89.5935 13.343 89.5935 13.2827 89.0054 12.9666C88.0629 12.4772 87.9875 11.9126 87.9875 6.19107C87.9875 1.31273 87.9649 0.936311 87.6557 0.973953C87.4672 0.996538 86.9394 1.04171 86.487 1.07935Z" fill="#776C61"/>
<path fill-rule="evenodd" clip-rule="evenodd" d="M38.8275 1.44799C37.5382 1.85452 36.1659 3.24726 35.5778 4.76798C35.1858 5.72407 35.1104 6.2887 35.1104 8.06538C35.1104 9.84206 35.1858 10.4067 35.5778 11.3628C36.5203 13.802 38.7069 15.1721 41.2478 14.9387C43.4419 14.743 45.0027 13.6664 45.9226 11.679C46.3901 10.7003 46.4278 10.3916 46.4278 8.06538C46.4278 5.73913 46.3901 5.43047 45.9226 4.45179C45.2968 3.12681 44.3769 2.17071 43.2007 1.65878C42.0546 1.15439 40.0641 1.05652 38.8275 1.44799ZM42.7181 3.67637C43.6606 4.57224 44.0451 5.90475 44.0451 8.07291C44.0451 11.3176 43.0273 13.0341 41.0141 13.2072C39.6871 13.3051 38.8049 12.7555 38.1188 11.3929C37.6664 10.5121 37.6287 10.1808 37.6287 8.07291C37.6287 5.96498 37.6664 5.63374 38.1188 4.75292C38.8049 3.38277 39.6871 2.84073 41.0141 2.9386C41.8586 3.01388 42.1752 3.14939 42.7181 3.67637Z" fill="#776C61"/>
<path fill-rule="evenodd" clip-rule="evenodd" d="M77.9218 1.41065C76.0067 2.01291 74.9511 2.95395 74.0463 4.85109C73.4959 5.98033 73.4431 6.27394 73.4582 7.97534C73.4808 11.1749 74.5138 13.1473 76.7833 14.2615C77.9746 14.8487 78.2686 14.9089 79.8746 14.9089C81.0659 14.9089 81.9707 14.7885 82.6342 14.5551L83.6295 14.2013L83.4335 13.3581L83.2374 12.5149L82.0838 12.8687C78.2913 14.0582 76.0217 12.2665 75.984 8.06568C75.9614 6.03303 76.2404 5.09952 77.0999 4.12084C78.2159 2.84855 79.8219 2.55495 81.835 3.26261L82.8906 3.6315L83.064 2.8335C83.2601 1.8774 83.2224 1.85482 81.6164 1.4257C80.2667 1.0794 79 1.0794 77.9218 1.41065Z" fill="#776C61"/>
<path fill-rule="evenodd" clip-rule="evenodd" d="M51.7205 4.76818C51.5018 4.82841 50.6423 5.06179 49.8204 5.27258L48.2974 5.66405V10.1359V14.6077H49.5716H50.8459V10.6252V6.65779L51.5923 6.52228C52.8816 6.30396 53.5678 6.38677 53.9749 6.7933C54.3444 7.16219 54.367 7.44074 54.367 10.8962V14.6077H55.5432H56.7194V10.7381C56.7194 6.42441 56.5837 5.85979 55.3924 5.15213C54.7063 4.79077 52.5574 4.54986 51.7205 4.76818Z" fill="#776C61"/>
<path fill-rule="evenodd" clip-rule="evenodd" d="M61.1076 4.94129C60.0294 5.31018 58.9588 6.55988 58.6647 7.79452C58.3103 9.21737 58.5064 11.5813 59.0191 12.5976C60.037 14.57 62.3442 15.2551 65.2169 14.4345C66.3705 14.1183 66.3931 14.1033 66.3328 13.4408C66.2574 12.2889 66.1745 12.2136 65.4883 12.5825C64.6891 12.974 62.8268 13.1472 62.1406 12.8761C61.5374 12.6428 61.1076 12.033 60.9116 11.1371L60.7759 10.5122H63.8446H66.936L66.838 8.96894C66.7626 7.77947 66.6419 7.25248 66.2348 6.54482C65.2697 4.94129 63.0831 4.24116 61.1076 4.94129ZM63.5657 6.60505C63.9954 6.83843 64.5232 7.79452 64.5232 8.35915C64.5232 8.72803 64.4026 8.75062 62.6458 8.75062C61.0021 8.75062 60.791 8.71298 60.889 8.43443C60.9493 8.26128 61.0096 8.00531 61.0096 7.83216C61.0096 7.67407 61.266 7.2826 61.5751 6.97394C62.1783 6.38673 62.8871 6.25122 63.5657 6.60505Z" fill="#776C61"/>
<path fill-rule="evenodd" clip-rule="evenodd" d="M94.1324 4.82857C90.0081 5.88254 89.2239 12.131 92.9411 14.2992C95.3237 15.707 98.7694 14.7659 99.9004 12.4246C101.175 9.76715 100.27 6.4848 97.925 5.28027C96.9523 4.76835 95.1503 4.55002 94.1324 4.82857ZM97.0126 6.91391C97.2464 7.10965 97.563 7.56135 97.6988 7.90765C98.0531 8.72824 98.0531 10.9114 97.6988 11.7546C96.8995 13.6668 94.336 13.7647 93.3935 11.9127C92.632 10.392 92.926 8.08833 93.9967 7.01178C94.5999 6.40952 94.7205 6.36435 95.6177 6.44716C96.1908 6.50739 96.7789 6.70312 97.0126 6.91391Z" fill="#776C61"/>
<path fill-rule="evenodd" clip-rule="evenodd" d="M102.079 8.59292C102.079 12.5378 102.215 13.3207 102.999 14.0585C104.273 15.2103 106.347 15.2705 109.664 14.194L110.29 13.9757V9.50384V5.03955H109.114H107.938V8.92416C107.938 11.5591 107.862 12.869 107.719 12.9669C107.599 13.0271 106.958 13.14 106.294 13.1852C104.515 13.3433 104.537 13.3583 104.454 8.81124L104.379 5.03955H103.225H102.072V8.59292H102.079Z" fill="#776C61"/>
<path d="M16.502 0.73291H23.6422C27.0427 0.73291 28.8146 1.85463 28.8146 4.32392C28.8146 6.07801 27.5932 7.28254 25.957 7.60626V7.66649C28.2944 7.94503 29.4027 9.47328 29.4027 11.2048C29.4027 13.3729 27.8118 15.2475 23.8684 15.2475H16.502V0.73291ZM18.8167 6.8459H23.5291C25.2784 6.8459 26.5753 6.18341 26.5753 4.6401C26.5753 3.29254 25.9344 2.38914 23.2652 2.38914H18.8167V6.8459ZM18.8167 13.5913H23.3859C26.2209 13.5913 26.9749 12.4846 26.9749 11.0768C26.9749 9.41305 25.8213 8.48707 23.2652 8.48707H18.8167V13.5913Z" fill="#776C61"/>
<path d="M0.78125 0.73291H3.10354V7.22232L10.9149 0.73291H14.2023L5.94608 7.28254L14.8884 15.24H11.601L3.10354 7.46322V15.24H0.78125V0.73291Z" fill="#776C61"/>
</svg>
