<svg width="37" height="30" viewBox="0 0 37 30" fill="none" xmlns="http://www.w3.org/2000/svg">
<path d="M35.8442 15.3476L35.5329 15.1464C34.4617 14.0769 32.9602 13.6107 30.9642 13.7295C29.2979 13.8301 27.9795 14.4883 26.9724 15.1007C26.9724 15.0825 26.9724 15.0733 26.9724 15.055C26.9724 14.534 27.0273 13.9672 27.0914 13.4187C27.1463 12.8611 27.2104 12.2943 27.2104 11.7549C27.2104 11.2065 27.1463 10.6854 26.9632 10.2466C26.9175 10.1369 26.8076 10.0638 26.6794 10.0638C26.1392 10.0729 25.0863 10.4477 24.8391 10.6671L24.7018 10.9688C24.6926 11.563 24.5645 13.2267 24.4271 13.4278C24.4363 13.4187 24.3539 13.629 24.3539 13.629C24.125 15.9966 24.125 18.09 24.3356 19.8818C24.363 20.0646 24.7018 20.3297 24.9673 20.4303C25.2603 20.5399 26.1759 20.2931 26.7069 20.092C26.6977 20.092 26.9083 20.0646 26.9083 20.0646C27.0731 20.0463 27.1738 19.9092 27.1647 19.7172L27.1738 19.2053C27.5584 17.6604 29.0965 15.8138 30.9185 15.5395C31.953 15.375 32.7679 15.6401 33.4088 16.344C33.4912 16.472 33.6834 17.5781 33.0059 18.8579C32.5024 19.8086 31.4861 20.6039 30.1585 21.0976C28.8951 21.5729 27.5126 21.7649 25.8005 21.7101C25.7272 21.6644 24.1982 20.6314 24.1982 20.6314C22.8432 19.6806 21.1586 18.4922 19.6296 17.9163C19.3641 17.8158 18.8788 17.4135 18.5859 17.1759L18.4302 17.0479C17.5513 16.344 15.8667 15.2287 14.5208 14.3329C14.5208 14.3329 13.9165 13.9215 13.7975 13.8484C13.7975 13.7935 13.7975 13.6929 13.7975 13.6929C13.8341 13.6472 14.6856 13.1445 14.6856 13.1445C15.8667 12.4497 16.416 12.1115 16.535 11.9378C16.5075 11.9652 16.6907 11.8464 16.6907 11.8464C16.6998 11.8372 19.6296 10.1826 19.6296 10.1826C22.4495 8.63768 25.6448 6.88251 27.3203 5.14562L27.4027 4.88052L27.4393 4.64284C27.5492 4.26803 27.5584 3.98465 27.4668 3.65555C27.4393 3.56414 27.3569 3.45444 27.2379 3.43616C25.9287 3.30817 24.2349 4.09434 22.6967 5.52956C22.3488 5.84952 22.0558 6.01407 21.7537 6.17861L21.5157 6.30659C19.8219 7.26645 15.9948 9.63411 13.9989 10.9139C14.0996 8.75652 14.5025 5.70325 14.9877 3.15277L14.9328 2.8511C14.9236 2.84196 14.7222 2.46715 14.7222 2.46715L14.5666 2.19291L14.5208 2.18377C14.1179 1.98265 13.7975 2.06493 13.5594 2.11978L13.1566 2.26604L12.6347 2.45801C12.534 2.47629 12.4516 2.54029 12.415 2.64998C11.4628 4.95365 10.6663 8.74738 10.474 11.7824C8.56048 10.5665 6.79345 9.68896 5.93283 9.26845L5.90536 9.25931L5.80465 9.23188C5.49336 9.19532 5.10882 8.96678 4.75176 8.74738C4.70598 8.71996 4.01931 8.27202 4.01931 8.27202L2.91148 7.56812C2.92064 7.57727 2.6185 7.50413 2.6185 7.50413C2.14241 7.57727 1.22685 8.18975 0.952182 8.61026C0.924715 8.66511 0.906404 8.7291 0.906404 8.79309C0.906404 8.8845 0.933871 8.96678 0.961338 9.05819L1.00712 9.27759L1.06205 9.41471C1.59307 9.96321 2.93895 10.8682 4.2482 11.5721L5.76803 12.3766L8.1027 13.6472C8.1027 13.6564 8.49639 13.9672 8.49639 13.9672L8.77106 14.1226C8.77106 14.1226 8.80769 14.1409 8.826 14.15C8.20342 14.5705 4.5778 16.993 4.5778 16.993L2.34383 18.474C2.13325 18.6202 1.25432 19.0133 1.05289 19.0864C0.567647 19.2876 0.201423 19.5892 0.0549336 19.9183L0 20.0372L0.0640892 20.1194L0.238046 20.2474C0.22889 20.2474 0.466936 20.3937 0.466936 20.3937L0.714137 20.5582C0.723292 20.5582 0.943027 20.5948 0.943027 20.5948C1.33672 20.6131 1.91352 20.3845 3.00304 19.9092C4.001 19.4704 6.71105 17.8341 7.87381 17.1393L8.36822 16.8468C8.56964 16.8651 8.79853 16.6914 8.99995 16.536C9.22884 16.3531 9.74156 16.0423 10.0437 15.9052C10.0528 15.9052 10.2268 15.8046 10.3916 15.7132C10.3916 15.7681 10.3916 15.8412 10.3916 15.8412C10.4465 19.379 10.648 21.9569 11.0325 23.9406L11.0417 23.9772L11.0783 24.0594C11.2705 24.3428 11.4903 25.1747 11.6825 25.9152L12.122 27.3961C12.1312 27.4144 12.2502 27.5332 12.2502 27.5332C12.5065 27.7069 13.2756 27.9994 13.7883 27.9354L13.9165 27.9172L13.9989 27.7343C14.0447 27.5149 14.0538 27.2955 14.0538 27.0579C14.0538 26.7836 14.0355 26.4911 14.0081 26.1254L13.9714 25.5952C13.8066 23.127 13.651 19.5527 13.651 17.1759C13.651 17.1119 13.651 17.0479 13.651 16.9839C14.0722 17.249 15.9124 18.4008 15.9124 18.4008C19.0436 20.4303 23.7771 23.4927 26.6336 24.3063C26.7801 24.352 26.9358 24.3154 27.0456 24.2148C27.0456 24.2057 27.4851 23.9315 27.4851 23.9315L27.5675 23.8949C27.7323 23.8126 27.8422 23.5384 27.8605 23.2458C30.2684 23.127 33.6285 22.1946 35.4322 19.9366C36.128 19.059 36.4393 17.9895 36.4393 17.0753C36.4301 16.3531 36.2195 15.7041 35.8442 15.3476Z" fill="#FCAF16"/>
</svg>
